G04*
G04 #@! TF.GenerationSoftware,Altium Limited,Altium Designer,26.7.1 (11)*
G04*
G04 Layer_Color=2752767*
G04 Board_Origin=9050000|12350000*
%FSLAX44Y44*%
%MOMM*%
G71*
G04*
G04 #@! TF.SameCoordinates,80AB116B-B8CD-4F78-BA40-185F0AAF2E33*
G04*
G04*
G04 #@! TF.FilePolarity,Positive*
G04*
G01*
G75*
%ADD14C,0.1270*%
%ADD75C,0.1693*%
D14*
X1258230Y640080D02*
X1263310Y645160D01*
X1268390Y640080D01*
X1263310Y635000D01*
X1258230Y640080D01*
X798830D02*
X803910Y645160D01*
X808990Y640080D01*
X803910Y635000D01*
X798830Y640080D01*
X68580Y1275080D02*
X71120Y1277620D01*
X73660D01*
X71120Y1280160D01*
X73660Y1282700D01*
X71120D01*
X68580Y1285240D01*
X66040Y1282700D01*
X63500D01*
X66040Y1280160D01*
X63500Y1277620D01*
X66040D01*
X68580Y1275080D01*
Y1277112D02*
X70104Y1278636D01*
X71628D01*
X70104Y1280160D01*
X71628Y1281684D01*
X70104D01*
X68580Y1283208D01*
X67056Y1281684D01*
X65532D01*
X67056Y1280160D01*
X65532Y1278636D01*
X67056D01*
X68580Y1277112D01*
X1708150Y59690D02*
X1710690Y62230D01*
X1713230D01*
X1710690Y64770D01*
X1713230Y67310D01*
X1710690D01*
X1708150Y69850D01*
X1705610Y67310D01*
X1703070D01*
X1705610Y64770D01*
X1703070Y62230D01*
X1705610D01*
X1708150Y59690D01*
Y61722D02*
X1709674Y63246D01*
X1711198D01*
X1709674Y64770D01*
X1711198Y66294D01*
X1709674D01*
X1708150Y67818D01*
X1706626Y66294D01*
X1705102D01*
X1706626Y64770D01*
X1705102Y63246D01*
X1706626D01*
X1708150Y61722D01*
X1717040Y1270000D02*
X1719580Y1272540D01*
X1722120D01*
X1719580Y1275080D01*
X1722120Y1277620D01*
X1719580D01*
X1717040Y1280160D01*
X1714500Y1277620D01*
X1711960D01*
X1714500Y1275080D01*
X1711960Y1272540D01*
X1714500D01*
X1717040Y1270000D01*
Y1272032D02*
X1718564Y1273556D01*
X1720088D01*
X1718564Y1275080D01*
X1720088Y1276604D01*
X1718564D01*
X1717040Y1278128D01*
X1715516Y1276604D01*
X1713992D01*
X1715516Y1275080D01*
X1713992Y1273556D01*
X1715516D01*
X1717040Y1272032D01*
X69850Y58420D02*
X72390Y60960D01*
X74930D01*
X72390Y63500D01*
X74930Y66040D01*
X72390D01*
X69850Y68580D01*
X67310Y66040D01*
X64770D01*
X67310Y63500D01*
X64770Y60960D01*
X67310D01*
X69850Y58420D01*
Y60452D02*
X71374Y61976D01*
X72898D01*
X71374Y63500D01*
X72898Y65024D01*
X71374D01*
X69850Y66548D01*
X68326Y65024D01*
X66802D01*
X68326Y63500D01*
X66802Y61976D01*
X68326D01*
X69850Y60452D01*
X288290Y640080D02*
X293370Y645160D01*
X298450Y640080D01*
X293370Y635000D01*
X288290Y640080D01*
X747690D02*
X752770Y645160D01*
X757850Y640080D01*
X752770Y635000D01*
X747690Y640080D01*
X1385570Y303530D02*
Y313690D01*
X1395730D01*
Y303530D01*
X1385570D01*
X1372870Y346710D02*
Y356870D01*
X1383030D01*
Y346710D01*
X1372870D01*
X1003300Y356870D02*
Y367030D01*
X1013460D01*
Y356870D01*
X1003300D01*
X906780D02*
Y367030D01*
X916940D01*
Y356870D01*
X906780D01*
X1596390Y374977D02*
Y385137D01*
X1606550D01*
Y374977D01*
X1596390D01*
X1573530D02*
Y385137D01*
X1583690D01*
Y374977D01*
X1573530D01*
D75*
X853440Y250190D02*
G03*
X853440Y250190I-5080J0D01*
G01*
M02*
