G04*
G04 #@! TF.GenerationSoftware,Altium Limited,Altium Designer,26.7.1 (11)*
G04*
G04 Layer_Color=16711935*
G04 Board_Origin=9050000|12350000*
%FSLAX44Y44*%
%MOMM*%
G71*
G04*
G04 #@! TF.SameCoordinates,DAD20795-6F5A-43C1-A009-23EB491C9462*
G04*
G04*
G04 #@! TF.FilePolarity,Negative*
G04*
G01*
G75*
%ADD21R,0.6000X2.0000*%
%ADD26C,1.2000*%
%ADD34C,1.2750*%
%ADD35R,1.7500X1.0500*%
%ADD36R,2.7200X1.1600*%
%ADD40R,1.5220X1.5220*%
%ADD41C,4.0050*%
%ADD42R,4.0050X4.0050*%
%ADD43C,1.5240*%
%ADD44C,1.2700*%
%ADD49R,1.1400X1.4700*%
%ADD50C,1.5000*%
G04:AMPARAMS|DCode=59|XSize=0.65mm|YSize=1mm|CornerRadius=0.0813mm|HoleSize=0mm|Usage=FLASHONLY|Rotation=0.000|XOffset=0mm|YOffset=0mm|HoleType=Round|Shape=RoundedRectangle|*
%AMROUNDEDRECTD59*
21,1,0.6500,0.8375,0,0,0.0*
21,1,0.4875,1.0000,0,0,0.0*
1,1,0.1625,0.2438,-0.4188*
1,1,0.1625,-0.2438,-0.4188*
1,1,0.1625,-0.2438,0.4188*
1,1,0.1625,0.2438,0.4188*
%
%ADD59ROUNDEDRECTD59*%
%ADD60C,1.6050*%
%ADD68C,1.5494*%
%ADD69R,1.6050X1.6050*%
%ADD70R,1.6050X1.6050*%
%ADD72R,1.0500X1.7500*%
G04:AMPARAMS|DCode=75|XSize=1.364mm|YSize=2.024mm|CornerRadius=0.247mm|HoleSize=0mm|Usage=FLASHONLY|Rotation=270.000|XOffset=0mm|YOffset=0mm|HoleType=Round|Shape=RoundedRectangle|*
%AMROUNDEDRECTD75*
21,1,1.3640,1.5300,0,0,270.0*
21,1,0.8700,2.0240,0,0,270.0*
1,1,0.4940,-0.7650,-0.4350*
1,1,0.4940,-0.7650,0.4350*
1,1,0.4940,0.7650,0.4350*
1,1,0.4940,0.7650,-0.4350*
%
%ADD75ROUNDEDRECTD75*%
G36*
X178940Y1077640D02*
X179980Y1077590D01*
X181010Y1077500D01*
X182040Y1077380D01*
X183060Y1077220D01*
X184070Y1077030D01*
X185080Y1076810D01*
X186090Y1076550D01*
X187080Y1076260D01*
X188060Y1075930D01*
X189030Y1075570D01*
X189990Y1075180D01*
X190930Y1074760D01*
X191860Y1074300D01*
X192770Y1073820D01*
X193670Y1073300D01*
X194550Y1072750D01*
X195400Y1072180D01*
X196240Y1071570D01*
X197060Y1070940D01*
X197860Y1070280D01*
X198630Y1069590D01*
X199380Y1068880D01*
X200110Y1068150D01*
X200810Y1067390D01*
X201480Y1066600D01*
X202130Y1065790D01*
X202750Y1064970D01*
X203340Y1064120D01*
X203900Y1063260D01*
Y1030060D01*
X203340Y1029200D01*
X202750Y1028350D01*
X202130Y1027530D01*
X201480Y1026720D01*
X200810Y1025930D01*
X200110Y1025170D01*
X199380Y1024440D01*
X198630Y1023730D01*
X197860Y1023040D01*
X197060Y1022380D01*
X196240Y1021750D01*
X195400Y1021140D01*
X194550Y1020570D01*
X193670Y1020020D01*
X192770Y1019500D01*
X191860Y1019020D01*
X190930Y1018560D01*
X189990Y1018140D01*
X189030Y1017750D01*
X188060Y1017390D01*
X187080Y1017060D01*
X186090Y1016770D01*
X185080Y1016510D01*
X184070Y1016290D01*
X183060Y1016100D01*
X182040Y1015940D01*
X181010Y1015820D01*
X179980Y1015730D01*
X178940Y1015680D01*
X177900Y1015660D01*
X137900D01*
X136280Y1015700D01*
X134660Y1015830D01*
X133050Y1016040D01*
X131450Y1016340D01*
X129880Y1016720D01*
X128320Y1017180D01*
X126790Y1017720D01*
X125290Y1018340D01*
X123830Y1019040D01*
X122400Y1019810D01*
X121020Y1020660D01*
X119680Y1021580D01*
X118390Y1022570D01*
X117160Y1023620D01*
X115980Y1024740D01*
X114860Y1025920D01*
X113810Y1027150D01*
X112820Y1028440D01*
X111900Y1029780D01*
X111050Y1031160D01*
X110280Y1032590D01*
X109580Y1034050D01*
X108960Y1035550D01*
X108420Y1037080D01*
X107960Y1038640D01*
X107580Y1040210D01*
X107280Y1041810D01*
X107070Y1043420D01*
X106940Y1045040D01*
X106900Y1046660D01*
X106940Y1048280D01*
X107070Y1049900D01*
X107280Y1051510D01*
X107580Y1053110D01*
X107960Y1054680D01*
X108420Y1056240D01*
X108960Y1057770D01*
X109580Y1059270D01*
X110280Y1060730D01*
X111050Y1062160D01*
X111900Y1063540D01*
X112820Y1064880D01*
X113810Y1066170D01*
X114860Y1067400D01*
X115980Y1068580D01*
X117160Y1069700D01*
X118390Y1070750D01*
X119680Y1071740D01*
X121020Y1072660D01*
X122400Y1073510D01*
X123830Y1074280D01*
X125290Y1074980D01*
X126790Y1075600D01*
X128320Y1076140D01*
X129880Y1076600D01*
X131450Y1076980D01*
X133050Y1077280D01*
X134660Y1077490D01*
X136280Y1077620D01*
X137900Y1077660D01*
X177900D01*
X178940Y1077640D01*
D02*
G37*
G36*
X279520Y1077620D02*
X281140Y1077490D01*
X282750Y1077280D01*
X284350Y1076980D01*
X285920Y1076600D01*
X287480Y1076140D01*
X289010Y1075600D01*
X290510Y1074980D01*
X291970Y1074280D01*
X293400Y1073510D01*
X294780Y1072660D01*
X296120Y1071740D01*
X297410Y1070750D01*
X298640Y1069700D01*
X299820Y1068580D01*
X300940Y1067400D01*
X301990Y1066170D01*
X302980Y1064880D01*
X303900Y1063540D01*
X304750Y1062160D01*
X305520Y1060730D01*
X306220Y1059270D01*
X306840Y1057770D01*
X307380Y1056240D01*
X307840Y1054680D01*
X308220Y1053110D01*
X308520Y1051510D01*
X308730Y1049900D01*
X308860Y1048280D01*
X308900Y1046660D01*
X308860Y1045040D01*
X308730Y1043420D01*
X308520Y1041810D01*
X308220Y1040210D01*
X307840Y1038640D01*
X307380Y1037080D01*
X306840Y1035550D01*
X306220Y1034050D01*
X305520Y1032590D01*
X304750Y1031160D01*
X303900Y1029780D01*
X302980Y1028440D01*
X301990Y1027150D01*
X300940Y1025920D01*
X299820Y1024740D01*
X298640Y1023620D01*
X297410Y1022570D01*
X296120Y1021580D01*
X294780Y1020660D01*
X293400Y1019810D01*
X291970Y1019040D01*
X290510Y1018340D01*
X289010Y1017720D01*
X287480Y1017180D01*
X285920Y1016720D01*
X284350Y1016340D01*
X282750Y1016040D01*
X281140Y1015830D01*
X279520Y1015700D01*
X277900Y1015660D01*
X237900D01*
X236860Y1015680D01*
X235820Y1015730D01*
X234790Y1015820D01*
X233760Y1015940D01*
X232740Y1016100D01*
X231730Y1016290D01*
X230720Y1016510D01*
X229710Y1016770D01*
X228720Y1017060D01*
X227740Y1017390D01*
X226770Y1017750D01*
X225810Y1018140D01*
X224870Y1018560D01*
X223940Y1019020D01*
X223030Y1019500D01*
X222130Y1020020D01*
X221250Y1020570D01*
X220400Y1021140D01*
X219560Y1021750D01*
X218740Y1022380D01*
X217940Y1023040D01*
X217170Y1023730D01*
X216420Y1024440D01*
X215690Y1025170D01*
X214990Y1025930D01*
X214320Y1026720D01*
X213670Y1027530D01*
X213050Y1028350D01*
X212460Y1029200D01*
X211900Y1030060D01*
Y1063260D01*
X212460Y1064120D01*
X213050Y1064970D01*
X213670Y1065790D01*
X214320Y1066600D01*
X214990Y1067390D01*
X215690Y1068150D01*
X216420Y1068880D01*
X217170Y1069590D01*
X217940Y1070280D01*
X218740Y1070940D01*
X219560Y1071570D01*
X220400Y1072180D01*
X221250Y1072750D01*
X222130Y1073300D01*
X223030Y1073820D01*
X223940Y1074300D01*
X224870Y1074760D01*
X225810Y1075180D01*
X226770Y1075570D01*
X227740Y1075930D01*
X228720Y1076260D01*
X229710Y1076550D01*
X230720Y1076810D01*
X231730Y1077030D01*
X232740Y1077220D01*
X233760Y1077380D01*
X234790Y1077500D01*
X235820Y1077590D01*
X236860Y1077640D01*
X237900Y1077660D01*
X277900D01*
X279520Y1077620D01*
D02*
G37*
D21*
X1174750Y271490D02*
D03*
X1162050D02*
D03*
X1149350D02*
D03*
X492010Y301330D02*
D03*
X504710D02*
D03*
X517410D02*
D03*
D26*
X1631950Y608720D02*
D03*
Y498720D02*
D03*
X1516380Y562610D02*
D03*
Y403610D02*
D03*
X1475740Y652780D02*
D03*
X1634740D02*
D03*
D34*
X1767840Y918210D02*
D03*
X1525270Y858520D02*
D03*
X1768270D02*
D03*
X102870Y450420D02*
D03*
D35*
X1471930Y710670D02*
D03*
X1557020Y424920D02*
D03*
X1601470Y563140D02*
D03*
X1578610Y534140D02*
D03*
Y563140D02*
D03*
X1042670Y337080D02*
D03*
X102870Y434870D02*
D03*
X1577340Y424920D02*
D03*
Y453920D02*
D03*
X692150Y327130D02*
D03*
D36*
X1502410Y710420D02*
D03*
X1551940Y532620D02*
D03*
Y562120D02*
D03*
D40*
X227330Y802640D02*
D03*
D41*
X1289050Y640080D02*
D03*
D42*
X330200D02*
D03*
D43*
X68580Y1280160D02*
D03*
X1823720Y66040D02*
D03*
X1844040Y1290320D02*
D03*
X69850Y63500D02*
D03*
D44*
X1578610Y380057D02*
D03*
X911860Y361950D02*
D03*
X1008380D02*
D03*
X1601470Y380057D02*
D03*
D49*
X1306840Y314960D02*
D03*
D50*
X1242060Y779780D02*
D03*
X227000Y832660D02*
D03*
D59*
X1579840Y504060D02*
D03*
X1590040Y480060D02*
D03*
D60*
X1409700Y289560D02*
D03*
X1435100D02*
D03*
X1460500D02*
D03*
X1485900D02*
D03*
X922020Y280670D02*
D03*
X896620D02*
D03*
X871220D02*
D03*
X31750Y670560D02*
D03*
D68*
X1701800Y614680D02*
D03*
Y497840D02*
D03*
D69*
X1384300Y289560D02*
D03*
X845820Y280670D02*
D03*
D70*
X31750Y695960D02*
D03*
D72*
X1383770Y262890D02*
D03*
X1412770D02*
D03*
X1508230Y600710D02*
D03*
X1537230D02*
D03*
D75*
X1601470Y609110D02*
D03*
Y579610D02*
D03*
M02*
