G04*
G04 #@! TF.GenerationSoftware,Altium Limited,Altium Designer,26.7.1 (11)*
G04*
G04 Layer_Color=1930808*
G04 Board_Origin=9050000|12350000*
%FSLAX44Y44*%
%MOMM*%
G71*
G04*
G04 #@! TF.SameCoordinates,80AB116B-B8CD-4F78-BA40-185F0AAF2E33*
G04*
G04*
G04 #@! TF.FilePolarity,Positive*
G04*
G01*
G75*
G36*
X1158226Y317983D02*
X1158289D01*
X1158367Y317976D01*
X1158444Y317962D01*
X1158535Y317955D01*
X1158634Y317934D01*
X1158739Y317920D01*
X1158965Y317863D01*
X1159197Y317793D01*
X1159429Y317694D01*
X1159436Y317687D01*
X1159457Y317680D01*
X1159485Y317666D01*
X1159528Y317638D01*
X1159584Y317610D01*
X1159640Y317575D01*
X1159774Y317476D01*
X1159929Y317357D01*
X1160076Y317209D01*
X1160224Y317040D01*
X1160287Y316942D01*
X1160351Y316843D01*
X1160358Y316836D01*
X1160365Y316815D01*
X1160379Y316787D01*
X1160400Y316745D01*
X1160421Y316688D01*
X1160449Y316625D01*
X1160477Y316555D01*
X1160506Y316470D01*
X1160534Y316379D01*
X1160555Y316280D01*
X1160583Y316175D01*
X1160604Y316062D01*
X1160639Y315816D01*
X1160653Y315689D01*
Y315464D01*
X1160646Y315422D01*
Y315366D01*
X1160632Y315232D01*
X1160611Y315084D01*
X1160576Y314929D01*
X1160534Y314761D01*
X1160477Y314599D01*
Y314592D01*
X1160470Y314578D01*
X1160463Y314557D01*
X1160449Y314528D01*
X1160407Y314451D01*
X1160358Y314352D01*
X1160287Y314247D01*
X1160203Y314134D01*
X1160111Y314029D01*
X1159999Y313930D01*
X1159985Y313916D01*
X1159943Y313888D01*
X1159879Y313846D01*
X1159788Y313790D01*
X1159675Y313733D01*
X1159535Y313670D01*
X1159380Y313607D01*
X1159204Y313557D01*
X1159049Y314141D01*
X1159056D01*
X1159063Y314148D01*
X1159084Y314156D01*
X1159112Y314163D01*
X1159176Y314184D01*
X1159260Y314212D01*
X1159359Y314254D01*
X1159450Y314303D01*
X1159549Y314352D01*
X1159633Y314416D01*
X1159640Y314423D01*
X1159668Y314444D01*
X1159703Y314486D01*
X1159753Y314535D01*
X1159809Y314599D01*
X1159865Y314683D01*
X1159921Y314775D01*
X1159971Y314880D01*
X1159978Y314894D01*
X1159992Y314929D01*
X1160013Y314993D01*
X1160041Y315077D01*
X1160062Y315176D01*
X1160083Y315288D01*
X1160097Y315415D01*
X1160104Y315549D01*
Y315626D01*
X1160097Y315661D01*
Y315703D01*
X1160090Y315809D01*
X1160069Y315928D01*
X1160048Y316062D01*
X1160013Y316189D01*
X1159964Y316315D01*
X1159957Y316329D01*
X1159943Y316372D01*
X1159907Y316428D01*
X1159872Y316498D01*
X1159816Y316583D01*
X1159760Y316674D01*
X1159689Y316759D01*
X1159612Y316836D01*
X1159605Y316843D01*
X1159577Y316871D01*
X1159528Y316907D01*
X1159471Y316949D01*
X1159401Y316998D01*
X1159316Y317047D01*
X1159225Y317096D01*
X1159126Y317146D01*
X1159119D01*
X1159105Y317153D01*
X1159084Y317160D01*
X1159049Y317174D01*
X1159007Y317188D01*
X1158958Y317202D01*
X1158901Y317223D01*
X1158838Y317237D01*
X1158690Y317272D01*
X1158521Y317300D01*
X1158345Y317322D01*
X1158148Y317329D01*
X1158141D01*
X1158120D01*
X1158085D01*
X1158043Y317322D01*
X1157987D01*
X1157916Y317315D01*
X1157846Y317307D01*
X1157768Y317300D01*
X1157593Y317272D01*
X1157410Y317237D01*
X1157227Y317181D01*
X1157051Y317111D01*
X1157044D01*
X1157030Y317096D01*
X1157009Y317089D01*
X1156981Y317068D01*
X1156903Y317019D01*
X1156805Y316942D01*
X1156699Y316850D01*
X1156593Y316738D01*
X1156495Y316604D01*
X1156404Y316456D01*
Y316449D01*
X1156396Y316435D01*
X1156383Y316414D01*
X1156368Y316379D01*
X1156354Y316344D01*
X1156340Y316294D01*
X1156298Y316182D01*
X1156263Y316041D01*
X1156228Y315886D01*
X1156199Y315717D01*
X1156192Y315541D01*
Y315471D01*
X1156199Y315429D01*
Y315387D01*
X1156214Y315281D01*
X1156228Y315155D01*
X1156256Y315021D01*
X1156298Y314873D01*
X1156347Y314725D01*
Y314718D01*
X1156354Y314704D01*
X1156361Y314690D01*
X1156375Y314662D01*
X1156411Y314585D01*
X1156453Y314500D01*
X1156502Y314402D01*
X1156558Y314296D01*
X1156622Y314198D01*
X1156692Y314113D01*
X1157607D01*
Y315549D01*
X1158184D01*
Y313480D01*
X1156375D01*
X1156368Y313487D01*
X1156361Y313501D01*
X1156340Y313529D01*
X1156312Y313564D01*
X1156284Y313607D01*
X1156249Y313656D01*
X1156207Y313719D01*
X1156164Y313783D01*
X1156073Y313930D01*
X1155974Y314099D01*
X1155883Y314275D01*
X1155806Y314465D01*
Y314472D01*
X1155798Y314486D01*
X1155791Y314514D01*
X1155777Y314550D01*
X1155763Y314599D01*
X1155742Y314655D01*
X1155728Y314718D01*
X1155714Y314782D01*
X1155679Y314937D01*
X1155644Y315112D01*
X1155623Y315302D01*
X1155616Y315499D01*
Y315570D01*
X1155623Y315619D01*
Y315682D01*
X1155630Y315760D01*
X1155644Y315844D01*
X1155651Y315935D01*
X1155693Y316140D01*
X1155742Y316358D01*
X1155820Y316583D01*
X1155862Y316695D01*
X1155918Y316808D01*
X1155925Y316815D01*
X1155932Y316836D01*
X1155953Y316864D01*
X1155974Y316907D01*
X1156010Y316956D01*
X1156045Y317005D01*
X1156143Y317139D01*
X1156270Y317279D01*
X1156425Y317427D01*
X1156601Y317568D01*
X1156805Y317694D01*
X1156812D01*
X1156833Y317709D01*
X1156861Y317723D01*
X1156910Y317744D01*
X1156959Y317765D01*
X1157030Y317786D01*
X1157100Y317814D01*
X1157185Y317842D01*
X1157276Y317870D01*
X1157382Y317899D01*
X1157487Y317920D01*
X1157600Y317941D01*
X1157846Y317976D01*
X1158106Y317990D01*
X1158113D01*
X1158141D01*
X1158177D01*
X1158226Y317983D01*
D02*
G37*
G36*
X1155834Y312854D02*
X1155897Y312847D01*
X1155967Y312833D01*
X1156038Y312819D01*
X1156115Y312791D01*
X1156122D01*
X1156129Y312784D01*
X1156171Y312769D01*
X1156235Y312741D01*
X1156319Y312699D01*
X1156418Y312643D01*
X1156530Y312572D01*
X1156643Y312495D01*
X1156762Y312397D01*
X1156769D01*
X1156777Y312383D01*
X1156819Y312347D01*
X1156882Y312284D01*
X1156973Y312192D01*
X1157079Y312087D01*
X1157206Y311953D01*
X1157346Y311791D01*
X1157494Y311616D01*
X1157501Y311609D01*
X1157522Y311580D01*
X1157558Y311538D01*
X1157600Y311489D01*
X1157656Y311426D01*
X1157719Y311348D01*
X1157790Y311271D01*
X1157867Y311179D01*
X1158036Y311003D01*
X1158205Y310828D01*
X1158289Y310743D01*
X1158374Y310666D01*
X1158451Y310595D01*
X1158528Y310539D01*
X1158535D01*
X1158542Y310525D01*
X1158564Y310511D01*
X1158592Y310497D01*
X1158669Y310448D01*
X1158761Y310391D01*
X1158873Y310342D01*
X1158993Y310293D01*
X1159126Y310265D01*
X1159253Y310251D01*
X1159260D01*
X1159267D01*
X1159309Y310258D01*
X1159380Y310265D01*
X1159457Y310286D01*
X1159556Y310314D01*
X1159654Y310363D01*
X1159753Y310427D01*
X1159851Y310511D01*
X1159865Y310525D01*
X1159893Y310560D01*
X1159929Y310609D01*
X1159978Y310687D01*
X1160020Y310785D01*
X1160062Y310898D01*
X1160090Y311032D01*
X1160097Y311179D01*
Y311222D01*
X1160090Y311250D01*
X1160083Y311334D01*
X1160062Y311433D01*
X1160034Y311538D01*
X1159985Y311658D01*
X1159921Y311770D01*
X1159837Y311876D01*
X1159823Y311890D01*
X1159788Y311918D01*
X1159732Y311960D01*
X1159647Y312003D01*
X1159549Y312052D01*
X1159422Y312094D01*
X1159281Y312122D01*
X1159119Y312136D01*
X1159183Y312748D01*
X1159190D01*
X1159211Y312741D01*
X1159246D01*
X1159295Y312734D01*
X1159352Y312720D01*
X1159415Y312706D01*
X1159492Y312685D01*
X1159570Y312664D01*
X1159738Y312608D01*
X1159907Y312523D01*
X1159992Y312474D01*
X1160076Y312411D01*
X1160154Y312347D01*
X1160224Y312277D01*
X1160231Y312270D01*
X1160238Y312256D01*
X1160259Y312235D01*
X1160280Y312199D01*
X1160308Y312157D01*
X1160337Y312108D01*
X1160372Y312052D01*
X1160407Y311981D01*
X1160442Y311904D01*
X1160477Y311820D01*
X1160506Y311728D01*
X1160534Y311630D01*
X1160555Y311524D01*
X1160576Y311411D01*
X1160583Y311292D01*
X1160590Y311165D01*
Y311095D01*
X1160583Y311046D01*
X1160576Y310989D01*
X1160569Y310919D01*
X1160555Y310842D01*
X1160541Y310764D01*
X1160491Y310581D01*
X1160421Y310398D01*
X1160379Y310307D01*
X1160330Y310215D01*
X1160266Y310131D01*
X1160196Y310054D01*
X1160189Y310047D01*
X1160182Y310033D01*
X1160154Y310018D01*
X1160126Y309990D01*
X1160090Y309955D01*
X1160041Y309920D01*
X1159992Y309885D01*
X1159929Y309842D01*
X1159795Y309772D01*
X1159626Y309702D01*
X1159541Y309674D01*
X1159443Y309660D01*
X1159344Y309646D01*
X1159239Y309639D01*
X1159225D01*
X1159190D01*
X1159134Y309646D01*
X1159056Y309653D01*
X1158972Y309667D01*
X1158873Y309695D01*
X1158768Y309723D01*
X1158662Y309765D01*
X1158648Y309772D01*
X1158613Y309786D01*
X1158557Y309814D01*
X1158479Y309857D01*
X1158395Y309913D01*
X1158289Y309983D01*
X1158184Y310068D01*
X1158064Y310166D01*
X1158050Y310180D01*
X1158008Y310215D01*
X1157973Y310251D01*
X1157937Y310286D01*
X1157895Y310328D01*
X1157839Y310384D01*
X1157783Y310441D01*
X1157719Y310511D01*
X1157649Y310581D01*
X1157571Y310666D01*
X1157494Y310757D01*
X1157403Y310856D01*
X1157311Y310968D01*
X1157213Y311081D01*
X1157206Y311088D01*
X1157192Y311102D01*
X1157170Y311130D01*
X1157142Y311165D01*
X1157100Y311208D01*
X1157058Y311257D01*
X1156966Y311369D01*
X1156861Y311489D01*
X1156755Y311602D01*
X1156664Y311700D01*
X1156629Y311742D01*
X1156593Y311777D01*
X1156587Y311784D01*
X1156565Y311805D01*
X1156537Y311834D01*
X1156495Y311869D01*
X1156446Y311904D01*
X1156396Y311946D01*
X1156277Y312031D01*
Y309632D01*
X1155700D01*
Y312861D01*
X1155707D01*
X1155735D01*
X1155777D01*
X1155834Y312854D01*
D02*
G37*
G36*
X500886Y347823D02*
X500949D01*
X501027Y347816D01*
X501104Y347802D01*
X501195Y347795D01*
X501294Y347774D01*
X501399Y347760D01*
X501625Y347703D01*
X501857Y347633D01*
X502089Y347534D01*
X502096Y347527D01*
X502117Y347520D01*
X502145Y347506D01*
X502188Y347478D01*
X502244Y347450D01*
X502300Y347415D01*
X502434Y347316D01*
X502589Y347197D01*
X502736Y347049D01*
X502884Y346880D01*
X502947Y346782D01*
X503011Y346683D01*
X503018Y346676D01*
X503025Y346655D01*
X503039Y346627D01*
X503060Y346585D01*
X503081Y346528D01*
X503109Y346465D01*
X503137Y346395D01*
X503165Y346310D01*
X503194Y346219D01*
X503215Y346120D01*
X503243Y346015D01*
X503264Y345902D01*
X503299Y345656D01*
X503313Y345529D01*
Y345304D01*
X503306Y345262D01*
Y345206D01*
X503292Y345072D01*
X503271Y344924D01*
X503236Y344769D01*
X503194Y344601D01*
X503137Y344439D01*
Y344432D01*
X503130Y344418D01*
X503123Y344397D01*
X503109Y344368D01*
X503067Y344291D01*
X503018Y344193D01*
X502947Y344087D01*
X502863Y343974D01*
X502771Y343869D01*
X502659Y343770D01*
X502645Y343756D01*
X502603Y343728D01*
X502539Y343686D01*
X502448Y343630D01*
X502335Y343573D01*
X502195Y343510D01*
X502040Y343447D01*
X501864Y343397D01*
X501709Y343981D01*
X501716D01*
X501723Y343988D01*
X501744Y343996D01*
X501772Y344002D01*
X501836Y344024D01*
X501920Y344052D01*
X502019Y344094D01*
X502110Y344143D01*
X502209Y344193D01*
X502293Y344256D01*
X502300Y344263D01*
X502328Y344284D01*
X502363Y344326D01*
X502413Y344375D01*
X502469Y344439D01*
X502525Y344523D01*
X502581Y344615D01*
X502631Y344720D01*
X502638Y344734D01*
X502652Y344769D01*
X502673Y344833D01*
X502701Y344917D01*
X502722Y345016D01*
X502743Y345128D01*
X502757Y345255D01*
X502764Y345389D01*
Y345466D01*
X502757Y345501D01*
Y345543D01*
X502750Y345649D01*
X502729Y345769D01*
X502708Y345902D01*
X502673Y346029D01*
X502624Y346156D01*
X502617Y346170D01*
X502603Y346212D01*
X502567Y346268D01*
X502532Y346338D01*
X502476Y346423D01*
X502420Y346514D01*
X502349Y346599D01*
X502272Y346676D01*
X502265Y346683D01*
X502237Y346711D01*
X502188Y346746D01*
X502131Y346789D01*
X502061Y346838D01*
X501976Y346887D01*
X501885Y346936D01*
X501786Y346986D01*
X501779D01*
X501765Y346993D01*
X501744Y347000D01*
X501709Y347014D01*
X501667Y347028D01*
X501618Y347042D01*
X501561Y347063D01*
X501498Y347077D01*
X501350Y347112D01*
X501181Y347141D01*
X501005Y347162D01*
X500808Y347169D01*
X500801D01*
X500780D01*
X500745D01*
X500703Y347162D01*
X500647D01*
X500576Y347155D01*
X500506Y347147D01*
X500429Y347141D01*
X500253Y347112D01*
X500070Y347077D01*
X499887Y347021D01*
X499711Y346950D01*
X499704D01*
X499690Y346936D01*
X499669Y346929D01*
X499641Y346908D01*
X499563Y346859D01*
X499465Y346782D01*
X499359Y346690D01*
X499254Y346578D01*
X499155Y346444D01*
X499064Y346296D01*
Y346289D01*
X499057Y346275D01*
X499043Y346254D01*
X499028Y346219D01*
X499014Y346184D01*
X499000Y346134D01*
X498958Y346022D01*
X498923Y345881D01*
X498888Y345726D01*
X498859Y345557D01*
X498853Y345382D01*
Y345311D01*
X498859Y345269D01*
Y345227D01*
X498874Y345121D01*
X498888Y344995D01*
X498916Y344861D01*
X498958Y344713D01*
X499007Y344565D01*
Y344558D01*
X499014Y344544D01*
X499021Y344530D01*
X499035Y344502D01*
X499071Y344425D01*
X499113Y344340D01*
X499162Y344242D01*
X499218Y344136D01*
X499282Y344038D01*
X499352Y343953D01*
X500267D01*
Y345389D01*
X500844D01*
Y343320D01*
X499035D01*
X499028Y343327D01*
X499021Y343341D01*
X499000Y343369D01*
X498972Y343405D01*
X498944Y343447D01*
X498909Y343496D01*
X498867Y343559D01*
X498824Y343623D01*
X498733Y343770D01*
X498634Y343939D01*
X498543Y344115D01*
X498465Y344305D01*
Y344312D01*
X498459Y344326D01*
X498451Y344354D01*
X498437Y344389D01*
X498423Y344439D01*
X498402Y344495D01*
X498388Y344558D01*
X498374Y344622D01*
X498339Y344776D01*
X498304Y344952D01*
X498283Y345142D01*
X498276Y345339D01*
Y345410D01*
X498283Y345459D01*
Y345522D01*
X498290Y345600D01*
X498304Y345684D01*
X498311Y345775D01*
X498353Y345980D01*
X498402Y346198D01*
X498480Y346423D01*
X498522Y346535D01*
X498578Y346648D01*
X498585Y346655D01*
X498592Y346676D01*
X498613Y346704D01*
X498634Y346746D01*
X498670Y346796D01*
X498705Y346845D01*
X498803Y346979D01*
X498930Y347119D01*
X499085Y347267D01*
X499261Y347408D01*
X499465Y347534D01*
X499472D01*
X499493Y347549D01*
X499521Y347563D01*
X499570Y347584D01*
X499619Y347605D01*
X499690Y347626D01*
X499760Y347654D01*
X499845Y347682D01*
X499936Y347710D01*
X500042Y347738D01*
X500147Y347760D01*
X500260Y347781D01*
X500506Y347816D01*
X500766Y347830D01*
X500773D01*
X500801D01*
X500837D01*
X500886Y347823D01*
D02*
G37*
G36*
X502026Y342152D02*
X502040Y342138D01*
X502047Y342110D01*
X502068Y342075D01*
X502089Y342033D01*
X502117Y341983D01*
X502188Y341864D01*
X502265Y341723D01*
X502363Y341582D01*
X502476Y341434D01*
X502595Y341287D01*
X502603Y341280D01*
X502610Y341273D01*
X502631Y341251D01*
X502652Y341223D01*
X502722Y341160D01*
X502807Y341076D01*
X502905Y340991D01*
X503018Y340900D01*
X503130Y340822D01*
X503250Y340752D01*
Y340365D01*
X498360D01*
Y340963D01*
X502166D01*
X502159Y340970D01*
X502131Y341005D01*
X502089Y341048D01*
X502040Y341118D01*
X501976Y341195D01*
X501906Y341294D01*
X501829Y341406D01*
X501751Y341533D01*
Y341540D01*
X501744Y341547D01*
X501716Y341589D01*
X501681Y341660D01*
X501639Y341744D01*
X501589Y341842D01*
X501540Y341948D01*
X501491Y342054D01*
X501449Y342159D01*
X502026D01*
Y342152D01*
D02*
G37*
M02*
