G04*
G04 #@! TF.GenerationSoftware,Altium Limited,Altium Designer,26.7.1 (11)*
G04*
G04 Layer_Color=16711935*
G04 Board_Origin=9050000|12350000*
%FSLAX44Y44*%
%MOMM*%
G71*
G04*
G04 #@! TF.SameCoordinates,80AB116B-B8CD-4F78-BA40-185F0AAF2E33*
G04*
G04*
G04 #@! TF.FilePolarity,Positive*
G04*
G01*
G75*
%ADD10C,0.2000*%
%ADD12C,0.1000*%
%ADD13C,0.2400*%
%ADD14C,0.1270*%
D10*
X1222160Y436880D02*
G03*
X1222160Y436880I-1000J0D01*
G01*
X1367000Y289560D02*
G03*
X1367000Y289560I-1000J0D01*
G01*
X831060Y250190D02*
G03*
X831060Y250190I-1000J0D01*
G01*
X32750Y714260D02*
G03*
X32750Y714260I-1000J0D01*
G01*
X106230Y255270D02*
G03*
X106230Y255270I-1000J0D01*
G01*
X289870Y238760D02*
G03*
X289870Y238760I-1000J0D01*
G01*
X968150Y312420D02*
G03*
X968150Y312420I-1000J0D01*
G01*
X454910Y232410D02*
G03*
X454910Y232410I-1000J0D01*
G01*
X113130Y302530D02*
G03*
X113130Y302530I-1000J0D01*
G01*
D12*
X1104200Y280490D02*
Y355490D01*
Y280490D02*
X1207200D01*
X1104200Y355490D02*
X1207200D01*
Y280490D02*
Y355490D01*
X446860Y310330D02*
Y385330D01*
Y310330D02*
X549860D01*
X446860Y385330D02*
X549860D01*
Y310330D02*
Y385330D01*
X1575040Y499060D02*
X1605040D01*
X1575040Y485060D02*
X1605040D01*
Y499060D01*
X1575040Y485060D02*
Y499060D01*
D13*
X188100Y817660D02*
G03*
X188100Y817660I-1200J0D01*
G01*
D14*
X1024650Y312420D02*
G03*
X1024650Y312420I-25000J0D01*
G01*
X511410Y232410D02*
G03*
X511410Y232410I-25000J0D01*
G01*
X1265818Y774966D02*
G03*
X1218301Y774966I-23758J4189D01*
G01*
X1265818D02*
G03*
X1218301Y774966I-23758J4189D01*
G01*
X1176410Y425130D02*
Y436880D01*
Y448630D01*
X1129910D02*
X1176410D01*
X1129910Y436880D02*
Y448630D01*
Y425130D02*
Y436880D01*
Y425130D02*
X1176410D01*
Y436880D02*
X1197010D01*
X1109310D02*
X1129910D01*
X501490Y435660D02*
Y448260D01*
X481490Y435660D02*
Y448260D01*
Y435660D02*
X501490D01*
X481490Y448260D02*
X501490D01*
X492250Y412370D02*
Y428370D01*
X460250D02*
X492250D01*
X460250Y412370D02*
Y428370D01*
Y412370D02*
X492250D01*
X1145030Y402210D02*
Y418210D01*
X1113030D02*
X1145030D01*
X1113030Y402210D02*
Y418210D01*
Y402210D02*
X1145030D01*
X1137760Y383590D02*
Y396190D01*
X1117760Y383590D02*
Y396190D01*
Y383590D02*
X1137760D01*
X1117760Y396190D02*
X1137760D01*
X1371600Y302260D02*
X1524000D01*
Y276860D02*
Y302260D01*
X1371600Y276860D02*
X1524000D01*
X1371600D02*
Y302260D01*
X835660Y237490D02*
Y262890D01*
Y237490D02*
X937260D01*
Y262890D01*
X835660D02*
X937260D01*
X19050Y708660D02*
X44450D01*
X19050Y657860D02*
Y708660D01*
Y657860D02*
X44450D01*
Y708660D01*
X168750Y280670D02*
X258960D01*
X168750Y179070D02*
Y280670D01*
Y179070D02*
X258960D01*
Y280670D01*
X1337440Y970750D02*
X1512440D01*
Y870750D02*
Y970750D01*
X1337440Y870750D02*
Y970750D01*
Y870750D02*
X1512440D01*
X1489910Y709170D02*
X1514910D01*
X1489910Y741170D02*
X1514910D01*
X1489910Y709170D02*
Y741170D01*
X1514910Y709170D02*
Y741170D01*
X1336170Y1081240D02*
X1511170D01*
Y981240D02*
Y1081240D01*
X1336170Y981240D02*
Y1081240D01*
Y981240D02*
X1511170D01*
X157900Y864160D02*
X257900D01*
X157900D02*
Y908160D01*
Y994160D01*
X257900D01*
Y864160D02*
Y994160D01*
X137900Y908160D02*
X157900D01*
X137900D02*
Y1046660D01*
X177900D01*
Y994660D02*
Y1046660D01*
X257900Y908160D02*
X277900D01*
Y1046660D01*
X237900D02*
X277900D01*
X237900Y994660D02*
Y1046660D01*
X233680Y789940D02*
Y815340D01*
X195580D02*
X233680D01*
X195580Y789940D02*
Y815340D01*
Y789940D02*
X233680D01*
X1539440Y563370D02*
X1564440D01*
X1539440Y531370D02*
X1564440D01*
Y563370D01*
X1539440Y531370D02*
Y563370D01*
X380120Y238760D02*
X400720D01*
X313020D02*
X333620D01*
Y250510D02*
X380120D01*
Y238760D02*
Y250510D01*
Y227010D02*
Y238760D01*
X333620Y227010D02*
X380120D01*
X333620D02*
Y238760D01*
Y250510D01*
X265720Y429260D02*
Y442260D01*
Y416260D02*
Y429260D01*
Y416260D02*
X333720D01*
Y429260D01*
Y442260D01*
X265720D02*
X333720D01*
X250720Y429260D02*
X265720D01*
X333720D02*
X348720D01*
X238760Y384810D02*
Y410210D01*
Y384810D02*
X276860D01*
Y410210D01*
X238760D02*
X276860D01*
X240030Y457200D02*
Y482600D01*
Y457200D02*
X278130D01*
Y482600D01*
X240030D02*
X278130D01*
X988570Y258010D02*
Y283010D01*
X1020570Y258010D02*
Y283010D01*
X988570D02*
X1020570D01*
X988570Y258010D02*
X1020570D01*
X476760Y175460D02*
Y200460D01*
X508760Y175460D02*
Y200460D01*
X476760D02*
X508760D01*
X476760Y175460D02*
X508760D01*
X129480Y316330D02*
X172780D01*
Y290730D02*
Y316330D01*
X129480Y290730D02*
X172780D01*
X129480D02*
Y316330D01*
X1336170Y1190460D02*
X1511170D01*
Y1090460D02*
Y1190460D01*
X1336170Y1090460D02*
Y1190460D01*
Y1090460D02*
X1511170D01*
X1218301Y774966D02*
X1219798Y766480D01*
X1264322D01*
X1265818Y774966D01*
X1609470Y578360D02*
Y610360D01*
X1593470Y578360D02*
X1609470D01*
X1593470D02*
Y610360D01*
X1609470D01*
X1631950Y587720D02*
Y602720D01*
Y504720D02*
Y519720D01*
X1618950D02*
Y587720D01*
X1631950D01*
X1644950D01*
Y519720D02*
Y587720D01*
X1631950Y519720D02*
X1644950D01*
X1618950D02*
X1631950D01*
X266990Y502920D02*
Y515920D01*
Y489920D02*
Y502920D01*
Y489920D02*
X334990D01*
Y502920D01*
Y515920D01*
X266990D02*
X334990D01*
X251990Y502920D02*
X266990D01*
X334990D02*
X349990D01*
X592320Y782920D02*
X718320D01*
X592320D02*
Y857920D01*
X718320Y782920D02*
Y857920D01*
X592320D02*
X718320D01*
X448810Y784190D02*
X574810D01*
X448810D02*
Y859190D01*
X574810Y784190D02*
Y859190D01*
X448810D02*
X574810D01*
X734560Y779110D02*
X860560D01*
X734560D02*
Y854110D01*
X860560Y779110D02*
Y854110D01*
X734560D02*
X860560D01*
X1286940Y322160D02*
X1308940D01*
X1286940Y307760D02*
X1308940D01*
X1286940D02*
Y322160D01*
X1308940Y307760D02*
Y322160D01*
M02*
