G04*
G04 #@! TF.GenerationSoftware,Altium Limited,Altium Designer,26.7.1 (11)*
G04*
G04 Layer_Color=1930808*
G04 Board_Origin=9050000|12350000*
%FSLAX44Y44*%
%MOMM*%
G71*
G04*
G04 #@! TF.SameCoordinates,80AB116B-B8CD-4F78-BA40-185F0AAF2E33*
G04*
G04*
G04 #@! TF.FilePolarity,Positive*
G04*
G01*
G75*
%ADD10C,0.2000*%
%ADD12C,0.1000*%
%ADD74C,0.0500*%
D10*
X1620440Y1028700D02*
G03*
X1533440Y1028700I-43500J0D01*
G01*
D02*
G03*
X1620440Y1028700I43500J0D01*
G01*
D12*
X1188420Y1066800D02*
G03*
X1188420Y1066800I-177500J0D01*
G01*
X815040D02*
G03*
X815040Y1066800I-177500J0D01*
G01*
X913600Y479270D02*
X919600Y485270D01*
X913600Y469770D02*
Y485270D01*
Y469770D02*
X940600D01*
Y485270D01*
X913600D02*
X940600D01*
X821570Y532920D02*
X979070D01*
Y481420D02*
Y532920D01*
X821570Y481420D02*
X979070D01*
X821570D02*
Y532920D01*
Y505670D02*
X848820Y532920D01*
X1093350D02*
X1250850D01*
Y481420D02*
Y532920D01*
X1093350Y481420D02*
X1250850D01*
X1093350D02*
Y532920D01*
Y505670D02*
X1120600Y532920D01*
X1100700Y258990D02*
Y376990D01*
Y258990D02*
X1210700D01*
Y376990D01*
X1100700D02*
X1210700D01*
X1150700Y317990D02*
X1160700D01*
X1155700Y312990D02*
Y322990D01*
X443360Y288830D02*
Y406830D01*
Y288830D02*
X553360D01*
Y406830D01*
X443360D02*
X553360D01*
X493360Y347830D02*
X503360D01*
X498360Y342830D02*
Y352830D01*
X102870Y879080D02*
Y952930D01*
Y709930D02*
Y783780D01*
X84470D02*
X121270D01*
Y879080D01*
X84470D02*
X121270D01*
X84470Y783780D02*
Y879080D01*
X614420Y433640D02*
X677420D01*
Y409640D02*
Y433640D01*
X614420Y409640D02*
X677420D01*
X614420D02*
Y433640D01*
X566420Y421640D02*
X614420D01*
X677420D02*
X725420D01*
X437720Y1287780D02*
X511570D01*
X606870D02*
X680720D01*
X606870Y1269380D02*
Y1306180D01*
X511570D02*
X606870D01*
X511570Y1269380D02*
Y1306180D01*
Y1269380D02*
X606870D01*
X712040Y1287780D02*
X785890D01*
X881190D02*
X955040D01*
X881190Y1269380D02*
Y1306180D01*
X785890D02*
X881190D01*
X785890Y1269380D02*
Y1306180D01*
Y1269380D02*
X881190D01*
X1599120Y876920D02*
X1694420D01*
Y840120D02*
Y876920D01*
X1599120Y840120D02*
X1694420D01*
X1599120D02*
Y876920D01*
X1525270Y858520D02*
X1599120D01*
X1694420D02*
X1768270D01*
X1083060Y466090D02*
X1131060D01*
X1194060D02*
X1242060D01*
X1194060Y454090D02*
Y478090D01*
X1131060D02*
X1194060D01*
X1131060Y454090D02*
Y478090D01*
Y454090D02*
X1194060D01*
X835630Y456440D02*
Y477940D01*
X889130Y456440D02*
Y477940D01*
X835630Y456440D02*
X889130D01*
X835630Y477940D02*
X889130D01*
X725170Y219460D02*
Y267460D01*
Y330460D02*
Y378460D01*
X713170Y330460D02*
X737170D01*
X713170Y267460D02*
Y330460D01*
Y267460D02*
X737170D01*
Y330460D01*
X1068580Y549910D02*
X1116580D01*
X957580D02*
X1005580D01*
Y537910D02*
Y561910D01*
Y537910D02*
X1068580D01*
Y561910D01*
X1005580D02*
X1068580D01*
X1221710Y429770D02*
Y451270D01*
X1275210Y429770D02*
Y451270D01*
X1221710Y429770D02*
X1275210D01*
X1221710Y451270D02*
X1275210D01*
X440720Y422490D02*
Y443990D01*
X387220Y422490D02*
Y443990D01*
X440720D01*
X387220Y422490D02*
X440720D01*
X1598690Y899810D02*
X1693990D01*
X1598690D02*
Y936610D01*
X1693990D01*
Y899810D02*
Y936610D01*
Y918210D02*
X1767840D01*
X1524840D02*
X1598690D01*
X1034670Y307080D02*
X1050670D01*
Y338080D01*
X1034670D02*
X1050670D01*
X1034670Y307080D02*
Y338080D01*
X914150Y447040D02*
X962150D01*
X1025150D02*
X1073150D01*
X1025150Y435040D02*
Y459040D01*
X962150D02*
X1025150D01*
X962150Y435040D02*
Y459040D01*
Y435040D02*
X1025150D01*
X684150Y357130D02*
X700150D01*
X684150Y326130D02*
Y357130D01*
Y326130D02*
X700150D01*
Y357130D01*
X685830Y366610D02*
Y388110D01*
X632330Y366610D02*
Y388110D01*
X685830D01*
X632330Y366610D02*
X685830D01*
X1413770Y254890D02*
Y270890D01*
X1382770D02*
X1413770D01*
X1382770Y254890D02*
Y270890D01*
Y254890D02*
X1413770D01*
X1569340Y454920D02*
X1585340D01*
X1569340Y423920D02*
Y454920D01*
Y423920D02*
X1585340D01*
Y454920D01*
X1549020D02*
X1565020D01*
X1549020Y423920D02*
Y454920D01*
Y423920D02*
X1565020D01*
Y454920D01*
X1516380Y403610D02*
Y451610D01*
Y514610D02*
Y562610D01*
X1504380Y514610D02*
X1528380D01*
X1504380Y451610D02*
Y514610D01*
Y451610D02*
X1528380D01*
Y514610D01*
X1570610Y533140D02*
X1586610D01*
Y564140D01*
X1570610D02*
X1586610D01*
X1570610Y533140D02*
Y564140D01*
X1593470D02*
X1609470D01*
X1593470Y533140D02*
Y564140D01*
Y533140D02*
X1609470D01*
Y564140D01*
X1538230Y592710D02*
Y608710D01*
X1507230D02*
X1538230D01*
X1507230Y592710D02*
Y608710D01*
Y592710D02*
X1538230D01*
X94870Y404870D02*
X110870D01*
Y435870D01*
X94870D02*
X110870D01*
X94870Y404870D02*
Y435870D01*
X84470Y524270D02*
Y619570D01*
X121270D01*
Y524270D02*
Y619570D01*
X84470Y524270D02*
X121270D01*
X102870Y450420D02*
Y524270D01*
Y619570D02*
Y693420D01*
X1012660Y382140D02*
X1039660D01*
X1012660D02*
Y397640D01*
X1039660D01*
Y382140D02*
Y397640D01*
X1033660Y382140D02*
X1039660Y388140D01*
X914150Y417830D02*
X962150D01*
X1025150D02*
X1073150D01*
X1025150Y405830D02*
Y429830D01*
X962150D02*
X1025150D01*
X962150Y405830D02*
Y429830D01*
Y405830D02*
X1025150D01*
X688470Y443700D02*
Y470700D01*
X672970Y443700D02*
X688470D01*
X672970D02*
Y470700D01*
X688470D01*
X682470D02*
X688470Y464700D01*
X369670Y504400D02*
X396920Y531650D01*
X369670Y480150D02*
Y531650D01*
Y480150D02*
X527170D01*
Y531650D01*
X369670D02*
X527170D01*
X467830Y553850D02*
X494830D01*
Y538350D02*
Y553850D01*
X467830Y538350D02*
X494830D01*
X467830D02*
Y553850D01*
Y547850D02*
X473830Y553850D01*
X611380Y459740D02*
X659380D01*
X500380D02*
X548380D01*
Y447740D02*
Y471740D01*
Y447740D02*
X611380D01*
Y471740D01*
X548380D02*
X611380D01*
X403100Y463550D02*
X451100D01*
X292100D02*
X340100D01*
Y451550D02*
Y475550D01*
Y451550D02*
X403100D01*
Y475550D01*
X340100D02*
X403100D01*
X1586740Y652780D02*
X1634740D01*
X1475740D02*
X1523740D01*
Y640780D02*
Y664780D01*
Y640780D02*
X1586740D01*
Y664780D01*
X1523740D02*
X1586740D01*
X1463930Y740670D02*
X1479930D01*
X1463930Y709670D02*
Y740670D01*
Y709670D02*
X1479930D01*
Y740670D01*
X872770Y862880D02*
X1182770D01*
Y772880D02*
Y862880D01*
X872770Y772880D02*
X1182770D01*
X872770D02*
Y862880D01*
X576570Y505670D02*
X603820Y532920D01*
X576570Y481420D02*
Y532920D01*
Y481420D02*
X734070D01*
Y532920D01*
X576570D02*
X734070D01*
X1055560Y1269380D02*
X1150860D01*
X1055560D02*
Y1306180D01*
X1150860D01*
Y1269380D02*
Y1306180D01*
Y1287780D02*
X1224710D01*
X981710D02*
X1055560D01*
D74*
X1027150Y312420D02*
G03*
X1027150Y312420I-27500J0D01*
G01*
X513910Y232410D02*
G03*
X513910Y232410I-27500J0D01*
G01*
X1215410Y422630D02*
Y451130D01*
X1090910D02*
X1215410D01*
X1090910Y422630D02*
Y451130D01*
Y422630D02*
X1215410D01*
X474860Y432560D02*
Y451360D01*
X508120Y432560D02*
Y451360D01*
X474860Y432560D02*
X508120D01*
X474860Y451360D02*
X508120D01*
X1111130Y380490D02*
Y399290D01*
X1144390Y380490D02*
Y399290D01*
X1111130Y380490D02*
X1144390D01*
X1111130Y399290D02*
X1144390D01*
X1369100Y304760D02*
X1526500D01*
Y274360D02*
Y304760D01*
X1369100Y274360D02*
X1526500D01*
X1369100D02*
Y304760D01*
X833160Y234990D02*
Y265390D01*
Y234990D02*
X939760D01*
Y265390D01*
X833160D02*
X939760D01*
X16550Y711160D02*
X46950D01*
X16550Y655360D02*
Y711160D01*
Y655360D02*
X46950D01*
Y711160D01*
X109780Y262720D02*
X166250D01*
Y286570D01*
X280630D01*
Y173170D02*
Y286570D01*
X166250Y173170D02*
X280630D01*
X166250D02*
Y197020D01*
X109780D02*
X166250D01*
X109780D02*
Y262720D01*
X1334940Y973250D02*
X1514940D01*
X1334940Y868250D02*
Y973250D01*
X1514940Y868250D02*
Y973250D01*
X1334940Y868250D02*
X1514940D01*
X1333670Y1083740D02*
X1513670D01*
X1333670Y978740D02*
Y1083740D01*
X1513670Y978740D02*
Y1083740D01*
X1333670Y978740D02*
X1513670D01*
X135400Y905660D02*
Y1014160D01*
X105400D02*
X135400D01*
X105400D02*
Y1079160D01*
X310400D01*
Y1014160D02*
Y1079160D01*
X280400Y1014160D02*
X310400D01*
X280400Y905660D02*
Y1014160D01*
X155400Y822660D02*
X260400D01*
X135400Y905660D02*
X155400D01*
Y822660D02*
Y905660D01*
X260400Y822660D02*
Y905660D01*
X280400D01*
X236420Y787440D02*
Y817840D01*
X192840D02*
X236420D01*
X192840Y787440D02*
Y817840D01*
Y787440D02*
X236420D01*
X1572540Y511310D02*
X1607540D01*
X1572540Y472810D02*
X1607540D01*
Y511310D01*
X1572540Y472810D02*
Y511310D01*
X294620Y253010D02*
X419120D01*
Y224510D02*
Y253010D01*
X294620Y224510D02*
X419120D01*
X294620D02*
Y253010D01*
X236220Y437760D02*
X263220D01*
Y444760D01*
X336220D01*
Y437760D02*
Y444760D01*
Y437760D02*
X363220D01*
Y420760D02*
Y437760D01*
X336220Y420760D02*
X363220D01*
X336220Y413760D02*
Y420760D01*
X263220Y413760D02*
X336220D01*
X263220D02*
Y420760D01*
X236220D02*
X263220D01*
X236220D02*
Y437760D01*
X236020Y382310D02*
Y412710D01*
Y382310D02*
X279600D01*
Y412710D01*
X236020D02*
X279600D01*
X237290Y454700D02*
Y485100D01*
Y454700D02*
X280870D01*
Y485100D01*
X237290D02*
X280870D01*
X116880Y318830D02*
X185380D01*
Y288230D02*
Y318830D01*
X116880Y288230D02*
X185380D01*
X116880D02*
Y318830D01*
X1333670Y1192960D02*
X1513670D01*
X1333670Y1087960D02*
Y1192960D01*
X1513670Y1087960D02*
Y1192960D01*
X1333670Y1087960D02*
X1513670D01*
X237490Y511420D02*
X264490D01*
Y518420D01*
X337490D01*
Y511420D02*
Y518420D01*
Y511420D02*
X364490D01*
Y494420D02*
Y511420D01*
X337490Y494420D02*
X364490D01*
X337490Y487420D02*
Y494420D01*
X264490Y487420D02*
X337490D01*
X264490D02*
Y494420D01*
X237490D02*
X264490D01*
X237490D02*
Y511420D01*
X589820Y780420D02*
X720820D01*
Y860420D01*
X589820Y780420D02*
Y860420D01*
X720820D01*
X446310Y781690D02*
X577310D01*
Y861690D01*
X446310Y781690D02*
Y861690D01*
X577310D01*
X732060Y776610D02*
X863060D01*
Y856610D01*
X732060Y776610D02*
Y856610D01*
X863060D01*
M02*
