G04*
G04 #@! TF.GenerationSoftware,Altium Limited,Altium Designer,26.7.1 (11)*
G04*
G04 Layer_Color=255*
G04 Board_Origin=9050000|12350000*
%FSLAX44Y44*%
%MOMM*%
G71*
G04*
G04 #@! TF.SameCoordinates,80AB116B-B8CD-4F78-BA40-185F0AAF2E33*
G04*
G04*
G04 #@! TF.FilePolarity,Positive*
G04*
G01*
G75*
%ADD16R,0.6000X2.0000*%
G04:AMPARAMS|DCode=17|XSize=1.16mm|YSize=1.82mm|CornerRadius=0.145mm|HoleSize=0mm|Usage=FLASHONLY|Rotation=180.000|XOffset=0mm|YOffset=0mm|HoleType=Round|Shape=RoundedRectangle|*
%AMROUNDEDRECTD17*
21,1,1.1600,1.5300,0,0,180.0*
21,1,0.8700,1.8200,0,0,180.0*
1,1,0.2900,-0.4350,0.7650*
1,1,0.2900,0.4350,0.7650*
1,1,0.2900,0.4350,-0.7650*
1,1,0.2900,-0.4350,-0.7650*
%
%ADD17ROUNDEDRECTD17*%
G04:AMPARAMS|DCode=18|XSize=1.05mm|YSize=1.38mm|CornerRadius=0.1313mm|HoleSize=0mm|Usage=FLASHONLY|Rotation=180.000|XOffset=0mm|YOffset=0mm|HoleType=Round|Shape=RoundedRectangle|*
%AMROUNDEDRECTD18*
21,1,1.0500,1.1175,0,0,180.0*
21,1,0.7875,1.3800,0,0,180.0*
1,1,0.2625,-0.3938,0.5587*
1,1,0.2625,0.3938,0.5587*
1,1,0.2625,0.3938,-0.5587*
1,1,0.2625,-0.3938,-0.5587*
%
%ADD18ROUNDEDRECTD18*%
%ADD19C,2.7150*%
%ADD20C,1.4000*%
%ADD21R,1.2000X0.7500*%
%ADD22R,0.7500X1.2000*%
%ADD23C,2.1000*%
%ADD24C,1.2000*%
%ADD25C,1.2750*%
%ADD26C,1.3810*%
%ADD27R,1.7500X1.0500*%
%ADD28R,2.1000X2.1000*%
%ADD29R,2.7200X1.1600*%
%ADD30C,0.8000*%
%ADD31O,9.0000X4.5000*%
%ADD32R,1.5000X1.5000*%
%ADD33C,1.8750*%
%ADD34R,2.7000X2.7000*%
%ADD35R,2.7150X2.7150*%
G04:AMPARAMS|DCode=36|XSize=1.1mm|YSize=1.1mm|CornerRadius=0.1375mm|HoleSize=0mm|Usage=FLASHONLY|Rotation=0.000|XOffset=0mm|YOffset=0mm|HoleType=Round|Shape=RoundedRectangle|*
%AMROUNDEDRECTD36*
21,1,1.1000,0.8250,0,0,0.0*
21,1,0.8250,1.1000,0,0,0.0*
1,1,0.2750,0.4125,-0.4125*
1,1,0.2750,-0.4125,-0.4125*
1,1,0.2750,-0.4125,0.4125*
1,1,0.2750,0.4125,0.4125*
%
%ADD36ROUNDEDRECTD36*%
%ADD37C,1.5900*%
%ADD38R,1.3180X1.3180*%
%ADD41C,4.0050*%
%ADD42R,4.0050X4.0050*%
%ADD43R,1.6050X1.6050*%
%ADD44C,1.5240*%
D16*
X479310Y394330D02*
D03*
X1136650Y364490D02*
D03*
X1162050D02*
D03*
X1149350D02*
D03*
X1123950D02*
D03*
X1111250D02*
D03*
Y271490D02*
D03*
X1123950D02*
D03*
X1200150D02*
D03*
Y364490D02*
D03*
X466610Y394330D02*
D03*
X542810D02*
D03*
X504710D02*
D03*
X492010D02*
D03*
X453910D02*
D03*
Y301330D02*
D03*
X466610D02*
D03*
X542810D02*
D03*
D17*
X491000Y420370D02*
D03*
X1143780Y410210D02*
D03*
X1114280D02*
D03*
X461500Y420370D02*
D03*
D18*
X500370Y441960D02*
D03*
X1136640Y389890D02*
D03*
X1118880D02*
D03*
X482610Y441960D02*
D03*
D19*
X655320Y502920D02*
D03*
X502920Y501650D02*
D03*
X1172100Y502920D02*
D03*
X954820D02*
D03*
X900320D02*
D03*
X448420Y501650D02*
D03*
D20*
X1498670Y1140460D02*
D03*
Y1031240D02*
D03*
X1499940Y920750D02*
D03*
X1348670Y1140460D02*
D03*
Y1031240D02*
D03*
X1349940Y920750D02*
D03*
D21*
X498330Y546100D02*
D03*
X944100Y477520D02*
D03*
X910100D02*
D03*
X1043160Y389890D02*
D03*
X464330Y546100D02*
D03*
D22*
X680720Y474200D02*
D03*
D23*
X1567180Y788270D02*
D03*
D24*
X659380Y459740D02*
D03*
X1073150Y447040D02*
D03*
X355990Y502920D02*
D03*
X549310Y821690D02*
D03*
X692820Y820420D02*
D03*
X835060Y816610D02*
D03*
X354720Y429260D02*
D03*
X914150Y417830D02*
D03*
Y447040D02*
D03*
X1073150Y417830D02*
D03*
X1242060Y466090D02*
D03*
X566420Y421640D02*
D03*
X725420D02*
D03*
X1083060Y466090D02*
D03*
X725170Y378460D02*
D03*
X1116580Y549910D02*
D03*
X245990Y502920D02*
D03*
X244720Y429260D02*
D03*
X500380Y459740D02*
D03*
X292100Y463550D02*
D03*
X451100D02*
D03*
D25*
X1524840Y918210D02*
D03*
X102870Y952930D02*
D03*
X437720Y1287780D02*
D03*
X102870Y709930D02*
D03*
Y693420D02*
D03*
X680720Y1287780D02*
D03*
X712040D02*
D03*
X955040D02*
D03*
X981710D02*
D03*
D26*
X1551940Y1028700D02*
D03*
X1601940D02*
D03*
D27*
X1471930Y739670D02*
D03*
D28*
X1567180Y738270D02*
D03*
X55880Y1052430D02*
D03*
D29*
X1502410Y739920D02*
D03*
D30*
X125851Y1063244D02*
D03*
X118404Y1052994D02*
D03*
X177800Y1067160D02*
D03*
X137900D02*
D03*
X197396Y1052994D02*
D03*
X225851Y1063244D02*
D03*
X118404Y1040325D02*
D03*
X264500Y1067160D02*
D03*
X297396Y1040325D02*
D03*
X164500Y1067160D02*
D03*
X251200Y1026160D02*
D03*
X264500D02*
D03*
X125851Y1030075D02*
D03*
X225851D02*
D03*
X164500Y1026160D02*
D03*
X189949Y1063244D02*
D03*
X237900Y1026160D02*
D03*
X151200D02*
D03*
X289949Y1030075D02*
D03*
Y1063244D02*
D03*
X177800Y1026160D02*
D03*
X237900Y1067160D02*
D03*
X189949Y1030075D02*
D03*
X218404Y1052994D02*
D03*
X297396D02*
D03*
X218404Y1040325D02*
D03*
X137900Y1026160D02*
D03*
X197396Y1040325D02*
D03*
X151200Y1067160D02*
D03*
X251200D02*
D03*
X277800D02*
D03*
Y1026160D02*
D03*
D31*
X257900Y1046660D02*
D03*
X157900D02*
D03*
D32*
X890270Y817880D02*
D03*
D33*
X222250Y1131570D02*
D03*
D34*
X601980Y1026160D02*
D03*
X975360D02*
D03*
D35*
X845820Y502920D02*
D03*
X1117600D02*
D03*
X393920Y501650D02*
D03*
X600820Y502920D02*
D03*
D36*
X845380Y467190D02*
D03*
X879380D02*
D03*
X1265460Y440520D02*
D03*
X1231460D02*
D03*
X396970Y433240D02*
D03*
X430970D02*
D03*
X642080Y377360D02*
D03*
X676080D02*
D03*
D37*
X1101360Y436880D02*
D03*
X408670Y238760D02*
D03*
D38*
X246380Y469900D02*
D03*
X245110Y397510D02*
D03*
D41*
X1263310Y640080D02*
D03*
X752770D02*
D03*
D42*
X803910D02*
D03*
X293370D02*
D03*
D43*
X848360Y250190D02*
D03*
D44*
X68580Y1280160D02*
D03*
X1708150Y64770D02*
D03*
X1717040Y1275080D02*
D03*
X69850Y63500D02*
D03*
M02*
