G04*
G04 #@! TF.GenerationSoftware,Altium Limited,Altium Designer,26.7.1 (11)*
G04*
G04 Layer_Color=255*
G04 Board_Origin=9050000|12350000*
%FSLAX44Y44*%
%MOMM*%
G71*
G04*
G04 #@! TF.SameCoordinates,80AB116B-B8CD-4F78-BA40-185F0AAF2E33*
G04*
G04*
G04 #@! TF.FilePolarity,Positive*
G04*
G01*
G75*
%ADD16R,0.6000X2.0000*%
%ADD20C,1.4000*%
%ADD24C,1.2000*%
%ADD25C,1.2750*%
%ADD27R,1.7500X1.0500*%
%ADD29R,2.7200X1.1600*%
%ADD38R,1.3180X1.3180*%
%ADD41C,4.0050*%
%ADD42R,4.0050X4.0050*%
%ADD43R,1.6050X1.6050*%
%ADD44C,1.5240*%
%ADD50C,1.5000*%
%ADD52R,1.1400X1.4700*%
%ADD58C,1.6050*%
G04:AMPARAMS|DCode=62|XSize=0.65mm|YSize=1mm|CornerRadius=0.0813mm|HoleSize=0mm|Usage=FLASHONLY|Rotation=0.000|XOffset=0mm|YOffset=0mm|HoleType=Round|Shape=RoundedRectangle|*
%AMROUNDEDRECTD62*
21,1,0.6500,0.8375,0,0,0.0*
21,1,0.4875,1.0000,0,0,0.0*
1,1,0.1625,0.2438,-0.4188*
1,1,0.1625,-0.2438,-0.4188*
1,1,0.1625,-0.2438,0.4188*
1,1,0.1625,0.2438,0.4188*
%
%ADD62ROUNDEDRECTD62*%
%ADD67R,1.0500X1.7500*%
%ADD68R,1.6050X1.6050*%
G04:AMPARAMS|DCode=69|XSize=1.16mm|YSize=1.82mm|CornerRadius=0.145mm|HoleSize=0mm|Usage=FLASHONLY|Rotation=270.000|XOffset=0mm|YOffset=0mm|HoleType=Round|Shape=RoundedRectangle|*
%AMROUNDEDRECTD69*
21,1,1.1600,1.5300,0,0,270.0*
21,1,0.8700,1.8200,0,0,270.0*
1,1,0.2900,-0.7650,-0.4350*
1,1,0.2900,-0.7650,0.4350*
1,1,0.2900,0.7650,0.4350*
1,1,0.2900,0.7650,-0.4350*
%
%ADD69ROUNDEDRECTD69*%
%ADD70C,1.5494*%
D16*
X1174750Y271490D02*
D03*
X1162050D02*
D03*
X1149350D02*
D03*
X504710Y301330D02*
D03*
X492010D02*
D03*
X517410D02*
D03*
D20*
X1242060Y779780D02*
D03*
D24*
X1516380Y403610D02*
D03*
Y562610D02*
D03*
X1631950Y498720D02*
D03*
Y608720D02*
D03*
X1634740Y652780D02*
D03*
X1475740D02*
D03*
D25*
X1768270Y858520D02*
D03*
X1525270D02*
D03*
X1767840Y918210D02*
D03*
X102870Y450420D02*
D03*
D27*
X1042670Y337080D02*
D03*
X692150Y327130D02*
D03*
X1578610Y563140D02*
D03*
X1601470D02*
D03*
X1577340Y453920D02*
D03*
Y424920D02*
D03*
X1557020D02*
D03*
X1578610Y534140D02*
D03*
X1471930Y710670D02*
D03*
X102870Y434870D02*
D03*
D29*
X1502410Y710420D02*
D03*
X1551940Y562120D02*
D03*
Y532620D02*
D03*
D38*
X227330Y802640D02*
D03*
D41*
X1263310Y640080D02*
D03*
X752770D02*
D03*
D42*
X803910D02*
D03*
X293370D02*
D03*
D43*
X1384300Y289560D02*
D03*
X848360Y250190D02*
D03*
D44*
X68580Y1280160D02*
D03*
X1708150Y64770D02*
D03*
X1717040Y1275080D02*
D03*
X69850Y63500D02*
D03*
D50*
X227000Y832660D02*
D03*
D52*
X1306840Y314960D02*
D03*
D58*
X924560Y250190D02*
D03*
X899160D02*
D03*
X1409700Y289560D02*
D03*
X1435100D02*
D03*
X1460500D02*
D03*
X1485900D02*
D03*
X873760Y250190D02*
D03*
X31750Y670560D02*
D03*
D62*
X1590040Y480060D02*
D03*
X1579840Y504060D02*
D03*
D67*
X1383770Y262890D02*
D03*
X1412770D02*
D03*
X1537230Y600710D02*
D03*
X1508230D02*
D03*
D68*
X31750Y695960D02*
D03*
D69*
X1601470Y579610D02*
D03*
Y609110D02*
D03*
D70*
X1701800Y497840D02*
D03*
Y614680D02*
D03*
M02*
