G04*
G04 #@! TF.GenerationSoftware,Altium Limited,Altium Designer,26.7.1 (11)*
G04*
G04 Layer_Color=128*
G04 Board_Origin=9050000|12350000*
%FSLAX44Y44*%
%MOMM*%
G71*
G04*
G04 #@! TF.SameCoordinates,80AB116B-B8CD-4F78-BA40-185F0AAF2E33*
G04*
G04*
G04 #@! TF.FilePolarity,Positive*
G04*
G01*
G75*
%ADD14C,0.1270*%
D14*
X1249960Y640080D02*
X1276660D01*
X1263310Y626730D02*
Y653430D01*
X790560Y640080D02*
X817260D01*
X803910Y626730D02*
Y653430D01*
X843010Y250190D02*
X853710D01*
X848360Y244840D02*
Y255540D01*
X43580Y1280160D02*
X93580D01*
X68580Y1255160D02*
Y1305160D01*
X1683150Y64770D02*
X1733150D01*
X1708150Y39770D02*
Y89770D01*
X1692040Y1275080D02*
X1742040D01*
X1717040Y1250080D02*
Y1300080D01*
X44850Y63500D02*
X94850D01*
X69850Y38500D02*
Y88500D01*
X280020Y640080D02*
X306720D01*
X293370Y626730D02*
Y653430D01*
X739420Y640080D02*
X766120D01*
X752770Y626730D02*
Y653430D01*
X1387094Y308610D02*
X1394206D01*
X1390650Y305054D02*
Y312166D01*
X1374394Y351790D02*
X1381506D01*
X1377950Y348234D02*
Y355346D01*
X1004824Y361950D02*
X1011936D01*
X1008380Y358394D02*
Y365506D01*
X908304Y361950D02*
X915416D01*
X911860Y358394D02*
Y365506D01*
X1597914Y380057D02*
X1605026D01*
X1601470Y376501D02*
Y383613D01*
X1575054Y380057D02*
X1582166D01*
X1578610Y376501D02*
Y383613D01*
M02*
