G04*
G04 #@! TF.GenerationSoftware,Altium Limited,Altium Designer,26.7.1 (11)*
G04*
G04 Layer_Physical_Order=3*
G04 Layer_Color=16440176*
G04 Board_Origin=9050000|12350000*
%FSLAX44Y44*%
%MOMM*%
G71*
G04*
G04 #@! TF.SameCoordinates,F28508D9-8179-445D-B1F4-7EC8836EAFFB*
G04*
G04*
G04 #@! TF.FilePolarity,Positive*
G04*
G01*
G75*
%ADD21R,0.6000X2.0000*%
%ADD28R,2.1000X2.1000*%
%ADD35R,1.7500X1.0500*%
%ADD37R,1.5000X1.5000*%
%ADD41C,4.0050*%
%ADD42R,4.0050X4.0050*%
%ADD43C,1.5240*%
%ADD44C,1.2700*%
%ADD47R,2.1200X1.5000*%
G04:AMPARAMS|DCode=54|XSize=3.79mm|YSize=0.99mm|CornerRadius=0.1238mm|HoleSize=0mm|Usage=FLASHONLY|Rotation=0.000|XOffset=0mm|YOffset=0mm|HoleType=Round|Shape=RoundedRectangle|*
%AMROUNDEDRECTD54*
21,1,3.7900,0.7425,0,0,0.0*
21,1,3.5425,0.9900,0,0,0.0*
1,1,0.2475,1.7713,-0.3713*
1,1,0.2475,-1.7713,-0.3713*
1,1,0.2475,-1.7713,0.3713*
1,1,0.2475,1.7713,0.3713*
%
%ADD54ROUNDEDRECTD54*%
%ADD56R,1.1600X2.7200*%
%ADD57R,1.4000X1.4000*%
%ADD58R,1.5900X1.5900*%
G04:AMPARAMS|DCode=59|XSize=0.65mm|YSize=1mm|CornerRadius=0.0813mm|HoleSize=0mm|Usage=FLASHONLY|Rotation=0.000|XOffset=0mm|YOffset=0mm|HoleType=Round|Shape=RoundedRectangle|*
%AMROUNDEDRECTD59*
21,1,0.6500,0.8375,0,0,0.0*
21,1,0.4875,1.0000,0,0,0.0*
1,1,0.1625,0.2438,-0.4188*
1,1,0.1625,-0.2438,-0.4188*
1,1,0.1625,-0.2438,0.4188*
1,1,0.1625,0.2438,0.4188*
%
%ADD59ROUNDEDRECTD59*%
%ADD60C,1.6050*%
%ADD61R,1.1000X1.1000*%
%ADD62R,1.5900X1.5900*%
%ADD63C,0.3810*%
%ADD64C,0.6096*%
%ADD65C,0.7620*%
%ADD66C,1.2700*%
%ADD67C,0.5080*%
G36*
X449951Y157823D02*
X454342Y156004D01*
X458294Y153363D01*
X461656Y150002D01*
X464296Y146050D01*
X466115Y141658D01*
X467039Y137011D01*
X467042Y134720D01*
Y134620D01*
X467042Y134620D01*
X467043Y134620D01*
X467042Y97790D01*
X467043Y96289D01*
X466457Y93345D01*
X465308Y90571D01*
X463640Y88075D01*
X461517Y85952D01*
X459021Y84284D01*
X456248Y83136D01*
X453303Y82550D01*
X451802Y82550D01*
X376964D01*
X373406Y83258D01*
X370055Y84646D01*
X367039Y86661D01*
X364474Y89226D01*
X362458Y92242D01*
X361070Y95594D01*
X360363Y99151D01*
Y100965D01*
X360363Y100965D01*
Y141605D01*
Y143294D01*
X360957Y146280D01*
X362107Y146961D01*
X363576Y147254D01*
X391170Y119660D01*
X393027Y118235D01*
X395189Y117339D01*
X397510Y117033D01*
X399831Y117339D01*
X401993Y118235D01*
X403850Y119660D01*
X405275Y121517D01*
X406171Y123679D01*
X406477Y126000D01*
X406171Y128321D01*
X405275Y130483D01*
X403850Y132340D01*
X379981Y156210D01*
X381033Y158750D01*
X412484Y158750D01*
X435486Y135748D01*
Y124460D01*
X435978Y121982D01*
X437382Y119882D01*
X439482Y118478D01*
X441960Y117986D01*
X444438Y118478D01*
X446538Y119882D01*
X447942Y121982D01*
X448434Y124460D01*
Y138430D01*
X447942Y140908D01*
X446538Y143008D01*
X433143Y156403D01*
X434115Y158750D01*
X442912D01*
X445289Y158750D01*
X449951Y157823D01*
D02*
G37*
G36*
X498201Y312246D02*
X503830Y310745D01*
X509214Y308522D01*
X514262Y305614D01*
X518887Y302071D01*
X523009Y297955D01*
X526558Y293335D01*
X529473Y288291D01*
X531705Y282910D01*
X533214Y277283D01*
X533975Y271508D01*
X533975Y268595D01*
X533975Y268595D01*
X533975Y268595D01*
X533975Y210228D01*
X533984Y207394D01*
X533260Y201773D01*
X531807Y196295D01*
X530722Y193657D01*
X478010D01*
X475830Y193224D01*
X473981Y191989D01*
X473491Y191499D01*
X472256Y189650D01*
X471823Y187470D01*
Y166945D01*
X468761Y166945D01*
X462817Y167728D01*
X457026Y169279D01*
X451488Y171573D01*
X446296Y174571D01*
X441540Y178220D01*
X437300Y182460D01*
X433651Y187216D01*
X430653Y192408D01*
X428359Y197946D01*
X426808Y203737D01*
X426025Y209681D01*
X426025Y212679D01*
Y277449D01*
Y279778D01*
X426633Y284398D01*
X427839Y288899D01*
X429622Y293204D01*
X431952Y297239D01*
X434789Y300936D01*
X438084Y304231D01*
X441781Y307068D01*
X445816Y309398D01*
X450121Y311181D01*
X454622Y312387D01*
X459242Y312995D01*
X461572Y312995D01*
X461572Y312995D01*
X489511Y312995D01*
X492424Y312999D01*
X498201Y312246D01*
D02*
G37*
G36*
X521476Y179722D02*
X519383Y177623D01*
X514891Y174167D01*
X509986Y171329D01*
X504751Y169156D01*
X499277Y167686D01*
X493659Y166945D01*
X490825Y166945D01*
X483218D01*
Y182262D01*
X520422D01*
X521476Y179722D01*
D02*
G37*
G36*
X879899Y362244D02*
X884521Y360329D01*
X888681Y357549D01*
X891777Y354454D01*
X891416Y352993D01*
X890566Y351914D01*
X692591D01*
X692495Y352094D01*
X691913Y354454D01*
X695008Y357549D01*
X699169Y360329D01*
X703791Y362244D01*
X708698Y363220D01*
X874992D01*
X879899Y362244D01*
D02*
G37*
G36*
X896400Y338492D02*
X897890Y336881D01*
Y242570D01*
Y240068D01*
X896914Y235161D01*
X894999Y230539D01*
X892219Y226378D01*
X888681Y222840D01*
X884521Y220061D01*
X879899Y218146D01*
X874992Y217170D01*
X708698D01*
X703791Y218146D01*
X699169Y220061D01*
X695008Y222840D01*
X691470Y226378D01*
X688691Y230539D01*
X686776Y235161D01*
X685800Y240068D01*
Y242570D01*
Y337820D01*
Y338966D01*
X895350D01*
X896400Y338492D01*
D02*
G37*
G36*
X1118870Y323850D02*
X1121372Y323850D01*
X1126279Y322874D01*
X1130901Y320959D01*
X1135061Y318179D01*
X1138599Y314641D01*
X1141379Y310481D01*
X1143294Y305859D01*
X1144270Y300952D01*
X1144270Y298450D01*
X1144270Y298450D01*
X1144270Y298450D01*
X1144270Y267970D01*
X1144270Y265718D01*
X1143391Y261302D01*
X1141668Y257142D01*
X1139166Y253398D01*
X1135982Y250213D01*
X1132238Y247712D01*
X1128078Y245989D01*
X1123761Y245130D01*
X1121410Y245110D01*
X1121410Y245110D01*
Y245110D01*
X995518Y245110D01*
Y270510D01*
X995084Y272690D01*
X993849Y274539D01*
X992000Y275774D01*
X989820Y276208D01*
X987640Y275774D01*
X985791Y274539D01*
X984556Y272690D01*
X984122Y270510D01*
Y247863D01*
X981582Y246328D01*
X979638Y247134D01*
X976726Y249079D01*
X974249Y251556D01*
X972303Y254468D01*
X970963Y257704D01*
X970280Y261139D01*
X970280Y262890D01*
Y307340D01*
X970280Y308966D01*
X970914Y312156D01*
X972159Y315160D01*
X973966Y317864D01*
X976265Y320164D01*
X978970Y321971D01*
X981413Y322983D01*
X983255Y322179D01*
X983952Y321607D01*
Y312420D01*
X984386Y310240D01*
X985621Y308391D01*
X987470Y307156D01*
X989650Y306723D01*
X991830Y307156D01*
X993679Y308391D01*
X994914Y310240D01*
X995348Y312420D01*
Y323850D01*
X1118870Y323850D01*
D02*
G37*
G36*
X1281217Y449883D02*
X1283003Y448097D01*
X1283970Y445763D01*
Y444500D01*
Y344170D01*
Y342794D01*
X1283433Y340095D01*
X1282380Y337553D01*
X1280851Y335265D01*
X1278905Y333319D01*
X1276617Y331790D01*
X1274075Y330737D01*
X1271376Y330200D01*
X1167168D01*
X1162261Y331176D01*
X1157639Y333091D01*
X1153478Y335871D01*
X1149940Y339408D01*
X1147161Y343569D01*
X1145246Y348191D01*
X1144270Y353098D01*
Y355600D01*
Y356448D01*
X1173940D01*
X1176418Y356940D01*
X1178518Y358344D01*
X1179328Y359154D01*
X1180732Y361254D01*
X1181224Y363732D01*
Y364490D01*
X1180732Y366968D01*
X1179328Y369068D01*
X1177228Y370472D01*
X1174750Y370964D01*
X1172272Y370472D01*
X1170663Y369396D01*
X1144270D01*
Y425450D01*
Y427952D01*
X1145246Y432859D01*
X1147161Y437481D01*
X1149940Y441642D01*
X1153478Y445179D01*
X1157639Y447959D01*
X1162261Y449874D01*
X1167168Y450850D01*
X1278883D01*
X1281217Y449883D01*
D02*
G37*
D21*
X1136650Y271490D02*
D03*
X1174750Y364490D02*
D03*
X517410Y394330D02*
D03*
X479310Y301330D02*
D03*
D28*
X58420Y242170D02*
D03*
D35*
X1557020Y453920D02*
D03*
X1601470Y534140D02*
D03*
D37*
X188800Y832660D02*
D03*
D41*
X1289050Y640080D02*
D03*
D42*
X330200D02*
D03*
D43*
X68580Y1280160D02*
D03*
X1823720Y66040D02*
D03*
X1844040Y1290320D02*
D03*
X69850Y63500D02*
D03*
D44*
X1578610Y380057D02*
D03*
X911860Y361950D02*
D03*
X1008380D02*
D03*
X1601470Y380057D02*
D03*
D47*
X386910Y96520D02*
D03*
D54*
X441960Y124460D02*
D03*
Y73660D02*
D03*
D56*
X989820Y270510D02*
D03*
X478010Y187960D02*
D03*
D57*
X1216060Y779780D02*
D03*
D58*
X1204960Y436880D02*
D03*
D59*
X1600240Y504060D02*
D03*
D60*
X1511300Y289560D02*
D03*
D61*
X989650Y312420D02*
D03*
X476410Y232410D02*
D03*
D62*
X397510Y126000D02*
D03*
D63*
X1578610Y380057D02*
X1601470D01*
D64*
X27940Y257810D02*
X188800Y418670D01*
Y832660D01*
X27940Y203200D02*
Y257810D01*
X989820Y239250D02*
Y270510D01*
X646430Y160020D02*
X910590D01*
X989820Y239250D01*
X27940Y203200D02*
X157480Y73660D01*
X441960D01*
X989650Y553370D02*
X1216060Y779780D01*
X989650Y312420D02*
Y553370D01*
X618490Y187960D02*
X646430Y160020D01*
X478010Y187960D02*
X618490D01*
X477520Y187470D02*
X478010Y187960D01*
X477520Y86360D02*
Y187470D01*
X463550Y72390D02*
X477520Y86360D01*
X441960Y72390D02*
X463550D01*
D65*
X414020Y319386D02*
X488964Y394330D01*
X584840D01*
X1174750Y363732D02*
Y364490D01*
X1173940Y362922D02*
X1174750Y363732D01*
X1009352Y362922D02*
X1173940D01*
X1008380Y361950D02*
X1009352Y362922D01*
X895350Y345440D02*
X911860Y361950D01*
X584840Y394330D02*
X633730Y345440D01*
X895350D01*
X414020Y166370D02*
X441960Y138430D01*
X414020Y166370D02*
Y319386D01*
X441960Y124460D02*
Y138430D01*
D66*
X58420Y242170D02*
X281340D01*
X397510Y126000D01*
D67*
X1554480Y313690D02*
Y451380D01*
X1530350Y289560D02*
X1554480Y313690D01*
Y451380D02*
X1557020Y453920D01*
X1511300Y289560D02*
X1530350D01*
X1557020Y453920D02*
X1560520D01*
X1599530Y503350D02*
X1600240Y504060D01*
X1599530Y492930D02*
Y503350D01*
X1560520Y453920D02*
X1599530Y492930D01*
X1600240Y504060D02*
Y532910D01*
X1601470Y534140D01*
M02*
