G04*
G04 #@! TF.GenerationSoftware,Altium Limited,Altium Designer,26.7.1 (11)*
G04*
G04 Layer_Color=128*
G04 Board_Origin=9050000|12350000*
%FSLAX44Y44*%
%MOMM*%
G71*
G04*
G04 #@! TF.SameCoordinates,F28508D9-8179-445D-B1F4-7EC8836EAFFB*
G04*
G04*
G04 #@! TF.FilePolarity,Positive*
G04*
G01*
G75*
%ADD21R,0.6000X2.0000*%
%ADD26C,1.2000*%
%ADD29C,1.4000*%
%ADD33R,1.3180X1.3180*%
%ADD34C,1.2750*%
%ADD35R,1.7500X1.0500*%
%ADD36R,2.7200X1.1600*%
%ADD49R,1.1400X1.4700*%
%ADD50C,1.5000*%
G04:AMPARAMS|DCode=59|XSize=0.65mm|YSize=1mm|CornerRadius=0.0813mm|HoleSize=0mm|Usage=FLASHONLY|Rotation=0.000|XOffset=0mm|YOffset=0mm|HoleType=Round|Shape=RoundedRectangle|*
%AMROUNDEDRECTD59*
21,1,0.6500,0.8375,0,0,0.0*
21,1,0.4875,1.0000,0,0,0.0*
1,1,0.1625,0.2438,-0.4188*
1,1,0.1625,-0.2438,-0.4188*
1,1,0.1625,-0.2438,0.4188*
1,1,0.1625,0.2438,0.4188*
%
%ADD59ROUNDEDRECTD59*%
%ADD60C,1.6050*%
%ADD68C,1.5494*%
%ADD69R,1.6050X1.6050*%
%ADD70R,1.6050X1.6050*%
G04:AMPARAMS|DCode=71|XSize=1.16mm|YSize=1.82mm|CornerRadius=0.145mm|HoleSize=0mm|Usage=FLASHONLY|Rotation=270.000|XOffset=0mm|YOffset=0mm|HoleType=Round|Shape=RoundedRectangle|*
%AMROUNDEDRECTD71*
21,1,1.1600,1.5300,0,0,270.0*
21,1,0.8700,1.8200,0,0,270.0*
1,1,0.2900,-0.7650,-0.4350*
1,1,0.2900,-0.7650,0.4350*
1,1,0.2900,0.7650,0.4350*
1,1,0.2900,0.7650,-0.4350*
%
%ADD71ROUNDEDRECTD71*%
%ADD72R,1.0500X1.7500*%
D21*
X1174750Y271490D02*
D03*
X1162050D02*
D03*
X1149350D02*
D03*
X492010Y301330D02*
D03*
X504710D02*
D03*
X517410D02*
D03*
D26*
X1631950Y608720D02*
D03*
Y498720D02*
D03*
X1516380Y562610D02*
D03*
Y403610D02*
D03*
X1475740Y652780D02*
D03*
X1634740D02*
D03*
D29*
X1242060Y779780D02*
D03*
D33*
X227330Y802640D02*
D03*
D34*
X1767840Y918210D02*
D03*
X1525270Y858520D02*
D03*
X1768270D02*
D03*
X102870Y450420D02*
D03*
D35*
X1471930Y710670D02*
D03*
X1557020Y424920D02*
D03*
X1601470Y563140D02*
D03*
X1578610Y534140D02*
D03*
Y563140D02*
D03*
X1042670Y337080D02*
D03*
X102870Y434870D02*
D03*
X1577340Y424920D02*
D03*
Y453920D02*
D03*
X692150Y327130D02*
D03*
D36*
X1502410Y710420D02*
D03*
X1551940Y532620D02*
D03*
Y562120D02*
D03*
D49*
X1306840Y314960D02*
D03*
D50*
X227000Y832660D02*
D03*
D59*
X1579840Y504060D02*
D03*
X1590040Y480060D02*
D03*
D60*
X1409700Y289560D02*
D03*
X1435100D02*
D03*
X1460500D02*
D03*
X1485900D02*
D03*
X922020Y280670D02*
D03*
X896620D02*
D03*
X871220D02*
D03*
X31750Y670560D02*
D03*
D68*
X1701800Y614680D02*
D03*
Y497840D02*
D03*
D69*
X1384300Y289560D02*
D03*
X845820Y280670D02*
D03*
D70*
X31750Y695960D02*
D03*
D71*
X1601470Y609110D02*
D03*
Y579610D02*
D03*
D72*
X1383770Y262890D02*
D03*
X1412770D02*
D03*
X1508230Y600710D02*
D03*
X1537230D02*
D03*
M02*
