G04*
G04 #@! TF.GenerationSoftware,Altium Limited,Altium Designer,26.7.1 (11)*
G04*
G04 Layer_Color=8421504*
G04 Board_Origin=9050000|12350000*
%FSLAX44Y44*%
%MOMM*%
G71*
G04*
G04 #@! TF.SameCoordinates,F28508D9-8179-445D-B1F4-7EC8836EAFFB*
G04*
G04*
G04 #@! TF.FilePolarity,Positive*
G04*
G01*
G75*
G04:AMPARAMS|DCode=16|XSize=1.1mm|YSize=1.1mm|CornerRadius=0.1375mm|HoleSize=0mm|Usage=FLASHONLY|Rotation=0.000|XOffset=0mm|YOffset=0mm|HoleType=Round|Shape=RoundedRectangle|*
%AMROUNDEDRECTD16*
21,1,1.1000,0.8250,0,0,0.0*
21,1,0.8250,1.1000,0,0,0.0*
1,1,0.2750,0.4125,-0.4125*
1,1,0.2750,-0.4125,-0.4125*
1,1,0.2750,-0.4125,0.4125*
1,1,0.2750,0.4125,0.4125*
%
%ADD16ROUNDEDRECTD16*%
%ADD17C,1.5900*%
%ADD18C,1.8750*%
%ADD19C,2.7150*%
%ADD20R,2.7150X2.7150*%
%ADD21R,0.6000X2.0000*%
%ADD22R,1.2000X0.7500*%
%ADD23O,9.0000X4.5000*%
%ADD24C,0.8000*%
%ADD25R,2.7000X2.7000*%
%ADD26C,1.2000*%
%ADD27C,2.1000*%
%ADD28R,2.1000X2.1000*%
%ADD29C,1.4000*%
%ADD30C,1.3810*%
G04:AMPARAMS|DCode=31|XSize=1.16mm|YSize=1.82mm|CornerRadius=0.145mm|HoleSize=0mm|Usage=FLASHONLY|Rotation=180.000|XOffset=0mm|YOffset=0mm|HoleType=Round|Shape=RoundedRectangle|*
%AMROUNDEDRECTD31*
21,1,1.1600,1.5300,0,0,180.0*
21,1,0.8700,1.8200,0,0,180.0*
1,1,0.2900,-0.4350,0.7650*
1,1,0.2900,0.4350,0.7650*
1,1,0.2900,0.4350,-0.7650*
1,1,0.2900,-0.4350,-0.7650*
%
%ADD31ROUNDEDRECTD31*%
G04:AMPARAMS|DCode=32|XSize=1.05mm|YSize=1.38mm|CornerRadius=0.1313mm|HoleSize=0mm|Usage=FLASHONLY|Rotation=180.000|XOffset=0mm|YOffset=0mm|HoleType=Round|Shape=RoundedRectangle|*
%AMROUNDEDRECTD32*
21,1,1.0500,1.1175,0,0,180.0*
21,1,0.7875,1.3800,0,0,180.0*
1,1,0.2625,-0.3938,0.5587*
1,1,0.2625,0.3938,0.5587*
1,1,0.2625,0.3938,-0.5587*
1,1,0.2625,-0.3938,-0.5587*
%
%ADD32ROUNDEDRECTD32*%
%ADD33R,1.3180X1.3180*%
%ADD34C,1.2750*%
%ADD35R,1.7500X1.0500*%
%ADD36R,2.7200X1.1600*%
%ADD37R,1.5000X1.5000*%
%ADD38R,0.7500X1.2000*%
G36*
X583410Y83760D02*
X568910D01*
Y96360D01*
X583410D01*
Y83760D01*
D02*
G37*
G36*
X558010D02*
X543510D01*
Y96360D01*
X558010D01*
Y83760D01*
D02*
G37*
G36*
X532610D02*
X518110D01*
Y96360D01*
X532610D01*
Y83760D01*
D02*
G37*
G36*
X583410Y65760D02*
X568910D01*
Y78360D01*
X583410D01*
Y65760D01*
D02*
G37*
G36*
X558010D02*
X543510D01*
Y78360D01*
X558010D01*
Y65760D01*
D02*
G37*
G36*
X532610D02*
X518110D01*
Y78360D01*
X532610D01*
Y65760D01*
D02*
G37*
G36*
X583410Y47760D02*
X568910D01*
Y60360D01*
X583410D01*
Y47760D01*
D02*
G37*
G36*
X558010D02*
X543510D01*
Y60360D01*
X558010D01*
Y47760D01*
D02*
G37*
G36*
X532610D02*
X518110D01*
Y60360D01*
X532610D01*
Y47760D01*
D02*
G37*
G36*
X583410Y137760D02*
X568910D01*
Y150360D01*
X583410D01*
Y137760D01*
D02*
G37*
G36*
X558010D02*
X543510D01*
Y150360D01*
X558010D01*
Y137760D01*
D02*
G37*
G36*
X532610D02*
X518110D01*
Y150360D01*
X532610D01*
Y137760D01*
D02*
G37*
G36*
X583410Y119760D02*
X568910D01*
Y132360D01*
X583410D01*
Y119760D01*
D02*
G37*
G36*
X558010D02*
X543510D01*
Y132360D01*
X558010D01*
Y119760D01*
D02*
G37*
G36*
X532610D02*
X518110D01*
Y132360D01*
X532610D01*
Y119760D01*
D02*
G37*
G36*
X583410Y101760D02*
X568910D01*
Y114360D01*
X583410D01*
Y101760D01*
D02*
G37*
G36*
X558010D02*
X543510D01*
Y114360D01*
X558010D01*
Y101760D01*
D02*
G37*
G36*
X532610D02*
X518110D01*
Y114360D01*
X532610D01*
Y101760D01*
D02*
G37*
D16*
X1231460Y440520D02*
D03*
X1265460D02*
D03*
X430970Y433240D02*
D03*
X396970D02*
D03*
X845380Y467190D02*
D03*
X879380D02*
D03*
X676080Y377360D02*
D03*
X642080D02*
D03*
D17*
X1101360Y436880D02*
D03*
X397510Y229600D02*
D03*
D18*
X222250Y1131570D02*
D03*
D19*
X954820Y502920D02*
D03*
X900320D02*
D03*
X1172100D02*
D03*
X502920Y501650D02*
D03*
X448420D02*
D03*
X655320Y502920D02*
D03*
D20*
X845820D02*
D03*
X1117600D02*
D03*
X393920Y501650D02*
D03*
X600820Y502920D02*
D03*
D21*
X1162050Y364490D02*
D03*
X1149350D02*
D03*
X1136650D02*
D03*
X1123950D02*
D03*
X1111250D02*
D03*
Y271490D02*
D03*
X1123950D02*
D03*
X1200150D02*
D03*
Y364490D02*
D03*
X542810Y394330D02*
D03*
X504710D02*
D03*
X492010D02*
D03*
X479310D02*
D03*
X466610D02*
D03*
X453910D02*
D03*
Y301330D02*
D03*
X466610D02*
D03*
X542810D02*
D03*
D22*
X944100Y477520D02*
D03*
X910100D02*
D03*
X1043160Y389890D02*
D03*
X498330Y546100D02*
D03*
X464330D02*
D03*
D23*
X257900Y1046660D02*
D03*
X157900D02*
D03*
D24*
X289949Y1030075D02*
D03*
X297396Y1040325D02*
D03*
Y1052994D02*
D03*
X289949Y1063244D02*
D03*
X277800Y1067160D02*
D03*
X264500D02*
D03*
X251200D02*
D03*
X237900D02*
D03*
X225851Y1063244D02*
D03*
X218404Y1040325D02*
D03*
Y1052994D02*
D03*
X225851Y1030075D02*
D03*
X277800Y1026160D02*
D03*
X264500D02*
D03*
X251200D02*
D03*
X237900D02*
D03*
X189949Y1030075D02*
D03*
X197396Y1040325D02*
D03*
Y1052994D02*
D03*
X189949Y1063244D02*
D03*
X177800Y1067160D02*
D03*
X164500D02*
D03*
X151200D02*
D03*
X137900D02*
D03*
X125851Y1063244D02*
D03*
X118404Y1040325D02*
D03*
Y1052994D02*
D03*
X125851Y1030075D02*
D03*
X177800Y1026160D02*
D03*
X164500D02*
D03*
X151200D02*
D03*
X137900D02*
D03*
D25*
X975360D02*
D03*
X601980D02*
D03*
D26*
X835060Y816610D02*
D03*
X1242060Y466090D02*
D03*
X1083060D02*
D03*
X500380Y459740D02*
D03*
X659380D02*
D03*
X1136900Y549910D02*
D03*
X725170Y378460D02*
D03*
X354720Y429260D02*
D03*
X244720D02*
D03*
X549310Y821690D02*
D03*
X692820Y820420D02*
D03*
X355990Y502920D02*
D03*
X245990D02*
D03*
X451100Y463550D02*
D03*
X292100D02*
D03*
X914150Y417830D02*
D03*
X1073150D02*
D03*
Y447040D02*
D03*
X914150D02*
D03*
X566420Y421640D02*
D03*
X725420D02*
D03*
D27*
X1567180Y788270D02*
D03*
D28*
Y738270D02*
D03*
X55880Y1052430D02*
D03*
D29*
X1499940Y920750D02*
D03*
X1349940D02*
D03*
X1498670Y1140460D02*
D03*
X1348670D02*
D03*
X1498670Y1031240D02*
D03*
X1348670D02*
D03*
D30*
X1551940Y1028700D02*
D03*
X1601940D02*
D03*
D31*
X1114280Y410210D02*
D03*
X1143780D02*
D03*
X461500Y420370D02*
D03*
X491000D02*
D03*
D32*
X1118880Y389890D02*
D03*
X1136640D02*
D03*
X482610Y441960D02*
D03*
X500370D02*
D03*
D33*
X245110Y397510D02*
D03*
X246380Y469900D02*
D03*
D34*
X102870Y709930D02*
D03*
Y952930D02*
D03*
X981710Y1287780D02*
D03*
X1524840Y918210D02*
D03*
X437720Y1287780D02*
D03*
X680720D02*
D03*
X712040D02*
D03*
X955040D02*
D03*
X102870Y693420D02*
D03*
D35*
X1471930Y739670D02*
D03*
D36*
X1502410Y739920D02*
D03*
D37*
X890270Y817880D02*
D03*
D38*
X680720Y474200D02*
D03*
M02*
