ISO-10303-21;
HEADER;
/* Generated by software containing ST-Developer
 * from STEP Tools, Inc. (www.steptools.com) 
 */
/* OPTION: strings as raw bytes, not using required /X/ escapes */

FILE_DESCRIPTION(
/* description */ ('Unknown'),
/* implementation_level */ '2;1');

FILE_NAME(
/* name */ 'ATDR5',
/* time_stamp */ '2026-05-06T08:23:30+02:00',
/* author */ ('Unknown'),
/* organization */ ('Unknown'),
/* preprocessor_version */ 'ST-DEVELOPER v19.4',
/* originating_system */ 'Solid Edge',
/* authorisation */ 'Unknown');

FILE_SCHEMA (('AUTOMOTIVE_DESIGN {1 0 10303 214 3 1 1}'));
ENDSEC;

DATA;
#10=PROPERTY_DEFINITION_REPRESENTATION(#14,#12);
#11=PROPERTY_DEFINITION_REPRESENTATION(#15,#13);
#12=REPRESENTATION('',(#16),#368);
#13=REPRESENTATION('',(#17),#368);
#14=PROPERTY_DEFINITION('pmi validation property','',#373);
#15=PROPERTY_DEFINITION('pmi validation property','',#373);
#16=VALUE_REPRESENTATION_ITEM('number of annotations',COUNT_MEASURE(0.));
#17=VALUE_REPRESENTATION_ITEM('number of views',COUNT_MEASURE(0.));
#18=SHAPE_REPRESENTATION_RELATIONSHIP('','',#250,#19);
#19=ADVANCED_BREP_SHAPE_REPRESENTATION('',(#248),#368);
#20=DRAUGHTING_PRE_DEFINED_COLOUR('white');
#21=CONICAL_SURFACE('',#264,5.2,0.523598775598298);
#22=CONICAL_SURFACE('',#268,4.7,0.523598775598299);
#23=PLANE('',#257);
#24=PLANE('',#258);
#25=PLANE('',#274);
#26=TOROIDAL_SURFACE('',#255,2.57,0.65);
#27=TOROIDAL_SURFACE('',#260,4.6,0.6);
#28=TOROIDAL_SURFACE('',#272,4.6,0.6);
#29=TOROIDAL_SURFACE('',#276,3.82,0.6);
#30=ORIENTED_EDGE('',*,*,#54,.T.);
#31=ORIENTED_EDGE('',*,*,#55,.F.);
#32=ORIENTED_EDGE('',*,*,#56,.T.);
#33=ORIENTED_EDGE('',*,*,#54,.F.);
#34=ORIENTED_EDGE('',*,*,#56,.F.);
#35=ORIENTED_EDGE('',*,*,#57,.T.);
#36=ORIENTED_EDGE('',*,*,#58,.T.);
#37=ORIENTED_EDGE('',*,*,#57,.F.);
#38=ORIENTED_EDGE('',*,*,#59,.T.);
#39=ORIENTED_EDGE('',*,*,#58,.F.);
#40=ORIENTED_EDGE('',*,*,#60,.T.);
#41=ORIENTED_EDGE('',*,*,#59,.F.);
#42=ORIENTED_EDGE('',*,*,#61,.T.);
#43=ORIENTED_EDGE('',*,*,#60,.F.);
#44=ORIENTED_EDGE('',*,*,#62,.T.);
#45=ORIENTED_EDGE('',*,*,#61,.F.);
#46=ORIENTED_EDGE('',*,*,#63,.T.);
#47=ORIENTED_EDGE('',*,*,#62,.F.);
#48=ORIENTED_EDGE('',*,*,#64,.T.);
#49=ORIENTED_EDGE('',*,*,#63,.F.);
#50=ORIENTED_EDGE('',*,*,#65,.T.);
#51=ORIENTED_EDGE('',*,*,#64,.F.);
#52=ORIENTED_EDGE('',*,*,#55,.T.);
#53=ORIENTED_EDGE('',*,*,#65,.F.);
#54=EDGE_CURVE('',#66,#66,#78,.T.);
#55=EDGE_CURVE('',#67,#67,#79,.T.);
#56=EDGE_CURVE('',#68,#68,#80,.T.);
#57=EDGE_CURVE('',#69,#69,#81,.T.);
#58=EDGE_CURVE('',#70,#70,#82,.T.);
#59=EDGE_CURVE('',#71,#71,#83,.T.);
#60=EDGE_CURVE('',#72,#72,#84,.T.);
#61=EDGE_CURVE('',#73,#73,#85,.T.);
#62=EDGE_CURVE('',#74,#74,#86,.T.);
#63=EDGE_CURVE('',#75,#75,#87,.T.);
#64=EDGE_CURVE('',#76,#76,#88,.T.);
#65=EDGE_CURVE('',#77,#77,#89,.T.);
#66=VERTEX_POINT('',#332);
#67=VERTEX_POINT('',#334);
#68=VERTEX_POINT('',#337);
#69=VERTEX_POINT('',#341);
#70=VERTEX_POINT('',#344);
#71=VERTEX_POINT('',#347);
#72=VERTEX_POINT('',#350);
#73=VERTEX_POINT('',#353);
#74=VERTEX_POINT('',#356);
#75=VERTEX_POINT('',#359);
#76=VERTEX_POINT('',#362);
#77=VERTEX_POINT('',#365);
#78=CIRCLE('',#253,3.22);
#79=CIRCLE('',#254,3.22);
#80=CIRCLE('',#256,2.57);
#81=CIRCLE('',#259,4.6);
#82=CIRCLE('',#261,5.2);
#83=CIRCLE('',#263,5.2);
#84=CIRCLE('',#265,4.7);
#85=CIRCLE('',#267,4.7);
#86=CIRCLE('',#269,5.2);
#87=CIRCLE('',#271,5.2);
#88=CIRCLE('',#273,4.6);
#89=CIRCLE('',#275,3.82);
#90=EDGE_LOOP('',(#30));
#91=EDGE_LOOP('',(#31));
#92=EDGE_LOOP('',(#32));
#93=EDGE_LOOP('',(#33));
#94=EDGE_LOOP('',(#34));
#95=EDGE_LOOP('',(#35));
#96=EDGE_LOOP('',(#36));
#97=EDGE_LOOP('',(#37));
#98=EDGE_LOOP('',(#38));
#99=EDGE_LOOP('',(#39));
#100=EDGE_LOOP('',(#40));
#101=EDGE_LOOP('',(#41));
#102=EDGE_LOOP('',(#42));
#103=EDGE_LOOP('',(#43));
#104=EDGE_LOOP('',(#44));
#105=EDGE_LOOP('',(#45));
#106=EDGE_LOOP('',(#46));
#107=EDGE_LOOP('',(#47));
#108=EDGE_LOOP('',(#48));
#109=EDGE_LOOP('',(#49));
#110=EDGE_LOOP('',(#50));
#111=EDGE_LOOP('',(#51));
#112=EDGE_LOOP('',(#52));
#113=EDGE_LOOP('',(#53));
#114=FACE_BOUND('',#90,.T.);
#115=FACE_BOUND('',#91,.T.);
#116=FACE_BOUND('',#92,.T.);
#117=FACE_BOUND('',#93,.T.);
#118=FACE_BOUND('',#94,.T.);
#119=FACE_BOUND('',#95,.T.);
#120=FACE_BOUND('',#96,.T.);
#121=FACE_BOUND('',#97,.T.);
#122=FACE_BOUND('',#98,.T.);
#123=FACE_BOUND('',#99,.T.);
#124=FACE_BOUND('',#100,.T.);
#125=FACE_BOUND('',#101,.T.);
#126=FACE_BOUND('',#102,.T.);
#127=FACE_BOUND('',#103,.T.);
#128=FACE_BOUND('',#104,.T.);
#129=FACE_BOUND('',#105,.T.);
#130=FACE_BOUND('',#106,.T.);
#131=FACE_BOUND('',#107,.T.);
#132=FACE_BOUND('',#108,.T.);
#133=FACE_BOUND('',#109,.T.);
#134=FACE_BOUND('',#110,.T.);
#135=FACE_BOUND('',#111,.T.);
#136=FACE_BOUND('',#112,.T.);
#137=FACE_BOUND('',#113,.T.);
#138=CYLINDRICAL_SURFACE('',#252,3.22);
#139=CYLINDRICAL_SURFACE('',#262,5.2);
#140=CYLINDRICAL_SURFACE('',#266,4.7);
#141=CYLINDRICAL_SURFACE('',#270,5.2);
#142=STYLED_ITEM('',(#155),#234);
#143=STYLED_ITEM('',(#156),#235);
#144=STYLED_ITEM('',(#157),#236);
#145=STYLED_ITEM('',(#158),#237);
#146=STYLED_ITEM('',(#159),#238);
#147=STYLED_ITEM('',(#160),#239);
#148=STYLED_ITEM('',(#161),#240);
#149=STYLED_ITEM('',(#162),#241);
#150=STYLED_ITEM('',(#163),#242);
#151=STYLED_ITEM('',(#164),#243);
#152=STYLED_ITEM('',(#165),#244);
#153=STYLED_ITEM('',(#166),#245);
#154=STYLED_ITEM('',(#167),#246);
#155=PRESENTATION_STYLE_ASSIGNMENT((#168));
#156=PRESENTATION_STYLE_ASSIGNMENT((#169));
#157=PRESENTATION_STYLE_ASSIGNMENT((#170));
#158=PRESENTATION_STYLE_ASSIGNMENT((#171));
#159=PRESENTATION_STYLE_ASSIGNMENT((#172));
#160=PRESENTATION_STYLE_ASSIGNMENT((#173));
#161=PRESENTATION_STYLE_ASSIGNMENT((#174));
#162=PRESENTATION_STYLE_ASSIGNMENT((#175));
#163=PRESENTATION_STYLE_ASSIGNMENT((#176));
#164=PRESENTATION_STYLE_ASSIGNMENT((#177));
#165=PRESENTATION_STYLE_ASSIGNMENT((#178));
#166=PRESENTATION_STYLE_ASSIGNMENT((#179));
#167=PRESENTATION_STYLE_ASSIGNMENT((#180));
#168=SURFACE_STYLE_USAGE(.BOTH.,#181);
#169=SURFACE_STYLE_USAGE(.BOTH.,#182);
#170=SURFACE_STYLE_USAGE(.BOTH.,#183);
#171=SURFACE_STYLE_USAGE(.BOTH.,#184);
#172=SURFACE_STYLE_USAGE(.BOTH.,#185);
#173=SURFACE_STYLE_USAGE(.BOTH.,#186);
#174=SURFACE_STYLE_USAGE(.BOTH.,#187);
#175=SURFACE_STYLE_USAGE(.BOTH.,#188);
#176=SURFACE_STYLE_USAGE(.BOTH.,#189);
#177=SURFACE_STYLE_USAGE(.BOTH.,#190);
#178=SURFACE_STYLE_USAGE(.BOTH.,#191);
#179=SURFACE_STYLE_USAGE(.BOTH.,#192);
#180=SURFACE_STYLE_USAGE(.BOTH.,#193);
#181=SURFACE_SIDE_STYLE('',(#194));
#182=SURFACE_SIDE_STYLE('',(#195));
#183=SURFACE_SIDE_STYLE('',(#196));
#184=SURFACE_SIDE_STYLE('',(#197));
#185=SURFACE_SIDE_STYLE('',(#198));
#186=SURFACE_SIDE_STYLE('',(#199));
#187=SURFACE_SIDE_STYLE('',(#200));
#188=SURFACE_SIDE_STYLE('',(#201));
#189=SURFACE_SIDE_STYLE('',(#202));
#190=SURFACE_SIDE_STYLE('',(#203));
#191=SURFACE_SIDE_STYLE('',(#204));
#192=SURFACE_SIDE_STYLE('',(#205));
#193=SURFACE_SIDE_STYLE('',(#206));
#194=SURFACE_STYLE_FILL_AREA(#207);
#195=SURFACE_STYLE_FILL_AREA(#208);
#196=SURFACE_STYLE_FILL_AREA(#209);
#197=SURFACE_STYLE_FILL_AREA(#210);
#198=SURFACE_STYLE_FILL_AREA(#211);
#199=SURFACE_STYLE_FILL_AREA(#212);
#200=SURFACE_STYLE_FILL_AREA(#213);
#201=SURFACE_STYLE_FILL_AREA(#214);
#202=SURFACE_STYLE_FILL_AREA(#215);
#203=SURFACE_STYLE_FILL_AREA(#216);
#204=SURFACE_STYLE_FILL_AREA(#217);
#205=SURFACE_STYLE_FILL_AREA(#218);
#206=SURFACE_STYLE_FILL_AREA(#219);
#207=FILL_AREA_STYLE('',(#220));
#208=FILL_AREA_STYLE('',(#221));
#209=FILL_AREA_STYLE('',(#222));
#210=FILL_AREA_STYLE('',(#223));
#211=FILL_AREA_STYLE('',(#224));
#212=FILL_AREA_STYLE('',(#225));
#213=FILL_AREA_STYLE('',(#226));
#214=FILL_AREA_STYLE('',(#227));
#215=FILL_AREA_STYLE('',(#228));
#216=FILL_AREA_STYLE('',(#229));
#217=FILL_AREA_STYLE('',(#230));
#218=FILL_AREA_STYLE('',(#231));
#219=FILL_AREA_STYLE('',(#232));
#220=FILL_AREA_STYLE_COLOUR('',#233);
#221=FILL_AREA_STYLE_COLOUR('',#233);
#222=FILL_AREA_STYLE_COLOUR('',#233);
#223=FILL_AREA_STYLE_COLOUR('',#233);
#224=FILL_AREA_STYLE_COLOUR('',#233);
#225=FILL_AREA_STYLE_COLOUR('',#233);
#226=FILL_AREA_STYLE_COLOUR('',#233);
#227=FILL_AREA_STYLE_COLOUR('',#20);
#228=FILL_AREA_STYLE_COLOUR('',#233);
#229=FILL_AREA_STYLE_COLOUR('',#233);
#230=FILL_AREA_STYLE_COLOUR('',#233);
#231=FILL_AREA_STYLE_COLOUR('',#233);
#232=FILL_AREA_STYLE_COLOUR('',#233);
#233=COLOUR_RGB('',0.699999988079071,0.699999988079071,0.699999988079071);
#234=ADVANCED_FACE('',(#114,#115),#138,.T.);
#235=ADVANCED_FACE('',(#116,#117),#26,.T.);
#236=ADVANCED_FACE('',(#118),#23,.T.);
#237=ADVANCED_FACE('',(#119),#24,.T.);
#238=ADVANCED_FACE('',(#120,#121),#27,.T.);
#239=ADVANCED_FACE('',(#122,#123),#139,.T.);
#240=ADVANCED_FACE('',(#124,#125),#21,.T.);
#241=ADVANCED_FACE('',(#126,#127),#140,.T.);
#242=ADVANCED_FACE('',(#128,#129),#22,.T.);
#243=ADVANCED_FACE('',(#130,#131),#141,.T.);
#244=ADVANCED_FACE('',(#132,#133),#28,.T.);
#245=ADVANCED_FACE('',(#134,#135),#25,.T.);
#246=ADVANCED_FACE('',(#136,#137),#29,.F.);
#247=CLOSED_SHELL('',(#234,#235,#236,#237,#238,#239,#240,#241,#242,#243,
#244,#245,#246));
#248=MANIFOLD_SOLID_BREP('',#247);
#249=SHAPE_DEFINITION_REPRESENTATION(#373,#250);
#250=SHAPE_REPRESENTATION('ATDR5',(#251),#368);
#251=AXIS2_PLACEMENT_3D('',#329,#277,#278);
#252=AXIS2_PLACEMENT_3D('',#330,#279,#280);
#253=AXIS2_PLACEMENT_3D('',#331,#281,#282);
#254=AXIS2_PLACEMENT_3D('',#333,#283,#284);
#255=AXIS2_PLACEMENT_3D('',#335,#285,#286);
#256=AXIS2_PLACEMENT_3D('',#336,#287,#288);
#257=AXIS2_PLACEMENT_3D('',#338,#289,#290);
#258=AXIS2_PLACEMENT_3D('',#339,#291,#292);
#259=AXIS2_PLACEMENT_3D('',#340,#293,#294);
#260=AXIS2_PLACEMENT_3D('',#342,#295,#296);
#261=AXIS2_PLACEMENT_3D('',#343,#297,#298);
#262=AXIS2_PLACEMENT_3D('',#345,#299,#300);
#263=AXIS2_PLACEMENT_3D('',#346,#301,#302);
#264=AXIS2_PLACEMENT_3D('',#348,#303,#304);
#265=AXIS2_PLACEMENT_3D('',#349,#305,#306);
#266=AXIS2_PLACEMENT_3D('',#351,#307,#308);
#267=AXIS2_PLACEMENT_3D('',#352,#309,#310);
#268=AXIS2_PLACEMENT_3D('',#354,#311,#312);
#269=AXIS2_PLACEMENT_3D('',#355,#313,#314);
#270=AXIS2_PLACEMENT_3D('',#357,#315,#316);
#271=AXIS2_PLACEMENT_3D('',#358,#317,#318);
#272=AXIS2_PLACEMENT_3D('',#360,#319,#320);
#273=AXIS2_PLACEMENT_3D('',#361,#321,#322);
#274=AXIS2_PLACEMENT_3D('',#363,#323,#324);
#275=AXIS2_PLACEMENT_3D('',#364,#325,#326);
#276=AXIS2_PLACEMENT_3D('',#366,#327,#328);
#277=DIRECTION('',(0.,0.,1.));
#278=DIRECTION('',(1.,0.,0.));
#279=DIRECTION('',(0.,-1.,0.));
#280=DIRECTION('',(0.,0.,-1.));
#281=DIRECTION('',(0.,-1.,0.));
#282=DIRECTION('',(0.,0.,-1.));
#283=DIRECTION('',(0.,-1.,0.));
#284=DIRECTION('',(0.,0.,-1.));
#285=DIRECTION('',(0.,-1.,0.));
#286=DIRECTION('',(0.,0.,-1.));
#287=DIRECTION('',(0.,-1.,0.));
#288=DIRECTION('',(0.,0.,-1.));
#289=DIRECTION('',(0.,1.,0.));
#290=DIRECTION('',(0.,0.,1.));
#291=DIRECTION('',(0.,-1.,0.));
#292=DIRECTION('',(0.,0.,-1.));
#293=DIRECTION('',(0.,-1.,0.));
#294=DIRECTION('',(0.,0.,-1.));
#295=DIRECTION('',(0.,-1.,0.));
#296=DIRECTION('',(0.,0.,-1.));
#297=DIRECTION('',(0.,-1.,0.));
#298=DIRECTION('',(0.,0.,-1.));
#299=DIRECTION('',(0.,-1.,0.));
#300=DIRECTION('',(0.,0.,-1.));
#301=DIRECTION('',(0.,-1.,0.));
#302=DIRECTION('',(0.,0.,-1.));
#303=DIRECTION('',(0.,-1.,0.));
#304=DIRECTION('',(0.,0.,-1.));
#305=DIRECTION('',(0.,-1.,0.));
#306=DIRECTION('',(0.,0.,-1.));
#307=DIRECTION('',(0.,-1.,0.));
#308=DIRECTION('',(0.,0.,-1.));
#309=DIRECTION('',(0.,-1.,0.));
#310=DIRECTION('',(0.,0.,-1.));
#311=DIRECTION('',(0.,1.,0.));
#312=DIRECTION('',(0.,0.,1.));
#313=DIRECTION('',(0.,-1.,0.));
#314=DIRECTION('',(0.,0.,-1.));
#315=DIRECTION('',(0.,-1.,0.));
#316=DIRECTION('',(0.,0.,-1.));
#317=DIRECTION('',(0.,-1.,0.));
#318=DIRECTION('',(0.,0.,-1.));
#319=DIRECTION('',(0.,-1.,0.));
#320=DIRECTION('',(0.,0.,-1.));
#321=DIRECTION('',(0.,-1.,0.));
#322=DIRECTION('',(0.,0.,-1.));
#323=DIRECTION('',(0.,1.,0.));
#324=DIRECTION('',(0.,0.,1.));
#325=DIRECTION('',(0.,-1.,0.));
#326=DIRECTION('',(0.,0.,-1.));
#327=DIRECTION('',(0.,-1.,0.));
#328=DIRECTION('',(0.,0.,-1.));
#329=CARTESIAN_POINT('',(0.,0.,0.));
#330=CARTESIAN_POINT('',(0.,13.3449794212342,-8.67361737988404E-16));
#331=CARTESIAN_POINT('',(0.,18.4,-8.67361737988404E-16));
#332=CARTESIAN_POINT('',(0.,18.4,-3.22));
#333=CARTESIAN_POINT('',(0.,16.45,-8.67361737988404E-16));
#334=CARTESIAN_POINT('',(0.,16.45,-3.22));
#335=CARTESIAN_POINT('',(0.,18.4,-8.67361737988404E-16));
#336=CARTESIAN_POINT('',(0.,19.05,-8.67361737988404E-16));
#337=CARTESIAN_POINT('',(0.,19.05,-2.57));
#338=CARTESIAN_POINT('',(0.,19.05,-8.67361737988404E-16));
#339=CARTESIAN_POINT('',(0.,-19.05,4.6));
#340=CARTESIAN_POINT('',(0.,-19.05,-8.67361737988404E-16));
#341=CARTESIAN_POINT('',(0.,-19.05,-4.6));
#342=CARTESIAN_POINT('',(0.,-18.45,-8.67361737988404E-16));
#343=CARTESIAN_POINT('',(0.,-18.45,-8.67361737988404E-16));
#344=CARTESIAN_POINT('',(0.,-18.45,-5.2));
#345=CARTESIAN_POINT('',(0.,13.3449794212342,-8.67361737988404E-16));
#346=CARTESIAN_POINT('',(0.,-10.4629596951497,-8.67361737988404E-16));
#347=CARTESIAN_POINT('',(0.,-10.4629596951497,-5.2));
#348=CARTESIAN_POINT('',(0.,-10.4629596951497,-8.67361737988404E-16));
#349=CARTESIAN_POINT('',(0.,-9.59693429136529,-8.67361737988404E-16));
#350=CARTESIAN_POINT('',(0.,-9.59693429136529,-4.7));
#351=CARTESIAN_POINT('',(0.,13.3449794212342,-8.67361737988404E-16));
#352=CARTESIAN_POINT('',(0.,6.3969342913653,-8.67361737988404E-16));
#353=CARTESIAN_POINT('',(0.,6.3969342913653,-4.7));
#354=CARTESIAN_POINT('',(0.,6.3969342913653,-8.67361737988404E-16));
#355=CARTESIAN_POINT('',(0.,7.26295969514974,-8.67361737988404E-16));
#356=CARTESIAN_POINT('',(0.,7.26295969514974,-5.2));
#357=CARTESIAN_POINT('',(0.,13.3449794212342,-8.67361737988404E-16));
#358=CARTESIAN_POINT('',(0.,15.25,-8.67361737988404E-16));
#359=CARTESIAN_POINT('',(0.,15.25,-5.2));
#360=CARTESIAN_POINT('',(0.,15.25,-8.67361737988404E-16));
#361=CARTESIAN_POINT('',(0.,15.85,-8.67361737988404E-16));
#362=CARTESIAN_POINT('',(0.,15.85,-4.6));
#363=CARTESIAN_POINT('',(0.,15.85,3.82));
#364=CARTESIAN_POINT('',(0.,15.85,-8.67361737988404E-16));
#365=CARTESIAN_POINT('',(0.,15.85,-3.82));
#366=CARTESIAN_POINT('',(0.,16.45,-8.67361737988404E-16));
#367=MECHANICAL_DESIGN_GEOMETRIC_PRESENTATION_REPRESENTATION('',(#142,#143,
#144,#145,#146,#147,#148,#149,#150,#151,#152,#153,#154),#368);
#368=(
GEOMETRIC_REPRESENTATION_CONTEXT(3)
GLOBAL_UNCERTAINTY_ASSIGNED_CONTEXT((#369))
GLOBAL_UNIT_ASSIGNED_CONTEXT((#372,#371,#370))
REPRESENTATION_CONTEXT('ATDR5','TOP_LEVEL_ASSEMBLY_PART')
);
#369=UNCERTAINTY_MEASURE_WITH_UNIT(LENGTH_MEASURE(0.005),#372,
'DISTANCE_ACCURACY_VALUE','Maximum Tolerance applied to model');
#370=(
NAMED_UNIT(*)
SI_UNIT($,.STERADIAN.)
SOLID_ANGLE_UNIT()
);
#371=(
NAMED_UNIT(*)
PLANE_ANGLE_UNIT()
SI_UNIT($,.RADIAN.)
);
#372=(
LENGTH_UNIT()
NAMED_UNIT(*)
SI_UNIT(.MILLI.,.METRE.)
);
#373=PRODUCT_DEFINITION_SHAPE('','',#374);
#374=PRODUCT_DEFINITION('','',#376,#375);
#375=PRODUCT_DEFINITION_CONTEXT('',#382,'design');
#376=PRODUCT_DEFINITION_FORMATION_WITH_SPECIFIED_SOURCE('','',#378,
 .NOT_KNOWN.);
#377=PRODUCT_RELATED_PRODUCT_CATEGORY('','',(#378));
#378=PRODUCT('ATDR5','ATDR5','ATDR5',(#380));
#379=PRODUCT_CATEGORY('','');
#380=PRODUCT_CONTEXT('',#382,'mechanical');
#381=APPLICATION_PROTOCOL_DEFINITION('international standard',
'automotive_design',2010,#382);
#382=APPLICATION_CONTEXT(
'core data for automotive mechanical design processes');
ENDSEC;
END-ISO-10303-21;
