ISO-10303-21;
HEADER;
FILE_DESCRIPTION (( 'STEP AP214' ),
    '1' );
FILE_NAME ('ECWFE2J104J.STEP',
    '2021-05-26T09:13:53',
    ( '' ),
    ( '' ),
    'SwSTEP 2.0',
    'SolidWorks 2020',
    '' );
FILE_SCHEMA (( 'AUTOMOTIVE_DESIGN' ));
ENDSEC;

DATA;
#1 = VERTEX_POINT ( 'NONE', #337 ) ;
#2 = ORIENTED_EDGE ( 'NONE', *, *, #741, .T. ) ;
#3 = CARTESIAN_POINT ( 'NONE',  ( -8.166666666666664298, 9.916666666666667851, -1.916666666666664076 ) ) ;
#4 = CARTESIAN_POINT ( 'NONE',  ( 0.000000000000000000, 0.000000000000000000, 2.208333333333332593 ) ) ;
#5 = PLANE ( 'NONE',  #267 ) ;
#6 = EDGE_CURVE ( 'NONE', #840, #1044, #711, .T. ) ;
#7 = ORIENTED_EDGE ( 'NONE', *, *, #940, .F. ) ;
#8 = ORIENTED_EDGE ( 'NONE', *, *, #492, .T. ) ;
#9 = CARTESIAN_POINT ( 'NONE',  ( 8.166666666666671404, 0.000000000000000000, 2.208333333333332593 ) ) ;
#10 = EDGE_CURVE ( 'NONE', #871, #408, #702, .T. ) ;
#11 = LINE ( 'NONE', #269, #169 ) ;
#12 = CARTESIAN_POINT ( 'NONE',  ( 8.166666666666671404, 0.000000000000000000, 2.500000000000000444 ) ) ;
#13 = ORIENTED_EDGE ( 'NONE', *, *, #397, .F. ) ;
#14 = CIRCLE ( 'NONE', #697, 0.5833333333333332593 ) ;
#15 = ORIENTED_EDGE ( 'NONE', *, *, #1101, .F. ) ;
#16 = EDGE_CURVE ( 'NONE', #154, #936, #1084, .T. ) ;
#17 = CARTESIAN_POINT ( 'NONE',  ( -2.561427632497013470E-17, 0.2100000000000006584, -2.500000000000001332 ) ) ;
#18 = DIRECTION ( 'NONE',  ( 0.000000000000000000, 1.000000000000000000, 0.000000000000000000 ) ) ;
#19 = VECTOR ( 'NONE', #1023, 1000.000000000000000 ) ;
#20 = ORIENTED_EDGE ( 'NONE', *, *, #303, .F. ) ;
#21 = VERTEX_POINT ( 'NONE', #1007 ) ;
#22 = DIRECTION ( 'NONE',  ( -0.000000000000000000, -0.000000000000000000, 1.000000000000000000 ) ) ;
#23 = DIRECTION ( 'NONE',  ( -0.000000000000000000, 1.000000000000000000, 0.000000000000000000 ) ) ;
#24 = EDGE_LOOP ( 'NONE', ( #160, #929, #668, #742 ) ) ;
#25 = EDGE_CURVE ( 'NONE', #936, #390, #290, .T. ) ;
#26 = VERTEX_POINT ( 'NONE', #424 ) ;
#27 = DIRECTION ( 'NONE',  ( 0.000000000000000000, 0.000000000000000000, -1.000000000000000000 ) ) ;
#28 = VERTEX_POINT ( 'NONE', #80 ) ;
#29 = UNCERTAINTY_MEASURE_WITH_UNIT (LENGTH_MEASURE( 1.000000000000000082E-05 ), #947, 'distance_accuracy_value', 'NONE');
#30 = LINE ( 'NONE', #769, #132 ) ;
#31 = AXIS2_PLACEMENT_3D ( 'NONE', #79, #910, #548 ) ;
#32 = CARTESIAN_POINT ( 'NONE',  ( 0.000000000000000000, 0.000000000000000000, 0.000000000000000000 ) ) ;
#33 = AXIS2_PLACEMENT_3D ( 'NONE', #32, #876, #783 ) ;
#34 = VECTOR ( 'NONE', #235, 1000.000000000000000 ) ;
#35 = CARTESIAN_POINT ( 'NONE',  ( -8.166666666666662522, 0.2100000000000001310, 1.916666666666668517 ) ) ;
#36 = CLOSED_SHELL ( 'NONE', ( #867, #504, #186, #760 ) ) ;
#37 = ORIENTED_EDGE ( 'NONE', *, *, #781, .F. ) ;
#38 = LINE ( 'NONE', #335, #1146 ) ;
#39 =( GEOMETRIC_REPRESENTATION_CONTEXT ( 3 ) GLOBAL_UNCERTAINTY_ASSIGNED_CONTEXT ( ( #218 ) ) GLOBAL_UNIT_ASSIGNED_CONTEXT ( ( #1008, #633, #1085 ) ) REPRESENTATION_CONTEXT ( 'NONE', 'WORKASPACE' ) );
#40 = CARTESIAN_POINT ( 'NONE',  ( -8.166666666666662522, 0.000000000000000000, -2.500000000000001332 ) ) ;
#41 = FILL_AREA_STYLE_COLOUR ( '', #479 ) ;
#42 = CARTESIAN_POINT ( 'NONE',  ( -4.878909776184802617E-17, 0.2100000000000020184, -2.500000000000001332 ) ) ;
#43 = ORIENTED_EDGE ( 'NONE', *, *, #652, .T. ) ;
#44 = CARTESIAN_POINT ( 'NONE',  ( -8.749999999999998224, 9.916666666666667851, 2.500000000000001776 ) ) ;
#45 = DIRECTION ( 'NONE',  ( 0.000000000000000000, -3.717264591378872697E-16, -1.000000000000000000 ) ) ;
#46 =( NAMED_UNIT ( * ) SI_UNIT ( $, .STERADIAN. ) SOLID_ANGLE_UNIT ( ) );
#47 = ORIENTED_EDGE ( 'NONE', *, *, #833, .T. ) ;
#48 = EDGE_LOOP ( 'NONE', ( #1114, #586, #955, #1001 ) ) ;
#49 = FACE_OUTER_BOUND ( 'NONE', #653, .T. ) ;
#50 = EDGE_CURVE ( 'NONE', #832, #1012, #447, .T. ) ;
#51 = DIRECTION ( 'NONE',  ( 0.000000000000000000, -1.000000000000000000, -0.000000000000000000 ) ) ;
#52 = CARTESIAN_POINT ( 'NONE',  ( 0.000000000000000000, 0.000000000000000000, 0.000000000000000000 ) ) ;
#53 = CIRCLE ( 'NONE', #730, 0.5833333333333332593 ) ;
#54 = DIRECTION ( 'NONE',  ( 1.000000000000000000, 9.938519914450458627E-16, 0.000000000000000000 ) ) ;
#55 = LINE ( 'NONE', #1061, #465 ) ;
#56 = AXIS2_PLACEMENT_3D ( 'NONE', #717, #67, #908 ) ;
#57 = AXIS2_PLACEMENT_3D ( 'NONE', #35, #221, #585 ) ;
#58 = DIRECTION ( 'NONE',  ( 0.000000000000000000, 1.000000000000000000, 0.000000000000000000 ) ) ;
#59 = EDGE_CURVE ( 'NONE', #680, #1177, #823, .T. ) ;
#60 = ORIENTED_EDGE ( 'NONE', *, *, #676, .T. ) ;
#61 = LINE ( 'NONE', #228, #194 ) ;
#62 = EDGE_CURVE ( 'NONE', #1162, #1038, #564, .T. ) ;
#63 = EDGE_CURVE ( 'NONE', #1123, #1012, #294, .T. ) ;
#64 = LINE ( 'NONE', #898, #305 ) ;
#65 = ORIENTED_EDGE ( 'NONE', *, *, #487, .F. ) ;
#66 = CARTESIAN_POINT ( 'NONE',  ( 2.849902853390469643E-16, 9.916666666666667851, 1.916666666666667185 ) ) ;
#67 = DIRECTION ( 'NONE',  ( -1.029992063861228226E-15, 1.000000000000000000, -0.000000000000000000 ) ) ;
#68 = FACE_OUTER_BOUND ( 'NONE', #970, .T. ) ;
#69 = ORIENTED_EDGE ( 'NONE', *, *, #789, .F. ) ;
#70 = CARTESIAN_POINT ( 'NONE',  ( 8.166666666666671404, 9.916666666666667851, 2.499999999999999112 ) ) ;
#71 = VECTOR ( 'NONE', #244, 1000.000000000000000 ) ;
#72 = ORIENTED_EDGE ( 'NONE', *, *, #1189, .F. ) ;
#73 = CARTESIAN_POINT ( 'NONE',  ( 8.166666666666671404, 9.916666666666667851, -1.916666666666668073 ) ) ;
#74 = ADVANCED_FACE ( 'NONE', ( #656 ), #1196, .T. ) ;
#75 = DIRECTION ( 'NONE',  ( -1.734723475976806355E-16, 0.000000000000000000, -1.000000000000000000 ) ) ;
#76 = AXIS2_PLACEMENT_3D ( 'NONE', #921, #1018, #259 ) ;
#77 = CARTESIAN_POINT ( 'NONE',  ( 8.166666666666671404, 9.916666666666667851, 0.000000000000000000 ) ) ;
#78 = VECTOR ( 'NONE', #1065, 1000.000000000000000 ) ;
#79 = CARTESIAN_POINT ( 'NONE',  ( 5.666666666666665186, 0.000000000000000000, -2.500000000000001332 ) ) ;
#80 = CARTESIAN_POINT ( 'NONE',  ( -5.666666666666661634, 0.2100000000000021294, 2.208333333333332593 ) ) ;
#81 = CARTESIAN_POINT ( 'NONE',  ( -5.666666666666661634, 0.000000000000000000, 2.500000000000000444 ) ) ;
#82 = ORIENTED_EDGE ( 'NONE', *, *, #303, .T. ) ;
#83 = CARTESIAN_POINT ( 'NONE',  ( -8.166666666666662522, 9.916666666666667851, 1.916666666666668517 ) ) ;
#84 = EDGE_CURVE ( 'NONE', #507, #785, #844, .T. ) ;
#85 = DIRECTION ( 'NONE',  ( -1.000000000000000000, 0.000000000000000000, 0.000000000000000000 ) ) ;
#86 = CARTESIAN_POINT ( 'NONE',  ( 5.666666666666665186, 0.000000000000000000, -2.500000000000001332 ) ) ;
#87 = ORIENTED_EDGE ( 'NONE', *, *, #834, .T. ) ;
#88 = EDGE_CURVE ( 'NONE', #21, #299, #177, .T. ) ;
#89 = DIRECTION ( 'NONE',  ( -0.000000000000000000, 1.000000000000000000, -0.000000000000000000 ) ) ;
#90 = CARTESIAN_POINT ( 'NONE',  ( -8.166666666666664298, 9.916666666666667851, -2.499999999999998224 ) ) ;
#91 = FACE_OUTER_BOUND ( 'NONE', #698, .T. ) ;
#92 = AXIS2_PLACEMENT_3D ( 'NONE', #689, #600, #225 ) ;
#93 = ORIENTED_EDGE ( 'NONE', *, *, #491, .F. ) ;
#94 = STYLED_ITEM ( 'NONE', ( #971 ), #669 ) ;
#95 = ORIENTED_EDGE ( 'NONE', *, *, #857, .T. ) ;
#96 = CARTESIAN_POINT ( 'NONE',  ( -5.666666666666661634, 0.2100000000000021294, -2.208333333333333481 ) ) ;
#97 = VECTOR ( 'NONE', #1194, 1000.000000000000000 ) ;
#98 = ADVANCED_FACE ( 'NONE', ( #196 ), #1027, .T. ) ;
#99 = VECTOR ( 'NONE', #23, 1000.000000000000000 ) ;
#100 = CYLINDRICAL_SURFACE ( 'NONE', #212, 0.2999999999999999334 ) ;
#101 = DIRECTION ( 'NONE',  ( -1.029992063861228226E-15, 1.000000000000000000, -0.000000000000000000 ) ) ;
#102 = ORIENTED_EDGE ( 'NONE', *, *, #410, .F. ) ;
#103 = ADVANCED_FACE ( 'NONE', ( #735 ), #100, .T. ) ;
#104 = ORIENTED_EDGE ( 'NONE', *, *, #631, .T. ) ;
#105 = LINE ( 'NONE', #937, #866 ) ;
#106 = CARTESIAN_POINT ( 'NONE',  ( -2.561427632497013470E-17, 0.2100000000000006584, 2.500000000000000444 ) ) ;
#107 = CARTESIAN_POINT ( 'NONE',  ( 8.166666666666671404, 10.50000000000000000, -1.916666666666668073 ) ) ;
#108 = ORIENTED_EDGE ( 'NONE', *, *, #50, .T. ) ;
#109 = EDGE_CURVE ( 'NONE', #1044, #646, #11, .T. ) ;
#110 = ORIENTED_EDGE ( 'NONE', *, *, #821, .T. ) ;
#111 = DIRECTION ( 'NONE',  ( 0.000000000000000000, 0.000000000000000000, -1.000000000000000000 ) ) ;
#112 = DIRECTION ( 'NONE',  ( 1.000000000000000000, -0.000000000000000000, -0.000000000000000000 ) ) ;
#113 = VERTEX_POINT ( 'NONE', #938 ) ;
#114 = AXIS2_PLACEMENT_3D ( 'NONE', #77, #998, #347 ) ;
#115 = EDGE_CURVE ( 'NONE', #592, #154, #596, .T. ) ;
#116 = VERTEX_POINT ( 'NONE', #90 ) ;
#117 = VECTOR ( 'NONE', #649, 1000.000000000000000 ) ;
#118 = FACE_OUTER_BOUND ( 'NONE', #371, .T. ) ;
#119 = AXIS2_PLACEMENT_3D ( 'NONE', #1028, #286, #557 ) ;
#120 = ORIENTED_EDGE ( 'NONE', *, *, #720, .F. ) ;
#121 = ORIENTED_EDGE ( 'NONE', *, *, #1021, .F. ) ;
#122 = EDGE_CURVE ( 'NONE', #234, #413, #285, .T. ) ;
#123 = DIRECTION ( 'NONE',  ( -0.000000000000000000, -0.000000000000000000, 1.000000000000000000 ) ) ;
#124 = ORIENTED_EDGE ( 'NONE', *, *, #987, .F. ) ;
#125 = DIRECTION ( 'NONE',  ( -0.000000000000000000, -0.000000000000000000, 1.000000000000000000 ) ) ;
#126 = CARTESIAN_POINT ( 'NONE',  ( -7.199999999999978861, -20.00000000000000000, 3.673940397442190153E-17 ) ) ;
#127 = ORIENTED_EDGE ( 'NONE', *, *, #1057, .T. ) ;
#128 = CARTESIAN_POINT ( 'NONE',  ( -8.166666666666662522, 0.2100000000000021294, 2.208333333333332593 ) ) ;
#129 = VECTOR ( 'NONE', #1115, 1000.000000000000000 ) ;
#130 = CARTESIAN_POINT ( 'NONE',  ( 5.666666666666665186, 0.000000000000000000, -2.500000000000001332 ) ) ;
#131 =( LENGTH_UNIT ( ) NAMED_UNIT ( * ) SI_UNIT ( .MILLI., .METRE. ) );
#132 = VECTOR ( 'NONE', #671, 1000.000000000000000 ) ;
#133 = DIRECTION ( 'NONE',  ( 1.000000000000000000, 2.323290369611788595E-16, 0.000000000000000000 ) ) ;
#134 = VECTOR ( 'NONE', #356, 1000.000000000000000 ) ;
#135 = EDGE_LOOP ( 'NONE', ( #227, #1167, #464, #384 ) ) ;
#136 = DIRECTION ( 'NONE',  ( 0.000000000000000000, -1.000000000000000000, 0.000000000000000000 ) ) ;
#137 = ORIENTED_EDGE ( 'NONE', *, *, #278, .F. ) ;
#138 = ORIENTED_EDGE ( 'NONE', *, *, #62, .F. ) ;
#139 = DIRECTION ( 'NONE',  ( 0.000000000000000000, 1.000000000000000000, 0.000000000000000000 ) ) ;
#140 = ADVANCED_FACE ( 'NONE', ( #380 ), #830, .F. ) ;
#141 = PLANE ( 'NONE',  #575 ) ;
#142 = DIRECTION ( 'NONE',  ( 0.000000000000000000, 1.000000000000000000, 0.000000000000000000 ) ) ;
#143 = CARTESIAN_POINT ( 'NONE',  ( -7.799999999999957190, -40.84852813742386957, 0.000000000000000000 ) ) ;
#144 = SURFACE_STYLE_FILL_AREA ( #984 ) ;
#145 = CARTESIAN_POINT ( 'NONE',  ( -8.166666666666662522, 0.000000000000000000, -2.208333333333333481 ) ) ;
#146 = CARTESIAN_POINT ( 'NONE',  ( -5.666666666666661634, 0.000000000000000000, 2.500000000000001332 ) ) ;
#147 = AXIS2_PLACEMENT_3D ( 'NONE', #704, #985, #1169 ) ;
#148 = CIRCLE ( 'NONE', #119, 0.3000000000000000999 ) ;
#149 = ADVANCED_FACE ( 'NONE', ( #1102 ), #201, .F. ) ;
#150 = ORIENTED_EDGE ( 'NONE', *, *, #540, .T. ) ;
#151 = AXIS2_PLACEMENT_3D ( 'NONE', #279, #543, #923 ) ;
#152 = AXIS2_PLACEMENT_3D ( 'NONE', #42, #309, #133 ) ;
#153 = CARTESIAN_POINT ( 'NONE',  ( 0.000000000000000000, 0.000000000000000000, 0.000000000000000000 ) ) ;
#154 = VERTEX_POINT ( 'NONE', #1116 ) ;
#155 = CARTESIAN_POINT ( 'NONE',  ( 8.166666666666671404, 9.916666666666667851, 1.916666666666665853 ) ) ;
#156 = DIRECTION ( 'NONE',  ( -0.000000000000000000, -0.000000000000000000, 1.000000000000000000 ) ) ;
#157 = CYLINDRICAL_SURFACE ( 'NONE', #1083, 0.5833333333333332593 ) ;
#158 = LINE ( 'NONE', #256, #379 ) ;
#159 = EDGE_CURVE ( 'NONE', #1172, #497, #1183, .T. ) ;
#160 = ORIENTED_EDGE ( 'NONE', *, *, #431, .T. ) ;
#161 = LINE ( 'NONE', #81, #757 ) ;
#162 = DIRECTION ( 'NONE',  ( 1.000000000000000000, 0.000000000000000000, 0.000000000000000000 ) ) ;
#163 = DIRECTION ( 'NONE',  ( 0.000000000000000000, -0.000000000000000000, 1.000000000000000000 ) ) ;
#164 = DIRECTION ( 'NONE',  ( 0.000000000000000000, -0.000000000000000000, 1.000000000000000000 ) ) ;
#165 = VECTOR ( 'NONE', #183, 1000.000000000000000 ) ;
#166 = PRODUCT_DEFINITION_FORMATION_WITH_SPECIFIED_SOURCE ( 'ANY', '', #396, .NOT_KNOWN. ) ;
#167 = VERTEX_POINT ( 'NONE', #556 ) ;
#168 = CARTESIAN_POINT ( 'NONE',  ( 8.166666666666673180, 0.2100000000000021294, 2.208333333333332593 ) ) ;
#169 = VECTOR ( 'NONE', #173, 1000.000000000000000 ) ;
#170 = ORIENTED_EDGE ( 'NONE', *, *, #63, .T. ) ;
#171 = VECTOR ( 'NONE', #1002, 1000.000000000000000 ) ;
#172 = CARTESIAN_POINT ( 'NONE',  ( 5.666666666666665186, 0.000000000000000000, -2.208333333333333481 ) ) ;
#173 = DIRECTION ( 'NONE',  ( 0.000000000000000000, -0.000000000000000000, -1.000000000000000000 ) ) ;
#174 = CARTESIAN_POINT ( 'NONE',  ( -8.166666666666664298, 10.50000000000000000, 1.916666666666668517 ) ) ;
#175 = VERTEX_POINT ( 'NONE', #467 ) ;
#176 = DIRECTION ( 'NONE',  ( 0.000000000000000000, -0.000000000000000000, 1.000000000000000000 ) ) ;
#177 = LINE ( 'NONE', #362, #852 ) ;
#178 = CARTESIAN_POINT ( 'NONE',  ( -8.166666666666662522, 0.2100000000000021294, -2.208333333333333481 ) ) ;
#179 = ORIENTED_EDGE ( 'NONE', *, *, #746, .F. ) ;
#180 = EDGE_CURVE ( 'NONE', #167, #680, #838, .T. ) ;
#181 = ORIENTED_EDGE ( 'NONE', *, *, #180, .T. ) ;
#182 = DIRECTION ( 'NONE',  ( -1.029992063861228226E-15, 1.000000000000000000, -0.000000000000000000 ) ) ;
#183 = DIRECTION ( 'NONE',  ( 1.000000000000000000, -0.000000000000000000, -1.486905836551548832E-16 ) ) ;
#184 = CARTESIAN_POINT ( 'NONE',  ( 7.500000000000042633, -40.84852813742386246, 0.000000000000000000 ) ) ;
#185 = LINE ( 'NONE', #370, #994 ) ;
#186 = ADVANCED_FACE ( 'NONE', ( #901 ), #443, .T. ) ;
#187 = ADVANCED_FACE ( 'NONE', ( #1092 ), #808, .T. ) ;
#188 = VECTOR ( 'NONE', #111, 1000.000000000000000 ) ;
#189 = EDGE_CURVE ( 'NONE', #805, #507, #997, .T. ) ;
#190 = EDGE_LOOP ( 'NONE', ( #179, #47, #756, #102 ) ) ;
#191 = EDGE_LOOP ( 'NONE', ( #104, #481, #120, #137, #945, #419, #440, #768, #1119, #629 ) ) ;
#192 = CARTESIAN_POINT ( 'NONE',  ( 8.166666666666671404, 10.50000000000000000, -2.500000000000001332 ) ) ;
#193 = VECTOR ( 'NONE', #238, 1000.000000000000000 ) ;
#194 = VECTOR ( 'NONE', #429, 1000.000000000000000 ) ;
#195 = EDGE_CURVE ( 'NONE', #390, #936, #614, .T. ) ;
#196 = FACE_OUTER_BOUND ( 'NONE', #598, .T. ) ;
#197 = PLANE ( 'NONE',  #346 ) ;
#198 = ORIENTED_EDGE ( 'NONE', *, *, #115, .T. ) ;
#199 = EDGE_LOOP ( 'NONE', ( #93, #737 ) ) ;
#200 = LINE ( 'NONE', #708, #1010 ) ;
#201 = PLANE ( 'NONE',  #344 ) ;
#202 = DIRECTION ( 'NONE',  ( -1.000000000000000000, 0.000000000000000000, 0.000000000000000000 ) ) ;
#203 = ADVANCED_FACE ( 'NONE', ( #253 ), #345, .T. ) ;
#204 = ORIENTED_EDGE ( 'NONE', *, *, #271, .F. ) ;
#205 = VERTEX_POINT ( 'NONE', #814 ) ;
#206 = DIRECTION ( 'NONE',  ( 0.000000000000000000, -0.000000000000000000, 1.000000000000000000 ) ) ;
#207 = DIRECTION ( 'NONE',  ( 1.000000000000000000, 0.000000000000000000, -1.486905836551549079E-16 ) ) ;
#208 = ORIENTED_EDGE ( 'NONE', *, *, #195, .T. ) ;
#209 = VECTOR ( 'NONE', #1159, 1000.000000000000000 ) ;
#210 = EDGE_LOOP ( 'NONE', ( #842, #296, #1071, #983 ) ) ;
#211 = CARTESIAN_POINT ( 'NONE',  ( 8.166666666666671404, 0.2100000000000021294, 2.500000000000000444 ) ) ;
#212 = AXIS2_PLACEMENT_3D ( 'NONE', #184, #1191, #1112 ) ;
#213 = DIRECTION ( 'NONE',  ( 0.000000000000000000, -0.000000000000000000, 1.000000000000000000 ) ) ;
#214 = AXIS2_PLACEMENT_3D ( 'NONE', #727, #996, #338 ) ;
#215 = ORIENTED_EDGE ( 'NONE', *, *, #1143, .T. ) ;
#216 = PRODUCT_DEFINITION_SHAPE ( 'NONE', 'NONE',  #642 ) ;
#217 = EDGE_LOOP ( 'NONE', ( #1046, #198, #490, #659 ) ) ;
#218 = UNCERTAINTY_MEASURE_WITH_UNIT (LENGTH_MEASURE( 1.000000000000000082E-05 ), #1008, 'distance_accuracy_value', 'NONE');
#219 = DIRECTION ( 'NONE',  ( 0.000000000000000000, 0.000000000000000000, -1.000000000000000000 ) ) ;
#220 =( NAMED_UNIT ( * ) SI_UNIT ( $, .STERADIAN. ) SOLID_ANGLE_UNIT ( ) );
#221 = DIRECTION ( 'NONE',  ( -2.323290369611788595E-16, 1.000000000000000000, -0.000000000000000000 ) ) ;
#222 = ORIENTED_EDGE ( 'NONE', *, *, #884, .F. ) ;
#223 = CARTESIAN_POINT ( 'NONE',  ( 8.166666666666671404, 0.000000000000000000, -2.500000000000001332 ) ) ;
#224 = EDGE_CURVE ( 'NONE', #376, #577, #547, .T. ) ;
#225 = DIRECTION ( 'NONE',  ( -1.000000000000000000, 0.000000000000000000, 0.000000000000000000 ) ) ;
#226 = CARTESIAN_POINT ( 'NONE',  ( 8.166666666666671404, 0.000000000000000000, -2.500000000000001332 ) ) ;
#227 = ORIENTED_EDGE ( 'NONE', *, *, #1106, .T. ) ;
#228 = CARTESIAN_POINT ( 'NONE',  ( 8.750000000000003553, 0.000000000000000000, -2.500000000000001332 ) ) ;
#229 = EDGE_CURVE ( 'NONE', #1182, #175, #820, .T. ) ;
#230 = FACE_OUTER_BOUND ( 'NONE', #300, .T. ) ;
#231 = ORIENTED_EDGE ( 'NONE', *, *, #50, .F. ) ;
#232 = EDGE_CURVE ( 'NONE', #175, #1038, #560, .T. ) ;
#233 = VECTOR ( 'NONE', #1063, 1000.000000000000000 ) ;
#234 = VERTEX_POINT ( 'NONE', #359 ) ;
#235 = DIRECTION ( 'NONE',  ( -0.000000000000000000, -0.000000000000000000, 1.000000000000000000 ) ) ;
#236 = CARTESIAN_POINT ( 'NONE',  ( -8.749999999999998224, 0.2099999999999999922, 1.916666666666666297 ) ) ;
#237 = CARTESIAN_POINT ( 'NONE',  ( 8.750000000000003553, 9.916666666666667851, -1.916666666666668073 ) ) ;
#238 = DIRECTION ( 'NONE',  ( 0.000000000000000000, 1.000000000000000000, -0.000000000000000000 ) ) ;
#239 = LINE ( 'NONE', #145, #514 ) ;
#240 =( NAMED_UNIT ( * ) PLANE_ANGLE_UNIT ( ) SI_UNIT ( $, .RADIAN. ) );
#241 = ADVANCED_FACE ( 'NONE', ( #553 ), #732, .T. ) ;
#242 = EDGE_LOOP ( 'NONE', ( #60, #15, #204, #927 ) ) ;
#243 = DIRECTION ( 'NONE',  ( 0.000000000000000000, 0.000000000000000000, -1.000000000000000000 ) ) ;
#244 = DIRECTION ( 'NONE',  ( -0.000000000000000000, -0.000000000000000000, 1.000000000000000000 ) ) ;
#245 = EDGE_CURVE ( 'NONE', #116, #982, #920, .T. ) ;
#246 = AXIS2_PLACEMENT_3D ( 'NONE', #780, #792, #498 ) ;
#247 = ORIENTED_EDGE ( 'NONE', *, *, #829, .T. ) ;
#248 = DIRECTION ( 'NONE',  ( -0.000000000000000000, -0.000000000000000000, 1.000000000000000000 ) ) ;
#249 = CARTESIAN_POINT ( 'NONE',  ( -8.166666666666664298, 9.916666666666667851, 1.916666666666668517 ) ) ;
#250 = FACE_OUTER_BOUND ( 'NONE', #573, .T. ) ;
#251 = DIRECTION ( 'NONE',  ( 0.000000000000000000, 1.000000000000000000, 0.000000000000000000 ) ) ;
#252 = ORIENTED_EDGE ( 'NONE', *, *, #926, .F. ) ;
#253 = FACE_OUTER_BOUND ( 'NONE', #242, .T. ) ;
#254 = CARTESIAN_POINT ( 'NONE',  ( 8.166666666666671404, 10.50000000000000000, -1.916666666666668073 ) ) ;
#255 = EDGE_LOOP ( 'NONE', ( #766, #37, #1126, #1094 ) ) ;
#256 = CARTESIAN_POINT ( 'NONE',  ( -8.749999999999998224, 0.2100000000000021294, 2.208333333333332593 ) ) ;
#257 = ORIENTED_EDGE ( 'NONE', *, *, #673, .F. ) ;
#258 = DIRECTION ( 'NONE',  ( 1.486905836551549572E-16, 0.000000000000000000, 1.000000000000000000 ) ) ;
#259 = DIRECTION ( 'NONE',  ( -0.000000000000000000, 0.000000000000000000, 1.000000000000000000 ) ) ;
#260 = LINE ( 'NONE', #622, #591 ) ;
#261 = CARTESIAN_POINT ( 'NONE',  ( 8.750000000000000000, 0.2100000000000021294, 1.916666666666664520 ) ) ;
#262 = CIRCLE ( 'NONE', #147, 0.3000000000000000999 ) ;
#263 = CARTESIAN_POINT ( 'NONE',  ( 8.750000000000003553, 10.50000000000000000, 2.499999999999999112 ) ) ;
#264 = DIRECTION ( 'NONE',  ( 0.000000000000000000, 1.000000000000000000, 0.000000000000000000 ) ) ;
#265 = ORIENTED_EDGE ( 'NONE', *, *, #491, .T. ) ;
#266 = EDGE_LOOP ( 'NONE', ( #1138, #395, #394, #810 ) ) ;
#267 = AXIS2_PLACEMENT_3D ( 'NONE', #468, #375, #667 ) ;
#268 = DIRECTION ( 'NONE',  ( 0.000000000000000000, 0.000000000000000000, 1.000000000000000000 ) ) ;
#269 = CARTESIAN_POINT ( 'NONE',  ( -8.749999999999998224, 9.916666666666667851, -2.499999999999998224 ) ) ;
#270 = CARTESIAN_POINT ( 'NONE',  ( 5.666666666666665186, 0.000000000000000000, -2.500000000000001332 ) ) ;
#271 = EDGE_CURVE ( 'NONE', #982, #497, #1014, .T. ) ;
#272 = ORIENTED_EDGE ( 'NONE', *, *, #377, .F. ) ;
#273 = ORIENTED_EDGE ( 'NONE', *, *, #62, .T. ) ;
#274 = DIRECTION ( 'NONE',  ( 1.029992063861228226E-15, -1.000000000000000000, 0.000000000000000000 ) ) ;
#275 = MANIFOLD_SOLID_BREP ( 'Boss-Extrude2[2]', #993 ) ;
#276 = DIRECTION ( 'NONE',  ( 1.029992063861228226E-15, -1.000000000000000000, 0.000000000000000000 ) ) ;
#277 = ADVANCED_FACE ( 'NONE', ( #918 ), #626, .T. ) ;
#278 = EDGE_CURVE ( 'NONE', #1, #674, #924, .T. ) ;
#279 = CARTESIAN_POINT ( 'NONE',  ( -7.499999999999978684, -20.00000000000000000, 0.000000000000000000 ) ) ;
#280 = DIRECTION ( 'NONE',  ( -0.000000000000000000, -0.000000000000000000, 1.000000000000000000 ) ) ;
#281 = ORIENTED_EDGE ( 'NONE', *, *, #745, .F. ) ;
#282 = ORIENTED_EDGE ( 'NONE', *, *, #454, .T. ) ;
#283 = FACE_OUTER_BOUND ( 'NONE', #190, .T. ) ;
#284 = AXIS2_PLACEMENT_3D ( 'NONE', #510, #885, #422 ) ;
#285 = LINE ( 'NONE', #726, #1148 ) ;
#286 = DIRECTION ( 'NONE',  ( 0.000000000000000000, 1.000000000000000000, 0.000000000000000000 ) ) ;
#287 = EDGE_LOOP ( 'NONE', ( #995, #1064, #567, #252 ) ) ;
#288 = MECHANICAL_DESIGN_GEOMETRIC_PRESENTATION_REPRESENTATION (  '', ( #558 ), #972 ) ;
#289 = VERTEX_POINT ( 'NONE', #168 ) ;
#290 = CIRCLE ( 'NONE', #661, 0.2999999999999999334 ) ;
#291 = LINE ( 'NONE', #584, #341 ) ;
#292 = AXIS2_PLACEMENT_3D ( 'NONE', #367, #274, #450 ) ;
#293 = EDGE_CURVE ( 'NONE', #646, #372, #1103, .T. ) ;
#294 = LINE ( 'NONE', #106, #893 ) ;
#295 = CARTESIAN_POINT ( 'NONE',  ( 8.750000000000003553, 10.50000000000000000, 1.916666666666665853 ) ) ;
#296 = ORIENTED_EDGE ( 'NONE', *, *, #1059, .T. ) ;
#297 = ORIENTED_EDGE ( 'NONE', *, *, #392, .T. ) ;
#298 = CARTESIAN_POINT ( 'NONE',  ( 5.666666666666665186, 0.2100000000000013523, -2.500000000000001332 ) ) ;
#299 = VERTEX_POINT ( 'NONE', #174 ) ;
#300 = EDGE_LOOP ( 'NONE', ( #265, #282, #208, #835 ) ) ;
#301 =( NAMED_UNIT ( * ) SI_UNIT ( $, .STERADIAN. ) SOLID_ANGLE_UNIT ( ) );
#302 = LINE ( 'NONE', #295, #310 ) ;
#303 = EDGE_CURVE ( 'NONE', #1024, #602, #1164, .T. ) ;
#304 = ORIENTED_EDGE ( 'NONE', *, *, #874, .T. ) ;
#305 = VECTOR ( 'NONE', #333, 1000.000000000000000 ) ;
#306 = EDGE_LOOP ( 'NONE', ( #1031, #1198, #485, #1149 ) ) ;
#307 = CIRCLE ( 'NONE', #57, 0.5833333333333332593 ) ;
#308 = LINE ( 'NONE', #664, #678 ) ;
#309 = DIRECTION ( 'NONE',  ( 2.323290369611788595E-16, -1.000000000000000000, 0.000000000000000000 ) ) ;
#310 = VECTOR ( 'NONE', #207, 1000.000000000000000 ) ;
#311 = APPLICATION_CONTEXT ( 'automotive_design' ) ;
#312 = ORIENTED_EDGE ( 'NONE', *, *, #84, .F. ) ;
#313 = ADVANCED_FACE ( 'NONE', ( #91 ), #351, .F. ) ;
#314 = CARTESIAN_POINT ( 'NONE',  ( 7.500000000000000000, 0.2100000000000097344, 0.000000000000000000 ) ) ;
#315 = DIRECTION ( 'NONE',  ( 0.000000000000000000, -0.000000000000000000, 1.000000000000000000 ) ) ;
#316 = EDGE_CURVE ( 'NONE', #919, #805, #537, .T. ) ;
#317 = CARTESIAN_POINT ( 'NONE',  ( 8.166666666666673180, 0.2100000000000021294, -2.208333333333333481 ) ) ;
#318 = EDGE_CURVE ( 'NONE', #871, #1107, #639, .T. ) ;
#319 = ORIENTED_EDGE ( 'NONE', *, *, #232, .F. ) ;
#320 = CARTESIAN_POINT ( 'NONE',  ( 5.666666666666665186, 0.2100000000000013523, -2.500000000000001332 ) ) ;
#321 = DIRECTION ( 'NONE',  ( -1.029992063861228226E-15, 1.000000000000000000, 0.000000000000000000 ) ) ;
#322 = EDGE_CURVE ( 'NONE', #1177, #1123, #161, .T. ) ;
#323 = DIRECTION ( 'NONE',  ( -0.000000000000000000, -1.000000000000000000, -0.000000000000000000 ) ) ;
#324 = EDGE_LOOP ( 'NONE', ( #915, #382, #536, #551 ) ) ;
#325 = DIRECTION ( 'NONE',  ( 1.000000000000000000, -0.000000000000000000, 0.000000000000000000 ) ) ;
#326 = AXIS2_PLACEMENT_3D ( 'NONE', #451, #176, #360 ) ;
#327 = LINE ( 'NONE', #699, #400 ) ;
#328 = LINE ( 'NONE', #700, #209 ) ;
#329 = EDGE_CURVE ( 'NONE', #486, #234, #645, .T. ) ;
#330 = CIRCLE ( 'NONE', #1090, 0.5833333333333334814 ) ;
#331 = CARTESIAN_POINT ( 'NONE',  ( -8.749999999999998224, 10.50000000000000000, 1.916666666666668517 ) ) ;
#332 = DIRECTION ( 'NONE',  ( 1.000000000000000000, -0.000000000000000000, -0.000000000000000000 ) ) ;
#333 = DIRECTION ( 'NONE',  ( -1.000000000000000000, 0.000000000000000000, 0.000000000000000000 ) ) ;
#334 = ORIENTED_EDGE ( 'NONE', *, *, #355, .F. ) ;
#335 = CARTESIAN_POINT ( 'NONE',  ( 8.166666666666671404, 10.50000000000000000, 2.499999999999999112 ) ) ;
#336 = LINE ( 'NONE', #787, #496 ) ;
#337 = CARTESIAN_POINT ( 'NONE',  ( -5.666666666666661634, 0.000000000000000000, -2.500000000000001332 ) ) ;
#338 = DIRECTION ( 'NONE',  ( -1.000000000000000000, 0.000000000000000000, 0.000000000000000000 ) ) ;
#339 = PLANE ( 'NONE',  #753 ) ;
#340 = AXIS2_PLACEMENT_3D ( 'NONE', #153, #58, #521 ) ;
#341 = VECTOR ( 'NONE', #494, 1000.000000000000000 ) ;
#342 = ORIENTED_EDGE ( 'NONE', *, *, #799, .T. ) ;
#343 = SURFACE_SIDE_STYLE ('',( #460 ) ) ;
#344 = AXIS2_PLACEMENT_3D ( 'NONE', #263, #666, #1041 ) ;
#345 = CYLINDRICAL_SURFACE ( 'NONE', #933, 0.5833333333333334814 ) ;
#346 = AXIS2_PLACEMENT_3D ( 'NONE', #954, #393, #845 ) ;
#347 = DIRECTION ( 'NONE',  ( 1.000000000000000000, 0.000000000000000000, 0.000000000000000000 ) ) ;
#348 = EDGE_LOOP ( 'NONE', ( #319, #860 ) ) ;
#349 = DIRECTION ( 'NONE',  ( -0.000000000000000000, -0.000000000000000000, 1.000000000000000000 ) ) ;
#350 = CARTESIAN_POINT ( 'NONE',  ( 5.666666666666665186, 0.000000000000000000, -2.500000000000001332 ) ) ;
#351 = PLANE ( 'NONE',  #1073 ) ;
#352 = CARTESIAN_POINT ( 'NONE',  ( 8.166666666666671404, 0.000000000000000000, -2.500000000000001332 ) ) ;
#353 = CARTESIAN_POINT ( 'NONE',  ( 0.000000000000000000, -20.00000000000000000, 0.000000000000000000 ) ) ;
#354 = DIRECTION ( 'NONE',  ( -1.000000000000000000, 0.000000000000000000, 1.734723475976807341E-16 ) ) ;
#355 = EDGE_CURVE ( 'NONE', #28, #1123, #441, .T. ) ;
#356 = DIRECTION ( 'NONE',  ( -1.029992063861228226E-15, 1.000000000000000000, -0.000000000000000000 ) ) ;
#357 = CARTESIAN_POINT ( 'NONE',  ( 0.000000000000000000, 0.000000000000000000, 2.208333333333332593 ) ) ;
#358 = ORIENTED_EDGE ( 'NONE', *, *, #1059, .F. ) ;
#359 = CARTESIAN_POINT ( 'NONE',  ( -8.166666666666662522, 0.2100000000000000755, 2.500000000000000444 ) ) ;
#360 = DIRECTION ( 'NONE',  ( 1.000000000000000000, 0.000000000000000000, 0.000000000000000000 ) ) ;
#361 = AXIS2_PLACEMENT_3D ( 'NONE', #759, #943, #206 ) ;
#362 = CARTESIAN_POINT ( 'NONE',  ( -8.166666666666664298, 10.50000000000000000, 2.500000000000001776 ) ) ;
#363 = DIRECTION ( 'NONE',  ( 1.000000000000000000, 0.000000000000000000, 0.000000000000000000 ) ) ;
#364 = ORIENTED_EDGE ( 'NONE', *, *, #925, .T. ) ;
#365 = ADVANCED_FACE ( 'NONE', ( #824 ), #818, .T. ) ;
#366 = AXIS2_PLACEMENT_3D ( 'NONE', #398, #323, #691 ) ;
#367 = CARTESIAN_POINT ( 'NONE',  ( 7.500000000000000000, 0.2100000000000097344, 0.000000000000000000 ) ) ;
#368 = DIRECTION ( 'NONE',  ( -0.000000000000000000, -1.486905836551549079E-15, -1.000000000000000000 ) ) ;
#369 = DIRECTION ( 'NONE',  ( 0.000000000000000000, -1.000000000000000000, 0.000000000000000000 ) ) ;
#370 = CARTESIAN_POINT ( 'NONE',  ( 8.166666666666671404, 0.000000000000000000, 2.208333333333332149 ) ) ;
#371 = EDGE_LOOP ( 'NONE', ( #1077, #127, #508, #827 ) ) ;
#372 = VERTEX_POINT ( 'NONE', #433 ) ;
#373 = CARTESIAN_POINT ( 'NONE',  ( -5.666666666666661634, 0.000000000000000000, -2.208333333333333481 ) ) ;
#374 = DIRECTION ( 'NONE',  ( 1.000000000000000000, 1.219727444046192981E-16, 0.000000000000000000 ) ) ;
#375 = DIRECTION ( 'NONE',  ( 1.029992063861228226E-15, -1.000000000000000000, 0.000000000000000000 ) ) ;
#376 = VERTEX_POINT ( 'NONE', #531 ) ;
#377 = EDGE_CURVE ( 'NONE', #1172, #982, #934, .T. ) ;
#378 = VERTEX_POINT ( 'NONE', #178 ) ;
#379 = VECTOR ( 'NONE', #1020, 1000.000000000000000 ) ;
#380 = FACE_OUTER_BOUND ( 'NONE', #474, .T. ) ;
#381 = CYLINDRICAL_SURFACE ( 'NONE', #442, 0.5833333333333332593 ) ;
#382 = ORIENTED_EDGE ( 'NONE', *, *, #6, .T. ) ;
#383 = ADVANCED_BREP_SHAPE_REPRESENTATION ( 'ECWFE2J104J', ( #681, #669, #275, #33 ), #1125 ) ;
#384 = ORIENTED_EDGE ( 'NONE', *, *, #403, .F. ) ;
#385 = VECTOR ( 'NONE', #899, 1000.000000000000000 ) ;
#386 = CARTESIAN_POINT ( 'NONE',  ( 8.166666666666671404, 0.2100000000000021294, -2.500000000000001332 ) ) ;
#387 = COLOUR_RGB ( '',0.7921568627450980005, 0.8196078431372548767, 0.9333333333333333481 ) ;
#388 = DIRECTION ( 'NONE',  ( 0.000000000000000000, -1.000000000000000000, 0.000000000000000000 ) ) ;
#389 = ORIENTED_EDGE ( 'NONE', *, *, #415, .T. ) ;
#390 = VERTEX_POINT ( 'NONE', #550 ) ;
#391 = CYLINDRICAL_SURFACE ( 'NONE', #421, 0.5833333333333332593 ) ;
#392 = EDGE_CURVE ( 'NONE', #1080, #785, #330, .T. ) ;
#393 = DIRECTION ( 'NONE',  ( 1.000000000000000000, 0.000000000000000000, 0.000000000000000000 ) ) ;
#394 = ORIENTED_EDGE ( 'NONE', *, *, #159, .T. ) ;
#395 = ORIENTED_EDGE ( 'NONE', *, *, #1181, .F. ) ;
#396 = PRODUCT ( 'ECWFE2J104J', 'ECWFE2J104J', '', ( #1166 ) ) ;
#397 = EDGE_CURVE ( 'NONE', #853, #1080, #1035, .T. ) ;
#398 = CARTESIAN_POINT ( 'NONE',  ( 8.166666666666671404, 0.2100000000000018519, -1.916666666666668073 ) ) ;
#399 = ORIENTED_EDGE ( 'NONE', *, *, #751, .F. ) ;
#400 = VECTOR ( 'NONE', #51, 1000.000000000000000 ) ;
#401 = PRESENTATION_LAYER_ASSIGNMENT (  '', '', ( #1086 ) ) ;
#402 =( GEOMETRIC_REPRESENTATION_CONTEXT ( 3 ) GLOBAL_UNCERTAINTY_ASSIGNED_CONTEXT ( ( #588 ) ) GLOBAL_UNIT_ASSIGNED_CONTEXT ( ( #409, #520, #414 ) ) REPRESENTATION_CONTEXT ( 'NONE', 'WORKASPACE' ) );
#403 = EDGE_CURVE ( 'NONE', #299, #896, #302, .T. ) ;
#404 = SURFACE_STYLE_USAGE ( .BOTH. , #684 ) ;
#405 = ADVANCED_FACE ( 'NONE', ( #118 ), #858, .F. ) ;
#406 = VECTOR ( 'NONE', #182, 1000.000000000000000 ) ;
#407 = VECTOR ( 'NONE', #939, 1000.000000000000000 ) ;
#408 = VERTEX_POINT ( 'NONE', #298 ) ;
#409 =( LENGTH_UNIT ( ) NAMED_UNIT ( * ) SI_UNIT ( .MILLI., .METRE. ) );
#410 = EDGE_CURVE ( 'NONE', #116, #646, #1053, .T. ) ;
#411 = LINE ( 'NONE', #40, #71 ) ;
#412 = CARTESIAN_POINT ( 'NONE',  ( 8.750000000000003553, 9.916666666666667851, 1.916666666666666075 ) ) ;
#413 = VERTEX_POINT ( 'NONE', #1140 ) ;
#414 =( NAMED_UNIT ( * ) SI_UNIT ( $, .STERADIAN. ) SOLID_ANGLE_UNIT ( ) );
#415 = EDGE_CURVE ( 'NONE', #1107, #376, #679, .T. ) ;
#416 = CARTESIAN_POINT ( 'NONE',  ( 8.166666666666671404, 9.916666666666667851, 1.916666666666665853 ) ) ;
#417 = DIRECTION ( 'NONE',  ( 1.000000000000000000, 0.000000000000000000, 0.000000000000000000 ) ) ;
#418 = ORIENTED_EDGE ( 'NONE', *, *, #925, .F. ) ;
#419 = ORIENTED_EDGE ( 'NONE', *, *, #1135, .T. ) ;
#420 = LINE ( 'NONE', #1163, #34 ) ;
#421 = AXIS2_PLACEMENT_3D ( 'NONE', #488, #849, #219 ) ;
#422 = DIRECTION ( 'NONE',  ( -0.000000000000000000, 0.000000000000000000, 1.000000000000000000 ) ) ;
#423 = AXIS2_PLACEMENT_3D ( 'NONE', #489, #839, #740 ) ;
#424 = CARTESIAN_POINT ( 'NONE',  ( 8.166666666666671404, 0.000000000000000000, -2.208333333333333481 ) ) ;
#425 = DIRECTION ( 'NONE',  ( 0.000000000000000000, 0.000000000000000000, -1.000000000000000000 ) ) ;
#426 = DIRECTION ( 'NONE',  ( -2.323290369611788595E-16, 1.000000000000000000, -0.000000000000000000 ) ) ;
#427 = SURFACE_STYLE_FILL_AREA ( #500 ) ;
#428 = ORIENTED_EDGE ( 'NONE', *, *, #1171, .T. ) ;
#429 = DIRECTION ( 'NONE',  ( -1.000000000000000000, 0.000000000000000000, 1.734723475976807094E-16 ) ) ;
#430 = DIRECTION ( 'NONE',  ( -1.000000000000000000, 0.000000000000000000, 0.000000000000000000 ) ) ;
#431 = EDGE_CURVE ( 'NONE', #289, #805, #185, .T. ) ;
#432 = EDGE_LOOP ( 'NONE', ( #503, #273, #449, #848 ) ) ;
#433 = CARTESIAN_POINT ( 'NONE',  ( -8.749999999999998224, 0.2099999999999999922, -1.916666666666664298 ) ) ;
#434 = DIRECTION ( 'NONE',  ( 1.029992063861228226E-15, -1.000000000000000000, 0.000000000000000000 ) ) ;
#435 = LINE ( 'NONE', #734, #165 ) ;
#436 = AXIS2_PLACEMENT_3D ( 'NONE', #314, #321, #1079 ) ;
#437 = ADVANCED_FACE ( 'NONE', ( #672 ), #197, .T. ) ;
#438 = VECTOR ( 'NONE', #986, 1000.000000000000000 ) ;
#439 = LINE ( 'NONE', #373, #129 ) ;
#440 = ORIENTED_EDGE ( 'NONE', *, *, #746, .T. ) ;
#441 = LINE ( 'NONE', #723, #685 ) ;
#442 = AXIS2_PLACEMENT_3D ( 'NONE', #755, #1130, #202 ) ;
#443 = CYLINDRICAL_SURFACE ( 'NONE', #56, 0.2999999999999999334 ) ;
#444 = DIRECTION ( 'NONE',  ( 1.000000000000000000, 0.000000000000000000, -0.000000000000000000 ) ) ;
#445 = ADVANCED_FACE ( 'NONE', ( #565 ), #949, .F. ) ;
#446 = DIRECTION ( 'NONE',  ( 0.000000000000000000, 1.000000000000000000, -1.486905836551549079E-15 ) ) ;
#447 = LINE ( 'NONE', #817, #463 ) ;
#448 = DIRECTION ( 'NONE',  ( -0.000000000000000000, -0.000000000000000000, 1.000000000000000000 ) ) ;
#449 = ORIENTED_EDGE ( 'NONE', *, *, #1052, .T. ) ;
#450 = DIRECTION ( 'NONE',  ( -1.000000000000000000, -9.938519914450458627E-16, 0.000000000000000000 ) ) ;
#451 = CARTESIAN_POINT ( 'NONE',  ( -8.166666666666664298, 9.916666666666667851, 1.916666666666668517 ) ) ;
#452 = DIRECTION ( 'NONE',  ( -0.000000000000000000, 1.000000000000000000, -0.000000000000000000 ) ) ;
#453 = DIRECTION ( 'NONE',  ( -0.000000000000000000, 1.000000000000000000, 0.000000000000000000 ) ) ;
#454 = EDGE_CURVE ( 'NONE', #592, #390, #1204, .T. ) ;
#455 = EDGE_LOOP ( 'NONE', ( #1161, #566, #312, #530 ) ) ;
#456 = CARTESIAN_POINT ( 'NONE',  ( 8.750000000000003553, 9.916666666666667851, -2.500000000000001332 ) ) ;
#457 = FACE_OUTER_BOUND ( 'NONE', #846, .T. ) ;
#458 = VECTOR ( 'NONE', #430, 1000.000000000000000 ) ;
#459 = DIRECTION ( 'NONE',  ( -0.000000000000000000, 0.000000000000000000, 1.000000000000000000 ) ) ;
#460 = SURFACE_STYLE_FILL_AREA ( #962 ) ;
#461 = VECTOR ( 'NONE', #778, 1000.000000000000000 ) ;
#462 = ORIENTED_EDGE ( 'NONE', *, *, #159, .F. ) ;
#463 = VECTOR ( 'NONE', #644, 1000.000000000000000 ) ;
#464 = ORIENTED_EDGE ( 'NONE', *, *, #874, .F. ) ;
#465 = VECTOR ( 'NONE', #139, 1000.000000000000000 ) ;
#466 = CARTESIAN_POINT ( 'NONE',  ( 8.166666666666671404, 0.2100000000000021294, -2.500000000000001332 ) ) ;
#467 = CARTESIAN_POINT ( 'NONE',  ( 7.200000000000000178, 0.2100000000000094291, 0.000000000000000000 ) ) ;
#468 = CARTESIAN_POINT ( 'NONE',  ( -7.500000000000000000, 0.2099999999999943023, 0.000000000000000000 ) ) ;
#469 = ORIENTED_EDGE ( 'NONE', *, *, #620, .T. ) ;
#470 = ORIENTED_EDGE ( 'NONE', *, *, #833, .F. ) ;
#471 = DIRECTION ( 'NONE',  ( -0.000000000000000000, 1.000000000000000000, -0.000000000000000000 ) ) ;
#472 = CARTESIAN_POINT ( 'NONE',  ( 8.166666666666671404, 10.50000000000000000, 1.916666666666666075 ) ) ;
#473 = CARTESIAN_POINT ( 'NONE',  ( 5.666666666666665186, 0.000000000000000000, 2.208333333333332149 ) ) ;
#474 = EDGE_LOOP ( 'NONE', ( #364, #7, #878, #1118 ) ) ;
#475 = ORIENTED_EDGE ( 'NONE', *, *, #709, .F. ) ;
#476 = FILL_AREA_STYLE ('',( #683 ) ) ;
#477 = AXIS2_PLACEMENT_3D ( 'NONE', #892, #788, #417 ) ;
#478 = LINE ( 'NONE', #569, #1111 ) ;
#479 = COLOUR_RGB ( '',0.7921568627450980005, 0.8196078431372548767, 0.9333333333333333481 ) ;
#480 = ORIENTED_EDGE ( 'NONE', *, *, #631, .F. ) ;
#481 = ORIENTED_EDGE ( 'NONE', *, *, #10, .T. ) ;
#482 = LINE ( 'NONE', #1144, #906 ) ;
#483 = AXIS2_PLACEMENT_3D ( 'NONE', #634, #660, #529 ) ;
#484 = DIRECTION ( 'NONE',  ( 1.000000000000000000, 0.000000000000000000, -0.000000000000000000 ) ) ;
#485 = ORIENTED_EDGE ( 'NONE', *, *, #329, .F. ) ;
#486 = VERTEX_POINT ( 'NONE', #1117 ) ;
#487 = EDGE_CURVE ( 'NONE', #1060, #577, #1136, .T. ) ;
#488 = CARTESIAN_POINT ( 'NONE',  ( -8.166666666666664298, 10.50000000000000000, -1.916666666666664076 ) ) ;
#489 = CARTESIAN_POINT ( 'NONE',  ( 0.000000000000000000, 0.000000000000000000, 0.000000000000000000 ) ) ;
#490 = ORIENTED_EDGE ( 'NONE', *, *, #16, .T. ) ;
#491 = EDGE_CURVE ( 'NONE', #154, #592, #148, .T. ) ;
#492 = EDGE_CURVE ( 'NONE', #832, #919, #944, .T. ) ;
#493 = UNCERTAINTY_MEASURE_WITH_UNIT (LENGTH_MEASURE( 1.000000000000000082E-05 ), #131, 'distance_accuracy_value', 'NONE');
#494 = DIRECTION ( 'NONE',  ( -0.000000000000000000, 1.000000000000000000, -0.000000000000000000 ) ) ;
#495 = SPHERICAL_SURFACE ( 'NONE', #562, 0.5833333333333333703 ) ;
#496 = VECTOR ( 'NONE', #1066, 1000.000000000000000 ) ;
#497 = VERTEX_POINT ( 'NONE', #107 ) ;
#498 = DIRECTION ( 'NONE',  ( 1.000000000000000000, 0.000000000000000000, 0.000000000000000000 ) ) ;
#499 = CARTESIAN_POINT ( 'NONE',  ( 0.000000000000000000, 10.50000000000000000, 0.000000000000000000 ) ) ;
#500 = FILL_AREA_STYLE ('',( #41 ) ) ;
#501 = VECTOR ( 'NONE', #156, 1000.000000000000000 ) ;
#502 = LINE ( 'NONE', #226, #461 ) ;
#503 = ORIENTED_EDGE ( 'NONE', *, *, #1021, .T. ) ;
#504 = ADVANCED_FACE ( 'NONE', ( #1042 ), #5, .F. ) ;
#505 = DIRECTION ( 'NONE',  ( 0.000000000000000000, 0.000000000000000000, -1.000000000000000000 ) ) ;
#506 = CARTESIAN_POINT ( 'NONE',  ( 7.800000000000020250, -20.00000000000000000, 3.673940397442190153E-17 ) ) ;
#507 = VERTEX_POINT ( 'NONE', #12 ) ;
#508 = ORIENTED_EDGE ( 'NONE', *, *, #886, .T. ) ;
#509 = DIRECTION ( 'NONE',  ( -1.000000000000000000, -0.000000000000000000, 1.486905836551549079E-16 ) ) ;
#510 = CARTESIAN_POINT ( 'NONE',  ( -8.166666666666662522, 0.000000000000000000, -2.500000000000001332 ) ) ;
#511 = LINE ( 'NONE', #1075, #438 ) ;
#512 = ADVANCED_FACE ( 'NONE', ( #932 ), #381, .T. ) ;
#513 = CARTESIAN_POINT ( 'NONE',  ( -7.500000000000000000, 0.2099999999999943023, 0.000000000000000000 ) ) ;
#514 = VECTOR ( 'NONE', #1180, 1000.000000000000000 ) ;
#515 = EDGE_CURVE ( 'NONE', #378, #1047, #478, .T. ) ;
#516 = CYLINDRICAL_SURFACE ( 'NONE', #1124, 0.5833333333333332593 ) ;
#517 = CARTESIAN_POINT ( 'NONE',  ( -8.749999999999998224, 0.2099999999999999922, -2.500000000000001332 ) ) ;
#518 = AXIS2_PLACEMENT_3D ( 'NONE', #798, #1168, #786 ) ;
#519 = ORIENTED_EDGE ( 'NONE', *, *, #999, .T. ) ;
#520 =( NAMED_UNIT ( * ) PLANE_ANGLE_UNIT ( ) SI_UNIT ( $, .RADIAN. ) );
#521 = DIRECTION ( 'NONE',  ( 0.000000000000000000, -0.000000000000000000, 1.000000000000000000 ) ) ;
#522 = ADVANCED_FACE ( 'NONE', ( #851 ), #1058, .F. ) ;
#523 = EDGE_LOOP ( 'NONE', ( #675, #883 ) ) ;
#524 = DIRECTION ( 'NONE',  ( 1.000000000000000000, 0.000000000000000000, -0.000000000000000000 ) ) ;
#525 = EDGE_CURVE ( 'NONE', #840, #234, #307, .T. ) ;
#526 = CARTESIAN_POINT ( 'NONE',  ( -7.500000000000000000, 0.2099999999999943023, 0.000000000000000000 ) ) ;
#527 = DIRECTION ( 'NONE',  ( 0.000000000000000000, -1.000000000000000000, 0.000000000000000000 ) ) ;
#528 = LINE ( 'NONE', #648, #611 ) ;
#529 = DIRECTION ( 'NONE',  ( 0.000000000000000000, 0.000000000000000000, -1.000000000000000000 ) ) ;
#530 = ORIENTED_EDGE ( 'NONE', *, *, #189, .F. ) ;
#531 = CARTESIAN_POINT ( 'NONE',  ( 5.666666666666665186, 0.2100000000000013523, -2.208333333333333481 ) ) ;
#532 = EDGE_CURVE ( 'NONE', #1060, #853, #894, .T. ) ;
#533 = DIRECTION ( 'NONE',  ( 1.734723475976807341E-16, -0.000000000000000000, 1.000000000000000000 ) ) ;
#534 = AXIS2_PLACEMENT_3D ( 'NONE', #3, #368, #446 ) ;
#535 = PLANE ( 'NONE',  #31 ) ;
#536 = ORIENTED_EDGE ( 'NONE', *, *, #109, .T. ) ;
#537 = LINE ( 'NONE', #357, #640 ) ;
#538 = AXIS2_PLACEMENT_3D ( 'NONE', #249, #621, #162 ) ;
#539 = AXIS2_PLACEMENT_3D ( 'NONE', #582, #18, #650 ) ;
#540 = EDGE_CURVE ( 'NONE', #687, #378, #877, .T. ) ;
#541 = ORIENTED_EDGE ( 'NONE', *, *, #616, .T. ) ;
#542 = CARTESIAN_POINT ( 'NONE',  ( -5.666666666666661634, 0.2099999999999999922, 2.500000000000000444 ) ) ;
#543 = DIRECTION ( 'NONE',  ( 0.000000000000000000, 1.000000000000000000, 0.000000000000000000 ) ) ;
#544 = DIRECTION ( 'NONE',  ( 0.000000000000000000, 1.000000000000000000, -0.000000000000000000 ) ) ;
#545 = ORIENTED_EDGE ( 'NONE', *, *, #63, .F. ) ;
#546 = SHAPE_DEFINITION_REPRESENTATION ( #216, #383 ) ;
#547 = LINE ( 'NONE', #1019, #97 ) ;
#548 = DIRECTION ( 'NONE',  ( 0.000000000000000000, 0.000000000000000000, -1.000000000000000000 ) ) ;
#549 = DIRECTION ( 'NONE',  ( 0.000000000000000000, 0.000000000000000000, -1.000000000000000000 ) ) ;
#550 = CARTESIAN_POINT ( 'NONE',  ( -7.200000000000000178, 0.2099999999999945799, 3.673940397442061963E-17 ) ) ;
#551 = ORIENTED_EDGE ( 'NONE', *, *, #293, .T. ) ;
#552 = VERTEX_POINT ( 'NONE', #959 ) ;
#553 = FACE_OUTER_BOUND ( 'NONE', #210, .T. ) ;
#554 = CARTESIAN_POINT ( 'NONE',  ( 5.666666666666665186, 0.2100000000000013523, 2.500000000000000444 ) ) ;
#555 = AXIS2_PLACEMENT_3D ( 'NONE', #353, #724, #902 ) ;
#556 = CARTESIAN_POINT ( 'NONE',  ( -8.166666666666666075, 0.000000000000000000, 2.208333333333332593 ) ) ;
#557 = DIRECTION ( 'NONE',  ( 0.000000000000000000, 0.000000000000000000, 1.000000000000000000 ) ) ;
#558 = STYLED_ITEM ( 'NONE', ( #563 ), #681 ) ;
#559 = ORIENTED_EDGE ( 'NONE', *, *, #487, .T. ) ;
#560 = CIRCLE ( 'NONE', #292, 0.2999999999999999334 ) ;
#561 = ORIENTED_EDGE ( 'NONE', *, *, #318, .T. ) ;
#562 = AXIS2_PLACEMENT_3D ( 'NONE', #604, #889, #1081 ) ;
#563 = PRESENTATION_STYLE_ASSIGNMENT (( #579 ) ) ;
#564 = LINE ( 'NONE', #1129, #134 ) ;
#565 = FACE_OUTER_BOUND ( 'NONE', #859, .T. ) ;
#566 = ORIENTED_EDGE ( 'NONE', *, *, #751, .T. ) ;
#567 = ORIENTED_EDGE ( 'NONE', *, *, #857, .F. ) ;
#568 =( NAMED_UNIT ( * ) PLANE_ANGLE_UNIT ( ) SI_UNIT ( $, .RADIAN. ) );
#569 = CARTESIAN_POINT ( 'NONE',  ( -8.749999999999998224, 0.2100000000000021294, -2.208333333333333481 ) ) ;
#570 = ADVANCED_FACE ( 'NONE', ( #696 ), #590, .F. ) ;
#571 = ORIENTED_EDGE ( 'NONE', *, *, #515, .T. ) ;
#572 = ADVANCED_FACE ( 'NONE', ( #1147 ), #869, .T. ) ;
#573 = EDGE_LOOP ( 'NONE', ( #719, #69, #272, #825 ) ) ;
#574 = CARTESIAN_POINT ( 'NONE',  ( -5.666666666666661634, 0.000000000000000000, -2.500000000000001332 ) ) ;
#575 = AXIS2_PLACEMENT_3D ( 'NONE', #499, #782, #891 ) ;
#576 = DIRECTION ( 'NONE',  ( -0.000000000000000000, -1.000000000000000000, -0.000000000000000000 ) ) ;
#577 = VERTEX_POINT ( 'NONE', #317 ) ;
#578 = ORIENTED_EDGE ( 'NONE', *, *, #59, .T. ) ;
#579 = SURFACE_STYLE_USAGE ( .BOTH. , #1139 ) ;
#580 = VECTOR ( 'NONE', #248, 1000.000000000000000 ) ;
#581 = EDGE_CURVE ( 'NONE', #552, #26, #502, .T. ) ;
#582 = CARTESIAN_POINT ( 'NONE',  ( -8.166666666666664298, 9.916666666666667851, -1.916666666666664964 ) ) ;
#583 = ORIENTED_EDGE ( 'NONE', *, *, #392, .F. ) ;
#584 = CARTESIAN_POINT ( 'NONE',  ( -8.166666666666666075, 10.50000000000000000, -2.499999999999998224 ) ) ;
#585 = DIRECTION ( 'NONE',  ( 1.000000000000000000, 2.323290369611795497E-16, 1.858632295689436398E-15 ) ) ;
#586 = ORIENTED_EDGE ( 'NONE', *, *, #728, .T. ) ;
#587 = PLANE ( 'NONE',  #594 ) ;
#588 = UNCERTAINTY_MEASURE_WITH_UNIT (LENGTH_MEASURE( 1.000000000000000082E-05 ), #409, 'distance_accuracy_value', 'NONE');
#589 = CARTESIAN_POINT ( 'NONE',  ( -8.166666666666662522, 10.50000000000000000, 1.916666666666668517 ) ) ;
#590 = PLANE ( 'NONE',  #991 ) ;
#591 = VECTOR ( 'NONE', #804, 1000.000000000000000 ) ;
#592 = VERTEX_POINT ( 'NONE', #126 ) ;
#593 = SURFACE_STYLE_USAGE ( .BOTH. , #609 ) ;
#594 = AXIS2_PLACEMENT_3D ( 'NONE', #879, #325, #425 ) ;
#595 = CYLINDRICAL_SURFACE ( 'NONE', #92, 0.2999999999999999334 ) ;
#596 = CIRCLE ( 'NONE', #151, 0.3000000000000000999 ) ;
#597 = STYLED_ITEM ( 'NONE', ( #806 ), #275 ) ;
#598 = EDGE_LOOP ( 'NONE', ( #583, #941, #20, #625 ) ) ;
#599 = CARTESIAN_POINT ( 'NONE',  ( -8.749999999999998224, 9.916666666666667851, -1.916666666666664076 ) ) ;
#600 = DIRECTION ( 'NONE',  ( -1.029992063861228226E-15, 1.000000000000000000, -0.000000000000000000 ) ) ;
#601 = DIRECTION ( 'NONE',  ( -0.000000000000000000, -0.000000000000000000, 1.000000000000000000 ) ) ;
#602 = VERTEX_POINT ( 'NONE', #412 ) ;
#603 = ORIENTED_EDGE ( 'NONE', *, *, #122, .T. ) ;
#604 = CARTESIAN_POINT ( 'NONE',  ( 8.166666666666671404, 9.916666666666667851, -1.916666666666668073 ) ) ;
#605 = ADVANCED_FACE ( 'NONE', ( #1151 ), #495, .T. ) ;
#606 = PLANE ( 'NONE',  #340 ) ;
#607 = FACE_OUTER_BOUND ( 'NONE', #935, .T. ) ;
#608 = ORIENTED_EDGE ( 'NONE', *, *, #88, .F. ) ;
#609 = SURFACE_SIDE_STYLE ('',( #144 ) ) ;
#610 = ADVANCED_FACE ( 'NONE', ( #784 ), #897, .F. ) ;
#611 = VECTOR ( 'NONE', #349, 1000.000000000000000 ) ;
#612 = PLANE ( 'NONE',  #436 ) ;
#613 = COLOUR_RGB ( '',0.7921568627450980005, 0.8196078431372548767, 0.9333333333333333481 ) ;
#614 = CIRCLE ( 'NONE', #1110, 0.2999999999999999334 ) ;
#615 = EDGE_CURVE ( 'NONE', #552, #1060, #55, .T. ) ;
#616 = EDGE_CURVE ( 'NONE', #1024, #486, #1078, .T. ) ;
#617 = AXIS2_PLACEMENT_3D ( 'NONE', #73, #453, #712 ) ;
#618 = EDGE_LOOP ( 'NONE', ( #561, #389, #651, #819 ) ) ;
#619 = CARTESIAN_POINT ( 'NONE',  ( -8.166666666666662522, 10.50000000000000000, 2.500000000000001776 ) ) ;
#620 = EDGE_CURVE ( 'NONE', #408, #376, #693, .T. ) ;
#621 = DIRECTION ( 'NONE',  ( 0.000000000000000000, 1.000000000000000000, 0.000000000000000000 ) ) ;
#622 = CARTESIAN_POINT ( 'NONE',  ( 8.750000000000003553, 0.000000000000000000, -2.500000000000001332 ) ) ;
#623 = CARTESIAN_POINT ( 'NONE',  ( -8.749999999999998224, 9.916666666666667851, 1.916666666666668517 ) ) ;
#624 = ADVANCED_FACE ( 'NONE', ( #803 ), #990, .T. ) ;
#625 = ORIENTED_EDGE ( 'NONE', *, *, #652, .F. ) ;
#626 = CYLINDRICAL_SURFACE ( 'NONE', #214, 0.2999999999999999334 ) ;
#627 = DIRECTION ( 'NONE',  ( 1.000000000000000000, 9.938519914450458627E-16, 0.000000000000000000 ) ) ;
#628 = DIRECTION ( 'NONE',  ( 0.000000000000000000, 0.000000000000000000, -1.000000000000000000 ) ) ;
#629 = ORIENTED_EDGE ( 'NONE', *, *, #615, .F. ) ;
#630 = DIRECTION ( 'NONE',  ( -1.000000000000000000, -9.938519914450458627E-16, 0.000000000000000000 ) ) ;
#631 = EDGE_CURVE ( 'NONE', #552, #871, #61, .T. ) ;
#632 = VERTEX_POINT ( 'NONE', #128 ) ;
#633 =( NAMED_UNIT ( * ) PLANE_ANGLE_UNIT ( ) SI_UNIT ( $, .RADIAN. ) );
#634 = CARTESIAN_POINT ( 'NONE',  ( 8.166666666666671404, 9.916666666666667851, -1.916666666666668073 ) ) ;
#635 = LINE ( 'NONE', #1099, #458 ) ;
#636 = AXIS2_PLACEMENT_3D ( 'NONE', #1100, #276, #630 ) ;
#637 = DIRECTION ( 'NONE',  ( 1.000000000000000000, 2.973811673103098158E-15, -0.000000000000000000 ) ) ;
#638 = CARTESIAN_POINT ( 'NONE',  ( 8.166666666666671404, 9.916666666666667851, -1.916666666666668073 ) ) ;
#639 = LINE ( 'NONE', #270, #580 ) ;
#640 = VECTOR ( 'NONE', #524, 1000.000000000000000 ) ;
#641 = EDGE_LOOP ( 'NONE', ( #418, #1017, #772, #95 ) ) ;
#642 = PRODUCT_DEFINITION ( 'UNKNOWN', '', #166, #774 ) ;
#643 = LINE ( 'NONE', #916, #850 ) ;
#644 = DIRECTION ( 'NONE',  ( -0.000000000000000000, -0.000000000000000000, 1.000000000000000000 ) ) ;
#645 = LINE ( 'NONE', #619, #19 ) ;
#646 = VERTEX_POINT ( 'NONE', #599 ) ;
#647 = ORIENTED_EDGE ( 'NONE', *, *, #525, .F. ) ;
#648 = CARTESIAN_POINT ( 'NONE',  ( -8.166666666666662522, 0.000000000000000000, -2.500000000000001332 ) ) ;
#649 = DIRECTION ( 'NONE',  ( -0.000000000000000000, -0.000000000000000000, 1.000000000000000000 ) ) ;
#650 = DIRECTION ( 'NONE',  ( 0.000000000000000000, 0.000000000000000000, 1.000000000000000000 ) ) ;
#651 = ORIENTED_EDGE ( 'NONE', *, *, #620, .F. ) ;
#652 = EDGE_CURVE ( 'NONE', #785, #1024, #38, .T. ) ;
#653 = EDGE_LOOP ( 'NONE', ( #475, #960, #1185, #559 ) ) ;
#654 = LINE ( 'NONE', #192, #1049 ) ;
#655 = CIRCLE ( 'NONE', #1197, 0.5833333333333332593 ) ;
#656 = FACE_OUTER_BOUND ( 'NONE', #255, .T. ) ;
#657 = CARTESIAN_POINT ( 'NONE',  ( 8.750000000000000000, 0.2100000000000021294, -2.500000000000001332 ) ) ;
#658 = ADVANCED_FACE ( 'NONE', ( #49 ), #587, .T. ) ;
#659 = ORIENTED_EDGE ( 'NONE', *, *, #25, .T. ) ;
#660 = DIRECTION ( 'NONE',  ( 1.000000000000000000, -0.000000000000000000, 0.000000000000000000 ) ) ;
#661 = AXIS2_PLACEMENT_3D ( 'NONE', #513, #888, #54 ) ;
#662 = ORIENTED_EDGE ( 'NONE', *, *, #322, .F. ) ;
#663 = AXIS2_PLACEMENT_3D ( 'NONE', #1045, #213, #484 ) ;
#664 = CARTESIAN_POINT ( 'NONE',  ( 5.666666666666665186, 0.000000000000000000, 2.500000000000000444 ) ) ;
#665 = ADVANCED_FACE ( 'NONE', ( #961 ), #703, .T. ) ;
#666 = DIRECTION ( 'NONE',  ( -1.000000000000000000, 0.000000000000000000, 0.000000000000000000 ) ) ;
#667 = DIRECTION ( 'NONE',  ( 1.000000000000000000, 1.029992063861228226E-15, 0.000000000000000000 ) ) ;
#668 = ORIENTED_EDGE ( 'NONE', *, *, #492, .F. ) ;
#669 = MANIFOLD_SOLID_BREP ( 'Boss-Extrude2[1]', #36 ) ;
#670 = EDGE_LOOP ( 'NONE', ( #1039, #1091, #692, #942 ) ) ;
#671 = DIRECTION ( 'NONE',  ( 0.000000000000000000, 1.000000000000000000, 0.000000000000000000 ) ) ;
#672 = FACE_OUTER_BOUND ( 'NONE', #758, .T. ) ;
#673 = EDGE_CURVE ( 'NONE', #919, #205, #420, .T. ) ;
#674 = VERTEX_POINT ( 'NONE', #1173 ) ;
#675 = ORIENTED_EDGE ( 'NONE', *, *, #25, .F. ) ;
#676 = EDGE_CURVE ( 'NONE', #116, #21, #1087, .T. ) ;
#677 = LINE ( 'NONE', #17, #1128 ) ;
#678 = VECTOR ( 'NONE', #1048, 1000.000000000000000 ) ;
#679 = LINE ( 'NONE', #748, #99 ) ;
#680 = VERTEX_POINT ( 'NONE', #1120 ) ;
#681 = MANIFOLD_SOLID_BREP ( 'Cut-Extrude2', #911 ) ;
#682 = ORIENTED_EDGE ( 'NONE', *, *, #676, .F. ) ;
#683 = FILL_AREA_STYLE_COLOUR ( '', #811 ) ;
#684 = SURFACE_SIDE_STYLE ('',( #427 ) ) ;
#685 = VECTOR ( 'NONE', #448, 1000.000000000000000 ) ;
#686 = CARTESIAN_POINT ( 'NONE',  ( -8.166666666666662522, 0.2100000000000000755, -2.500000000000001332 ) ) ;
#687 = VERTEX_POINT ( 'NONE', #1134 ) ;
#688 = DIRECTION ( 'NONE',  ( 1.000000000000000000, -0.000000000000000000, 0.000000000000000000 ) ) ;
#689 = CARTESIAN_POINT ( 'NONE',  ( -7.499999999999957367, -40.84852813742386957, 0.000000000000000000 ) ) ;
#690 = LINE ( 'NONE', #517, #733 ) ;
#691 = DIRECTION ( 'NONE',  ( 0.000000000000000000, 0.000000000000000000, 1.000000000000000000 ) ) ;
#692 = ORIENTED_EDGE ( 'NONE', *, *, #415, .F. ) ;
#693 = LINE ( 'NONE', #320, #78 ) ;
#694 = DIRECTION ( 'NONE',  ( 1.000000000000000000, 2.323290369611795497E-16, -7.434529182757745395E-16 ) ) ;
#695 = SPHERICAL_SURFACE ( 'NONE', #477, 0.5833333333333333703 ) ;
#696 = FACE_OUTER_BOUND ( 'NONE', #670, .T. ) ;
#697 = AXIS2_PLACEMENT_3D ( 'NONE', #83, #637, #1013 ) ;
#698 = EDGE_LOOP ( 'NONE', ( #231, #8, #750, #762 ) ) ;
#699 = CARTESIAN_POINT ( 'NONE',  ( -5.666666666666661634, 0.000000000000000000, 2.208333333333332149 ) ) ;
#700 = CARTESIAN_POINT ( 'NONE',  ( 8.750000000000003553, 9.916666666666667851, 2.499999999999999112 ) ) ;
#701 = AXIS2_PLACEMENT_3D ( 'NONE', #968, #863, #1070 ) ;
#702 = LINE ( 'NONE', #350, #193 ) ;
#703 = SPHERICAL_SURFACE ( 'NONE', #246, 0.5833333333333333703 ) ;
#704 = CARTESIAN_POINT ( 'NONE',  ( 7.500000000000020428, -20.00000000000000000, 0.000000000000000000 ) ) ;
#705 =( NAMED_UNIT ( * ) PLANE_ANGLE_UNIT ( ) SI_UNIT ( $, .RADIAN. ) );
#706 = EDGE_LOOP ( 'NONE', ( #989, #1132, #462 ) ) ;
#707 = FILL_AREA_STYLE_COLOUR ( '', #613 ) ;
#708 = CARTESIAN_POINT ( 'NONE',  ( 8.750000000000003553, 0.000000000000000000, 2.499999999999999112 ) ) ;
#709 = EDGE_CURVE ( 'NONE', #26, #577, #30, .T. ) ;
#710 = ADVANCED_FACE ( 'NONE', ( #283 ), #391, .T. ) ;
#711 = LINE ( 'NONE', #331, #385 ) ;
#712 = DIRECTION ( 'NONE',  ( 0.000000000000000000, 0.000000000000000000, 1.000000000000000000 ) ) ;
#713 = CIRCLE ( 'NONE', #534, 0.5833333333333332593 ) ;
#714 = CARTESIAN_POINT ( 'NONE',  ( -8.749999999999998224, -0.2100000000000021294, 2.208333333333332593 ) ) ;
#715 = VECTOR ( 'NONE', #101, 1000.000000000000000 ) ;
#716 = EDGE_LOOP ( 'NONE', ( #257, #977, #763, #855 ) ) ;
#717 = CARTESIAN_POINT ( 'NONE',  ( -7.499999999999957367, -40.84852813742386957, 0.000000000000000000 ) ) ;
#718 = FACE_OUTER_BOUND ( 'NONE', #191, .T. ) ;
#719 = ORIENTED_EDGE ( 'NONE', *, *, #532, .F. ) ;
#720 = EDGE_CURVE ( 'NONE', #674, #408, #677, .T. ) ;
#721 = FACE_OUTER_BOUND ( 'NONE', #716, .T. ) ;
#722 = DIRECTION ( 'NONE',  ( -1.029992063861228226E-15, 1.000000000000000000, -0.000000000000000000 ) ) ;
#723 = CARTESIAN_POINT ( 'NONE',  ( -5.666666666666661634, 0.2099999999999999922, -2.500000000000001332 ) ) ;
#724 = DIRECTION ( 'NONE',  ( 0.000000000000000000, 1.000000000000000000, 0.000000000000000000 ) ) ;
#725 = CARTESIAN_POINT ( 'NONE',  ( -5.666666666666661634, 0.2099999999999999922, -2.500000000000001332 ) ) ;
#726 = CARTESIAN_POINT ( 'NONE',  ( -8.166666666666662522, 0.000000000000000000, 2.500000000000000444 ) ) ;
#727 = CARTESIAN_POINT ( 'NONE',  ( 7.500000000000042633, -40.84852813742386246, 0.000000000000000000 ) ) ;
#728 = EDGE_CURVE ( 'NONE', #896, #497, #752, .T. ) ;
#729 = ORIENTED_EDGE ( 'NONE', *, *, #834, .F. ) ;
#730 = AXIS2_PLACEMENT_3D ( 'NONE', #881, #45, #1158 ) ;
#731 = ORIENTED_EDGE ( 'NONE', *, *, #1143, .F. ) ;
#732 = PLANE ( 'NONE',  #76 ) ;
#733 = VECTOR ( 'NONE', #601, 1000.000000000000000 ) ;
#734 = CARTESIAN_POINT ( 'NONE',  ( 8.750000000000003553, 0.000000000000000000, 2.499999999999999112 ) ) ;
#735 = FACE_OUTER_BOUND ( 'NONE', #432, .T. ) ;
#736 = VECTOR ( 'NONE', #1098, 1000.000000000000000 ) ;
#737 = ORIENTED_EDGE ( 'NONE', *, *, #115, .F. ) ;
#738 = LINE ( 'NONE', #1190, #948 ) ;
#739 = DIRECTION ( 'NONE',  ( 0.000000000000000000, -1.000000000000000000, 0.000000000000000000 ) ) ;
#740 = DIRECTION ( 'NONE',  ( 0.000000000000000000, -0.000000000000000000, 1.000000000000000000 ) ) ;
#741 = EDGE_CURVE ( 'NONE', #632, #234, #482, .T. ) ;
#742 = ORIENTED_EDGE ( 'NONE', *, *, #1056, .T. ) ;
#743 = ORIENTED_EDGE ( 'NONE', *, *, #59, .F. ) ;
#744 = DIRECTION ( 'NONE',  ( 0.000000000000000000, 1.000000000000000000, -0.000000000000000000 ) ) ;
#745 = EDGE_CURVE ( 'NONE', #205, #1012, #308, .T. ) ;
#746 = EDGE_CURVE ( 'NONE', #687, #116, #291, .T. ) ;
#747 = DIRECTION ( 'NONE',  ( 1.000000000000000000, 0.000000000000000000, -0.000000000000000000 ) ) ;
#748 = CARTESIAN_POINT ( 'NONE',  ( 5.666666666666665186, 0.000000000000000000, -2.208333333333333481 ) ) ;
#749 = EDGE_LOOP ( 'NONE', ( #150, #571, #124, #903, #469, #951, #65, #1152, #1076, #297, #399, #1141, #108, #545, #334, #1137, #2, #647, #72, #470 ) ) ;
#750 = ORIENTED_EDGE ( 'NONE', *, *, #673, .T. ) ;
#751 = EDGE_CURVE ( 'NONE', #289, #785, #958, .T. ) ;
#752 = LINE ( 'NONE', #1040, #188 ) ;
#753 = AXIS2_PLACEMENT_3D ( 'NONE', #714, #163, #444 ) ;
#754 = DIRECTION ( 'NONE',  ( -1.000000000000000000, 0.000000000000000000, -0.000000000000000000 ) ) ;
#755 = CARTESIAN_POINT ( 'NONE',  ( -8.166666666666664298, 9.916666666666667851, 0.000000000000000000 ) ) ;
#756 = ORIENTED_EDGE ( 'NONE', *, *, #293, .F. ) ;
#757 = VECTOR ( 'NONE', #544, 1000.000000000000000 ) ;
#758 = EDGE_LOOP ( 'NONE', ( #1200, #1029, #662, #743 ) ) ;
#759 = CARTESIAN_POINT ( 'NONE',  ( 0.000000000000000000, -20.00000000000000000, 0.000000000000000000 ) ) ;
#760 = ADVANCED_FACE ( 'NONE', ( #865 ), #764, .F. ) ;
#761 = CARTESIAN_POINT ( 'NONE',  ( 8.166666666666671404, 0.2100000000000018519, 1.916666666666666075 ) ) ;
#762 = ORIENTED_EDGE ( 'NONE', *, *, #745, .T. ) ;
#763 = ORIENTED_EDGE ( 'NONE', *, *, #189, .T. ) ;
#764 = PLANE ( 'NONE',  #361 ) ;
#765 = CARTESIAN_POINT ( 'NONE',  ( -7.199999999999957545, -40.84852813742386957, 3.673940397442060115E-17 ) ) ;
#766 = ORIENTED_EDGE ( 'NONE', *, *, #1009, .F. ) ;
#767 = PRODUCT_RELATED_PRODUCT_CATEGORY ( 'part', '', ( #396 ) ) ;
#768 = ORIENTED_EDGE ( 'NONE', *, *, #245, .T. ) ;
#769 = CARTESIAN_POINT ( 'NONE',  ( 8.166666666666671404, 0.000000000000000000, -2.208333333333333481 ) ) ;
#770 = AXIS2_PLACEMENT_3D ( 'NONE', #416, #965, #875 ) ;
#771 = CARTESIAN_POINT ( 'NONE',  ( -8.749999999999998224, -0.2100000000000021294, -2.208333333333333481 ) ) ;
#772 = ORIENTED_EDGE ( 'NONE', *, *, #1135, .F. ) ;
#773 = PRESENTATION_LAYER_ASSIGNMENT (  '', '', ( #94 ) ) ;
#774 = PRODUCT_DEFINITION_CONTEXT ( 'detailed design', #870, 'design' ) ;
#775 = CARTESIAN_POINT ( 'NONE',  ( -8.166666666666664298, 0.2100000000000001310, -1.916666666666664076 ) ) ;
#776 = CARTESIAN_POINT ( 'NONE',  ( -8.166666666666666075, 0.000000000000000000, -2.208333333333333481 ) ) ;
#777 = VECTOR ( 'NONE', #509, 1000.000000000000000 ) ;
#778 = DIRECTION ( 'NONE',  ( -0.000000000000000000, -0.000000000000000000, 1.000000000000000000 ) ) ;
#779 = ORIENTED_EDGE ( 'NONE', *, *, #322, .T. ) ;
#780 = CARTESIAN_POINT ( 'NONE',  ( 8.166666666666671404, 9.916666666666667851, 1.916666666666665853 ) ) ;
#781 = EDGE_CURVE ( 'NONE', #1, #113, #856, .T. ) ;
#782 = DIRECTION ( 'NONE',  ( 0.000000000000000000, 1.000000000000000000, 0.000000000000000000 ) ) ;
#783 = DIRECTION ( 'NONE',  ( 1.000000000000000000, 0.000000000000000000, 0.000000000000000000 ) ) ;
#784 = FACE_OUTER_BOUND ( 'NONE', #1133, .T. ) ;
#785 = VERTEX_POINT ( 'NONE', #211 ) ;
#786 = DIRECTION ( 'NONE',  ( -1.000000000000000000, 0.000000000000000000, 1.486905836551549079E-16 ) ) ;
#787 = CARTESIAN_POINT ( 'NONE',  ( -8.166666666666662522, 0.000000000000000000, 2.208333333333332149 ) ) ;
#788 = DIRECTION ( 'NONE',  ( 0.000000000000000000, 1.000000000000000000, 0.000000000000000000 ) ) ;
#789 = EDGE_CURVE ( 'NONE', #982, #1060, #654, .T. ) ;
#790 = ORIENTED_EDGE ( 'NONE', *, *, #979, .T. ) ;
#791 = ORIENTED_EDGE ( 'NONE', *, *, #410, .T. ) ;
#792 = DIRECTION ( 'NONE',  ( 0.000000000000000000, 1.000000000000000000, 0.000000000000000000 ) ) ;
#793 = CARTESIAN_POINT ( 'NONE',  ( 8.166666666666671404, 10.50000000000000000, 1.916666666666665853 ) ) ;
#794 = APPLICATION_PROTOCOL_DEFINITION ( 'draft international standard', 'automotive_design', 1998, #311 ) ;
#795 = VECTOR ( 'NONE', #747, 1000.000000000000000 ) ;
#796 = VECTOR ( 'NONE', #280, 1000.000000000000000 ) ;
#797 = ORIENTED_EDGE ( 'NONE', *, *, #1181, .T. ) ;
#798 = CARTESIAN_POINT ( 'NONE',  ( 8.750000000000003553, 10.50000000000000000, 2.499999999999999112 ) ) ;
#799 = EDGE_CURVE ( 'NONE', #853, #1172, #105, .T. ) ;
#800 = CARTESIAN_POINT ( 'NONE',  ( 5.666666666666665186, 0.2100000000000021294, 2.208333333333332593 ) ) ;
#801 = PLANE ( 'NONE',  #907 ) ;
#802 = ORIENTED_EDGE ( 'NONE', *, *, #232, .T. ) ;
#803 = FACE_OUTER_BOUND ( 'NONE', #455, .T. ) ;
#804 = DIRECTION ( 'NONE',  ( -1.000000000000000000, 0.000000000000000000, 1.734723475976807094E-16 ) ) ;
#805 = VERTEX_POINT ( 'NONE', #9 ) ;
#806 = PRESENTATION_STYLE_ASSIGNMENT (( #1178 ) ) ;
#807 = CIRCLE ( 'NONE', #1145, 0.3000000000000000999 ) ;
#808 = SPHERICAL_SURFACE ( 'NONE', #538, 0.5833333333333333703 ) ;
#809 = FACE_OUTER_BOUND ( 'NONE', #266, .T. ) ;
#810 = ORIENTED_EDGE ( 'NONE', *, *, #728, .F. ) ;
#811 = COLOUR_RGB ( '',0.2509803921568627416, 0.2509803921568627416, 0.2509803921568627416 ) ;
#812 = LINE ( 'NONE', #922, #967 ) ;
#813 = VERTEX_POINT ( 'NONE', #1127 ) ;
#814 = CARTESIAN_POINT ( 'NONE',  ( 5.666666666666665186, 0.000000000000000000, 2.500000000000000444 ) ) ;
#815 = CYLINDRICAL_SURFACE ( 'NONE', #114, 0.5833333333333332593 ) ;
#816 = DIRECTION ( 'NONE',  ( -0.000000000000000000, -0.000000000000000000, 1.000000000000000000 ) ) ;
#817 = CARTESIAN_POINT ( 'NONE',  ( 5.666666666666665186, 0.2100000000000013523, -2.500000000000001332 ) ) ;
#818 = CYLINDRICAL_SURFACE ( 'NONE', #1131, 0.5833333333333332593 ) ;
#819 = ORIENTED_EDGE ( 'NONE', *, *, #10, .F. ) ;
#820 = LINE ( 'NONE', #1108, #406 ) ;
#821 = EDGE_CURVE ( 'NONE', #413, #1177, #200, .T. ) ;
#822 = CARTESIAN_POINT ( 'NONE',  ( 7.500000000000020428, -20.00000000000000000, 0.000000000000000000 ) ) ;
#823 = LINE ( 'NONE', #913, #117 ) ;
#824 = FACE_OUTER_BOUND ( 'NONE', #135, .T. ) ;
#825 = ORIENTED_EDGE ( 'NONE', *, *, #799, .F. ) ;
#826 = VECTOR ( 'NONE', #22, 1000.000000000000000 ) ;
#827 = ORIENTED_EDGE ( 'NONE', *, *, #180, .F. ) ;
#828 = AXIS2_PLACEMENT_3D ( 'NONE', #155, #264, #1186 ) ;
#829 = EDGE_CURVE ( 'NONE', #26, #1107, #64, .T. ) ;
#830 = PLANE ( 'NONE',  #950 ) ;
#831 = MECHANICAL_DESIGN_GEOMETRIC_PRESENTATION_REPRESENTATION (  '', ( #597 ), #39 ) ;
#832 = VERTEX_POINT ( 'NONE', #800 ) ;
#833 = EDGE_CURVE ( 'NONE', #687, #372, #1030, .T. ) ;
#834 = EDGE_CURVE ( 'NONE', #1162, #1182, #262, .T. ) ;
#835 = ORIENTED_EDGE ( 'NONE', *, *, #16, .F. ) ;
#836 = ADVANCED_FACE ( 'NONE', ( #1062 ), #141, .T. ) ;
#837 = DIRECTION ( 'NONE',  ( 0.000000000000000000, 1.000000000000000000, 0.000000000000000000 ) ) ;
#838 = LINE ( 'NONE', #4, #795 ) ;
#839 = DIRECTION ( 'NONE',  ( 0.000000000000000000, 1.000000000000000000, 0.000000000000000000 ) ) ;
#840 = VERTEX_POINT ( 'NONE', #236 ) ;
#841 = ADVANCED_FACE ( 'NONE', ( #1150 ), #612, .T. ) ;
#842 = ORIENTED_EDGE ( 'NONE', *, *, #847, .F. ) ;
#843 = DIRECTION ( 'NONE',  ( 0.000000000000000000, -1.000000000000000000, 0.000000000000000000 ) ) ;
#844 = LINE ( 'NONE', #1022, #1036 ) ;
#845 = DIRECTION ( 'NONE',  ( 0.000000000000000000, 0.000000000000000000, -1.000000000000000000 ) ) ;
#846 = EDGE_LOOP ( 'NONE', ( #791, #976, #682 ) ) ;
#847 = EDGE_CURVE ( 'NONE', #167, #632, #336, .T. ) ;
#848 = ORIENTED_EDGE ( 'NONE', *, *, #229, .F. ) ;
#849 = DIRECTION ( 'NONE',  ( 0.000000000000000000, -1.000000000000000000, 0.000000000000000000 ) ) ;
#850 = VECTOR ( 'NONE', #89, 1000.000000000000000 ) ;
#851 = FACE_OUTER_BOUND ( 'NONE', #324, .T. ) ;
#852 = VECTOR ( 'NONE', #459, 1000.000000000000000 ) ;
#853 = VERTEX_POINT ( 'NONE', #1082 ) ;
#854 = PRESENTATION_LAYER_ASSIGNMENT (  '', '', ( #597 ) ) ;
#855 = ORIENTED_EDGE ( 'NONE', *, *, #979, .F. ) ;
#856 = LINE ( 'NONE', #574, #826 ) ;
#857 = EDGE_CURVE ( 'NONE', #813, #1156, #411, .T. ) ;
#858 = PLANE ( 'NONE',  #663 ) ;
#859 = EDGE_LOOP ( 'NONE', ( #358, #181, #578, #1051 ) ) ;
#860 = ORIENTED_EDGE ( 'NONE', *, *, #1052, .F. ) ;
#861 = DIRECTION ( 'NONE',  ( -0.000000000000000000, -0.000000000000000000, 1.000000000000000000 ) ) ;
#862 = ADVANCED_FACE ( 'NONE', ( #992 ), #606, .F. ) ;
#863 = DIRECTION ( 'NONE',  ( 1.000000000000000000, -0.000000000000000000, 0.000000000000000000 ) ) ;
#864 = EDGE_LOOP ( 'NONE', ( #1005, #1105, #731, #608 ) ) ;
#865 = FACE_OUTER_BOUND ( 'NONE', #199, .T. ) ;
#866 = VECTOR ( 'NONE', #471, 1000.000000000000000 ) ;
#867 = ADVANCED_FACE ( 'NONE', ( #230 ), #595, .T. ) ;
#868 = CIRCLE ( 'NONE', #326, 0.5833333333333332593 ) ;
#869 = PLANE ( 'NONE',  #152 ) ;
#870 = APPLICATION_CONTEXT ( 'automotive_design' ) ;
#871 = VERTEX_POINT ( 'NONE', #130 ) ;
#872 = AXIS2_PLACEMENT_3D ( 'NONE', #978, #332, #980 ) ;
#873 = AXIS2_PLACEMENT_3D ( 'NONE', #1015, #931, #1121 ) ;
#874 = EDGE_CURVE ( 'NONE', #896, #1024, #928, .T. ) ;
#875 = DIRECTION ( 'NONE',  ( 0.000000000000000000, 0.000000000000000000, -1.000000000000000000 ) ) ;
#876 = DIRECTION ( 'NONE',  ( 0.000000000000000000, 0.000000000000000000, 1.000000000000000000 ) ) ;
#877 = LINE ( 'NONE', #686, #233 ) ;
#878 = ORIENTED_EDGE ( 'NONE', *, *, #1009, .T. ) ;
#879 = CARTESIAN_POINT ( 'NONE',  ( 8.166666666666671404, 0.000000000000000000, -2.500000000000001332 ) ) ;
#880 = ADVANCED_FACE ( 'NONE', ( #975 ), #516, .T. ) ;
#881 = CARTESIAN_POINT ( 'NONE',  ( 8.166666666666671404, 9.916666666666667851, 1.916666666666666075 ) ) ;
#882 = EDGE_LOOP ( 'NONE', ( #215, #519, #1025 ) ) ;
#883 = ORIENTED_EDGE ( 'NONE', *, *, #195, .F. ) ;
#884 = EDGE_CURVE ( 'NONE', #896, #602, #53, .T. ) ;
#885 = DIRECTION ( 'NONE',  ( -1.000000000000000000, 0.000000000000000000, -0.000000000000000000 ) ) ;
#886 = EDGE_CURVE ( 'NONE', #28, #680, #327, .T. ) ;
#887 = VECTOR ( 'NONE', #861, 1000.000000000000000 ) ;
#888 = DIRECTION ( 'NONE',  ( 1.029992063861228226E-15, -1.000000000000000000, 0.000000000000000000 ) ) ;
#889 = DIRECTION ( 'NONE',  ( 0.000000000000000000, 1.000000000000000000, 0.000000000000000000 ) ) ;
#890 =( GEOMETRIC_REPRESENTATION_CONTEXT ( 3 ) GLOBAL_UNCERTAINTY_ASSIGNED_CONTEXT ( ( #493 ) ) GLOBAL_UNIT_ASSIGNED_CONTEXT ( ( #131, #240, #46 ) ) REPRESENTATION_CONTEXT ( 'NONE', 'WORKASPACE' ) );
#891 = DIRECTION ( 'NONE',  ( 0.000000000000000000, -0.000000000000000000, 1.000000000000000000 ) ) ;
#892 = CARTESIAN_POINT ( 'NONE',  ( -8.166666666666664298, 9.916666666666667851, -1.916666666666664964 ) ) ;
#893 = VECTOR ( 'NONE', #374, 1000.000000000000000 ) ;
#894 = CIRCLE ( 'NONE', #366, 0.5833333333333332593 ) ;
#895 = ADVANCED_FACE ( 'NONE', ( #1074 ), #981, .T. ) ;
#896 = VERTEX_POINT ( 'NONE', #793 ) ;
#897 = PLANE ( 'NONE',  #518 ) ;
#898 = CARTESIAN_POINT ( 'NONE',  ( 0.000000000000000000, 0.000000000000000000, -2.208333333333333481 ) ) ;
#899 = DIRECTION ( 'NONE',  ( 0.000000000000000000, 1.000000000000000000, -0.000000000000000000 ) ) ;
#900 = CARTESIAN_POINT ( 'NONE',  ( -5.666666666666661634, 0.000000000000000000, -2.500000000000001332 ) ) ;
#901 = FACE_OUTER_BOUND ( 'NONE', #217, .T. ) ;
#902 = DIRECTION ( 'NONE',  ( 0.000000000000000000, -0.000000000000000000, 1.000000000000000000 ) ) ;
#903 = ORIENTED_EDGE ( 'NONE', *, *, #720, .T. ) ;
#904 = CARTESIAN_POINT ( 'NONE',  ( 8.166666666666671404, 9.916666666666667851, -2.500000000000001332 ) ) ;
#905 = ORIENTED_EDGE ( 'NONE', *, *, #329, .T. ) ;
#906 = VECTOR ( 'NONE', #125, 1000.000000000000000 ) ;
#907 = AXIS2_PLACEMENT_3D ( 'NONE', #52, #142, #315 ) ;
#908 = DIRECTION ( 'NONE',  ( -1.000000000000000000, 0.000000000000000000, 0.000000000000000000 ) ) ;
#909 = PLANE ( 'NONE',  #1176 ) ;
#910 = DIRECTION ( 'NONE',  ( 1.000000000000000000, 0.000000000000000000, 0.000000000000000000 ) ) ;
#911 = CLOSED_SHELL ( 'NONE', ( #445, #1069, #624, #241, #313, #437, #522, #862, #1175, #880, #710, #610, #149, #957, #836, #512, #187, #1153, #98, #365, #203, #964, #665, #605, #963, #658, #572, #895, #1088, #74, #140, #405, #952, #570 ) ) ;
#912 = AXIS2_PLACEMENT_3D ( 'NONE', #223, #688, #243 ) ;
#913 = CARTESIAN_POINT ( 'NONE',  ( -5.666666666666661634, 0.000000000000000000, -2.500000000000001332 ) ) ;
#914 = DIRECTION ( 'NONE',  ( 0.000000000000000000, 0.000000000000000000, -1.000000000000000000 ) ) ;
#915 = ORIENTED_EDGE ( 'NONE', *, *, #1189, .T. ) ;
#916 = CARTESIAN_POINT ( 'NONE',  ( -8.166666666666666075, 10.50000000000000000, -2.499999999999998224 ) ) ;
#917 = DIRECTION ( 'NONE',  ( -0.000000000000000000, -0.000000000000000000, 1.000000000000000000 ) ) ;
#918 = FACE_OUTER_BOUND ( 'NONE', #946, .T. ) ;
#919 = VERTEX_POINT ( 'NONE', #1165 ) ;
#920 = LINE ( 'NONE', #456, #1037 ) ;
#921 = CARTESIAN_POINT ( 'NONE',  ( -8.166666666666662522, 0.000000000000000000, -2.500000000000001332 ) ) ;
#922 = CARTESIAN_POINT ( 'NONE',  ( -8.749999999999998224, 0.2100000000000021294, 2.208333333333332593 ) ) ;
#923 = DIRECTION ( 'NONE',  ( 0.000000000000000000, 0.000000000000000000, 1.000000000000000000 ) ) ;
#924 = LINE ( 'NONE', #900, #736 ) ;
#925 = EDGE_CURVE ( 'NONE', #378, #1156, #239, .T. ) ;
#926 = EDGE_CURVE ( 'NONE', #1, #813, #260, .T. ) ;
#927 = ORIENTED_EDGE ( 'NONE', *, *, #245, .F. ) ;
#928 = CIRCLE ( 'NONE', #770, 0.5833333333333332593 ) ;
#929 = ORIENTED_EDGE ( 'NONE', *, *, #316, .F. ) ;
#930 = CARTESIAN_POINT ( 'NONE',  ( 7.799999999999999822, 0.2100000000000100397, 3.673940397442061963E-17 ) ) ;
#931 = DIRECTION ( 'NONE',  ( 1.000000000000000000, 0.000000000000000000, 0.000000000000000000 ) ) ;
#932 = FACE_OUTER_BOUND ( 'NONE', #864, .T. ) ;
#933 = AXIS2_PLACEMENT_3D ( 'NONE', #1003, #1187, #75 ) ;
#934 = CIRCLE ( 'NONE', #617, 0.5833333333333332593 ) ;
#935 = EDGE_LOOP ( 'NONE', ( #1097, #247, #953, #480 ) ) ;
#936 = VERTEX_POINT ( 'NONE', #1188 ) ;
#937 = CARTESIAN_POINT ( 'NONE',  ( 8.750000000000003553, 10.50000000000000000, -1.916666666666668517 ) ) ;
#938 = CARTESIAN_POINT ( 'NONE',  ( -5.666666666666661634, 0.000000000000000000, -2.208333333333333481 ) ) ;
#939 = DIRECTION ( 'NONE',  ( 0.000000000000000000, -1.000000000000000000, -0.000000000000000000 ) ) ;
#940 = EDGE_CURVE ( 'NONE', #113, #1156, #635, .T. ) ;
#941 = ORIENTED_EDGE ( 'NONE', *, *, #1171, .F. ) ;
#942 = ORIENTED_EDGE ( 'NONE', *, *, #829, .F. ) ;
#943 = DIRECTION ( 'NONE',  ( 0.000000000000000000, 1.000000000000000000, 0.000000000000000000 ) ) ;
#944 = LINE ( 'NONE', #473, #407 ) ;
#945 = ORIENTED_EDGE ( 'NONE', *, *, #926, .T. ) ;
#946 = EDGE_LOOP ( 'NONE', ( #138, #87, #1043, #802 ) ) ;
#947 =( LENGTH_UNIT ( ) NAMED_UNIT ( * ) SI_UNIT ( .MILLI., .METRE. ) );
#948 = VECTOR ( 'NONE', #354, 1000.000000000000000 ) ;
#949 = PLANE ( 'NONE',  #423 ) ;
#950 = AXIS2_PLACEMENT_3D ( 'NONE', #1034, #1203, #754 ) ;
#951 = ORIENTED_EDGE ( 'NONE', *, *, #224, .T. ) ;
#952 = ADVANCED_FACE ( 'NONE', ( #1174 ), #339, .F. ) ;
#953 = ORIENTED_EDGE ( 'NONE', *, *, #318, .F. ) ;
#954 = CARTESIAN_POINT ( 'NONE',  ( -5.666666666666661634, 0.000000000000000000, -2.500000000000001332 ) ) ;
#955 = ORIENTED_EDGE ( 'NONE', *, *, #1101, .T. ) ;
#956 = UNCERTAINTY_MEASURE_WITH_UNIT (LENGTH_MEASURE( 1.000000000000000082E-05 ), #1067, 'distance_accuracy_value', 'NONE');
#957 = ADVANCED_FACE ( 'NONE', ( #718 ), #909, .F. ) ;
#958 = LINE ( 'NONE', #386, #887 ) ;
#959 = CARTESIAN_POINT ( 'NONE',  ( 8.166666666666671404, 0.000000000000000000, -2.500000000000001332 ) ) ;
#960 = ORIENTED_EDGE ( 'NONE', *, *, #581, .F. ) ;
#961 = FACE_OUTER_BOUND ( 'NONE', #1142, .T. ) ;
#962 = FILL_AREA_STYLE ('',( #974 ) ) ;
#963 = ADVANCED_FACE ( 'NONE', ( #809 ), #815, .T. ) ;
#964 = ADVANCED_FACE ( 'NONE', ( #250 ), #157, .T. ) ;
#965 = DIRECTION ( 'NONE',  ( 1.000000000000000000, 0.000000000000000000, 0.000000000000000000 ) ) ;
#966 = PRESENTATION_STYLE_ASSIGNMENT (( #404 ) ) ;
#967 = VECTOR ( 'NONE', #1000, 1000.000000000000000 ) ;
#968 = CARTESIAN_POINT ( 'NONE',  ( -8.749999999999998224, 10.50000000000000000, 2.500000000000001776 ) ) ;
#969 = ADVANCED_FACE ( 'NONE', ( #68 ), #1004, .F. ) ;
#970 = EDGE_LOOP ( 'NONE', ( #121, #729 ) ) ;
#971 = PRESENTATION_STYLE_ASSIGNMENT (( #593 ) ) ;
#972 =( GEOMETRIC_REPRESENTATION_CONTEXT ( 3 ) GLOBAL_UNCERTAINTY_ASSIGNED_CONTEXT ( ( #29 ) ) GLOBAL_UNIT_ASSIGNED_CONTEXT ( ( #947, #568, #301 ) ) REPRESENTATION_CONTEXT ( 'NONE', 'WORKASPACE' ) );
#973 = AXIS2_PLACEMENT_3D ( 'NONE', #472, #369, #549 ) ;
#974 = FILL_AREA_STYLE_COLOUR ( '', #387 ) ;
#975 = FACE_OUTER_BOUND ( 'NONE', #306, .T. ) ;
#976 = ORIENTED_EDGE ( 'NONE', *, *, #1096, .T. ) ;
#977 = ORIENTED_EDGE ( 'NONE', *, *, #316, .T. ) ;
#978 = CARTESIAN_POINT ( 'NONE',  ( -8.166666666666664298, 9.916666666666667851, -1.916666666666664964 ) ) ;
#979 = EDGE_CURVE ( 'NONE', #205, #507, #435, .T. ) ;
#980 = DIRECTION ( 'NONE',  ( 0.000000000000000000, 0.000000000000000000, 1.000000000000000000 ) ) ;
#981 = PLANE ( 'NONE',  #284 ) ;
#982 = VERTEX_POINT ( 'NONE', #904 ) ;
#983 = ORIENTED_EDGE ( 'NONE', *, *, #741, .F. ) ;
#984 = FILL_AREA_STYLE ('',( #707 ) ) ;
#985 = DIRECTION ( 'NONE',  ( 0.000000000000000000, 1.000000000000000000, 0.000000000000000000 ) ) ;
#986 = DIRECTION ( 'NONE',  ( 0.000000000000000000, -1.000000000000000000, 0.000000000000000000 ) ) ;
#987 = EDGE_CURVE ( 'NONE', #674, #1047, #1195, .T. ) ;
#988 = VECTOR ( 'NONE', #816, 1000.000000000000000 ) ;
#989 = ORIENTED_EDGE ( 'NONE', *, *, #377, .T. ) ;
#990 = PLANE ( 'NONE',  #912 ) ;
#991 = AXIS2_PLACEMENT_3D ( 'NONE', #771, #27, #1155 ) ;
#992 = FACE_OUTER_BOUND ( 'NONE', #287, .T. ) ;
#993 = CLOSED_SHELL ( 'NONE', ( #103, #841, #277, #969 ) ) ;
#994 = VECTOR ( 'NONE', #388, 1000.000000000000000 ) ;
#995 = ORIENTED_EDGE ( 'NONE', *, *, #781, .T. ) ;
#996 = DIRECTION ( 'NONE',  ( -1.029992063861228226E-15, 1.000000000000000000, -0.000000000000000000 ) ) ;
#997 = LINE ( 'NONE', #352, #501 ) ;
#998 = DIRECTION ( 'NONE',  ( 0.000000000000000000, -0.000000000000000000, 1.000000000000000000 ) ) ;
#999 = EDGE_CURVE ( 'NONE', #1044, #486, #655, .T. ) ;
#1000 = DIRECTION ( 'NONE',  ( 1.000000000000000000, -0.000000000000000000, -0.000000000000000000 ) ) ;
#1001 = ORIENTED_EDGE ( 'NONE', *, *, #88, .T. ) ;
#1002 = DIRECTION ( 'NONE',  ( -0.000000000000000000, -1.000000000000000000, 0.000000000000000000 ) ) ;
#1003 = CARTESIAN_POINT ( 'NONE',  ( -3.324886662288880593E-16, 9.916666666666667851, -1.916666666666666519 ) ) ;
#1004 = PLANE ( 'NONE',  #555 ) ;
#1005 = ORIENTED_EDGE ( 'NONE', *, *, #1096, .F. ) ;
#1006 = CARTESIAN_POINT ( 'NONE',  ( 0.000000000000000000, 0.000000000000000000, 0.000000000000000000 ) ) ;
#1007 = CARTESIAN_POINT ( 'NONE',  ( -8.166666666666664298, 10.50000000000000000, -1.916666666666664964 ) ) ;
#1008 =( LENGTH_UNIT ( ) NAMED_UNIT ( * ) SI_UNIT ( .MILLI., .METRE. ) );
#1009 = EDGE_CURVE ( 'NONE', #113, #1047, #439, .T. ) ;
#1010 = VECTOR ( 'NONE', #1154, 1000.000000000000000 ) ;
#1011 = APPLICATION_PROTOCOL_DEFINITION ( 'draft international standard', 'automotive_design', 1998, #870 ) ;
#1012 = VERTEX_POINT ( 'NONE', #554 ) ;
#1013 = DIRECTION ( 'NONE',  ( 2.973811673103098158E-15, -1.000000000000000000, 0.000000000000000000 ) ) ;
#1014 = CIRCLE ( 'NONE', #483, 0.5833333333333332593 ) ;
#1015 = CARTESIAN_POINT ( 'NONE',  ( -5.666666666666661634, 0.000000000000000000, -2.500000000000001332 ) ) ;
#1016 = CARTESIAN_POINT ( 'NONE',  ( -8.749999999999998224, 10.50000000000000000, -1.916666666666664076 ) ) ;
#1017 = ORIENTED_EDGE ( 'NONE', *, *, #540, .F. ) ;
#1018 = DIRECTION ( 'NONE',  ( -1.000000000000000000, 0.000000000000000000, -0.000000000000000000 ) ) ;
#1019 = CARTESIAN_POINT ( 'NONE',  ( -8.749999999999998224, 0.2100000000000021294, -2.208333333333333481 ) ) ;
#1020 = DIRECTION ( 'NONE',  ( 1.000000000000000000, -0.000000000000000000, -0.000000000000000000 ) ) ;
#1021 = EDGE_CURVE ( 'NONE', #1182, #1162, #807, .T. ) ;
#1022 = CARTESIAN_POINT ( 'NONE',  ( 8.166666666666671404, 10.50000000000000000, 2.499999999999999112 ) ) ;
#1023 = DIRECTION ( 'NONE',  ( 0.000000000000000000, -1.000000000000000000, 0.000000000000000000 ) ) ;
#1024 = VERTEX_POINT ( 'NONE', #70 ) ;
#1025 = ORIENTED_EDGE ( 'NONE', *, *, #1106, .F. ) ;
#1026 = CARTESIAN_POINT ( 'NONE',  ( -8.166666666666664298, 9.916666666666667851, 1.916666666666668517 ) ) ;
#1027 = CYLINDRICAL_SURFACE ( 'NONE', #973, 0.5833333333333334814 ) ;
#1028 = CARTESIAN_POINT ( 'NONE',  ( -7.499999999999978684, -20.00000000000000000, 0.000000000000000000 ) ) ;
#1029 = ORIENTED_EDGE ( 'NONE', *, *, #355, .T. ) ;
#1030 = CIRCLE ( 'NONE', #1104, 0.5833333333333332593 ) ;
#1031 = ORIENTED_EDGE ( 'NONE', *, *, #6, .F. ) ;
#1032 = DIRECTION ( 'NONE',  ( 1.000000000000000000, 1.219727444046192981E-16, 0.000000000000000000 ) ) ;
#1033 = MECHANICAL_DESIGN_GEOMETRIC_PRESENTATION_REPRESENTATION (  '', ( #94 ), #402 ) ;
#1034 = CARTESIAN_POINT ( 'NONE',  ( -8.749999999999998224, -0.2100000000000021294, -2.208333333333333481 ) ) ;
#1035 = LINE ( 'NONE', #657, #1202 ) ;
#1036 = VECTOR ( 'NONE', #452, 1000.000000000000000 ) ;
#1037 = VECTOR ( 'NONE', #1193, 1000.000000000000000 ) ;
#1038 = VERTEX_POINT ( 'NONE', #930 ) ;
#1039 = ORIENTED_EDGE ( 'NONE', *, *, #709, .T. ) ;
#1040 = CARTESIAN_POINT ( 'NONE',  ( 8.166666666666671404, 10.50000000000000000, -2.500000000000001332 ) ) ;
#1041 = DIRECTION ( 'NONE',  ( 0.000000000000000000, 0.000000000000000000, 1.000000000000000000 ) ) ;
#1042 = FACE_OUTER_BOUND ( 'NONE', #523, .T. ) ;
#1043 = ORIENTED_EDGE ( 'NONE', *, *, #229, .T. ) ;
#1044 = VERTEX_POINT ( 'NONE', #623 ) ;
#1045 = CARTESIAN_POINT ( 'NONE',  ( -8.749999999999998224, -0.2100000000000021294, 2.208333333333332593 ) ) ;
#1046 = ORIENTED_EDGE ( 'NONE', *, *, #454, .F. ) ;
#1047 = VERTEX_POINT ( 'NONE', #96 ) ;
#1048 = DIRECTION ( 'NONE',  ( 0.000000000000000000, 1.000000000000000000, -0.000000000000000000 ) ) ;
#1049 = VECTOR ( 'NONE', #843, 1000.000000000000000 ) ;
#1050 = CARTESIAN_POINT ( 'NONE',  ( 8.166666666666671404, 0.2100000000000021294, -2.500000000000001332 ) ) ;
#1051 = ORIENTED_EDGE ( 'NONE', *, *, #821, .F. ) ;
#1052 = EDGE_CURVE ( 'NONE', #1038, #175, #1160, .T. ) ;
#1053 = CIRCLE ( 'NONE', #539, 0.5833333333333332593 ) ;
#1054 = EDGE_LOOP ( 'NONE', ( #428, #13, #342, #797 ) ) ;
#1055 = SURFACE_STYLE_FILL_AREA ( #476 ) ;
#1056 = EDGE_CURVE ( 'NONE', #832, #289, #812, .T. ) ;
#1057 = EDGE_CURVE ( 'NONE', #632, #28, #158, .T. ) ;
#1058 = PLANE ( 'NONE',  #701 ) ;
#1059 = EDGE_CURVE ( 'NONE', #167, #413, #528, .T. ) ;
#1060 = VERTEX_POINT ( 'NONE', #466 ) ;
#1061 = CARTESIAN_POINT ( 'NONE',  ( 8.166666666666671404, 0.000000000000000000, -2.500000000000001332 ) ) ;
#1062 = FACE_OUTER_BOUND ( 'NONE', #48, .T. ) ;
#1063 = DIRECTION ( 'NONE',  ( -0.000000000000000000, -0.000000000000000000, 1.000000000000000000 ) ) ;
#1064 = ORIENTED_EDGE ( 'NONE', *, *, #940, .T. ) ;
#1065 = DIRECTION ( 'NONE',  ( -0.000000000000000000, -0.000000000000000000, 1.000000000000000000 ) ) ;
#1066 = DIRECTION ( 'NONE',  ( 0.000000000000000000, 1.000000000000000000, 0.000000000000000000 ) ) ;
#1067 =( LENGTH_UNIT ( ) NAMED_UNIT ( * ) SI_UNIT ( .MILLI., .METRE. ) );
#1068 = AXIS2_PLACEMENT_3D ( 'NONE', #1006, #837, #164 ) ;
#1069 = ADVANCED_FACE ( 'NONE', ( #721 ), #1095, .F. ) ;
#1070 = DIRECTION ( 'NONE',  ( 0.000000000000000000, 0.000000000000000000, -1.000000000000000000 ) ) ;
#1071 = ORIENTED_EDGE ( 'NONE', *, *, #122, .F. ) ;
#1072 = AXIS2_PLACEMENT_3D ( 'NONE', #638, #917, #85 ) ;
#1073 = AXIS2_PLACEMENT_3D ( 'NONE', #86, #363, #914 ) ;
#1074 = FACE_OUTER_BOUND ( 'NONE', #641, .T. ) ;
#1075 = CARTESIAN_POINT ( 'NONE',  ( 8.750000000000003553, 10.50000000000000000, 1.916666666666666075 ) ) ;
#1076 = ORIENTED_EDGE ( 'NONE', *, *, #397, .T. ) ;
#1077 = ORIENTED_EDGE ( 'NONE', *, *, #847, .T. ) ;
#1078 = LINE ( 'NONE', #44, #777 ) ;
#1079 = DIRECTION ( 'NONE',  ( -1.000000000000000000, -1.029992063861228226E-15, 0.000000000000000000 ) ) ;
#1080 = VERTEX_POINT ( 'NONE', #261 ) ;
#1081 = DIRECTION ( 'NONE',  ( 1.000000000000000000, 0.000000000000000000, 0.000000000000000000 ) ) ;
#1082 = CARTESIAN_POINT ( 'NONE',  ( 8.750000000000000000, 0.2100000000000021294, -1.916666666666668295 ) ) ;
#1083 = AXIS2_PLACEMENT_3D ( 'NONE', #254, #527, #628 ) ;
#1084 = LINE ( 'NONE', #143, #1201 ) ;
#1085 =( NAMED_UNIT ( * ) SI_UNIT ( $, .STERADIAN. ) SOLID_ANGLE_UNIT ( ) );
#1086 = STYLED_ITEM ( 'NONE', ( #966 ), #383 ) ;
#1087 = CIRCLE ( 'NONE', #872, 0.5833333333333332593 ) ;
#1088 = ADVANCED_FACE ( 'NONE', ( #1109 ), #535, .F. ) ;
#1089 = CARTESIAN_POINT ( 'NONE',  ( 8.750000000000003553, 10.50000000000000000, -2.500000000000001332 ) ) ;
#1090 = AXIS2_PLACEMENT_3D ( 'NONE', #761, #576, #1122 ) ;
#1091 = ORIENTED_EDGE ( 'NONE', *, *, #224, .F. ) ;
#1092 = FACE_OUTER_BOUND ( 'NONE', #882, .T. ) ;
#1093 = DIRECTION ( 'NONE',  ( 1.000000000000000000, 0.000000000000000000, -1.734723475976807341E-16 ) ) ;
#1094 = ORIENTED_EDGE ( 'NONE', *, *, #987, .T. ) ;
#1095 = PLANE ( 'NONE',  #1068 ) ;
#1096 = EDGE_CURVE ( 'NONE', #646, #21, #713, .T. ) ;
#1097 = ORIENTED_EDGE ( 'NONE', *, *, #581, .T. ) ;
#1098 = DIRECTION ( 'NONE',  ( 0.000000000000000000, 1.000000000000000000, -0.000000000000000000 ) ) ;
#1099 = CARTESIAN_POINT ( 'NONE',  ( 0.000000000000000000, 0.000000000000000000, -2.208333333333333481 ) ) ;
#1100 = CARTESIAN_POINT ( 'NONE',  ( 7.500000000000000000, 0.2100000000000097344, 0.000000000000000000 ) ) ;
#1101 = EDGE_CURVE ( 'NONE', #497, #21, #738, .T. ) ;
#1102 = FACE_OUTER_BOUND ( 'NONE', #1054, .T. ) ;
#1103 = LINE ( 'NONE', #1016, #171 ) ;
#1104 = AXIS2_PLACEMENT_3D ( 'NONE', #775, #426, #694 ) ;
#1105 = ORIENTED_EDGE ( 'NONE', *, *, #109, .F. ) ;
#1106 = EDGE_CURVE ( 'NONE', #299, #486, #14, .T. ) ;
#1107 = VERTEX_POINT ( 'NONE', #172 ) ;
#1108 = CARTESIAN_POINT ( 'NONE',  ( 7.200000000000041922, -40.84852813742386246, 0.000000000000000000 ) ) ;
#1109 = FACE_OUTER_BOUND ( 'NONE', #618, .T. ) ;
#1110 = AXIS2_PLACEMENT_3D ( 'NONE', #526, #434, #627 ) ;
#1111 = VECTOR ( 'NONE', #112, 1000.000000000000000 ) ;
#1112 = DIRECTION ( 'NONE',  ( -1.000000000000000000, 0.000000000000000000, 0.000000000000000000 ) ) ;
#1113 = ORIENTED_EDGE ( 'NONE', *, *, #84, .T. ) ;
#1114 = ORIENTED_EDGE ( 'NONE', *, *, #403, .T. ) ;
#1115 = DIRECTION ( 'NONE',  ( -0.000000000000000000, 1.000000000000000000, 0.000000000000000000 ) ) ;
#1116 = CARTESIAN_POINT ( 'NONE',  ( -7.799999999999978506, -20.00000000000000000, 0.000000000000000000 ) ) ;
#1117 = CARTESIAN_POINT ( 'NONE',  ( -8.166666666666662522, 9.916666666666667851, 2.500000000000001776 ) ) ;
#1118 = ORIENTED_EDGE ( 'NONE', *, *, #515, .F. ) ;
#1119 = ORIENTED_EDGE ( 'NONE', *, *, #789, .T. ) ;
#1120 = CARTESIAN_POINT ( 'NONE',  ( -5.666666666666661634, 0.000000000000000000, 2.208333333333332149 ) ) ;
#1121 = DIRECTION ( 'NONE',  ( 0.000000000000000000, 0.000000000000000000, -1.000000000000000000 ) ) ;
#1122 = DIRECTION ( 'NONE',  ( 0.000000000000000000, 0.000000000000000000, 1.000000000000000000 ) ) ;
#1123 = VERTEX_POINT ( 'NONE', #542 ) ;
#1124 = AXIS2_PLACEMENT_3D ( 'NONE', #589, #136, #505 ) ;
#1125 =( GEOMETRIC_REPRESENTATION_CONTEXT ( 3 ) GLOBAL_UNCERTAINTY_ASSIGNED_CONTEXT ( ( #956 ) ) GLOBAL_UNIT_ASSIGNED_CONTEXT ( ( #1067, #705, #220 ) ) REPRESENTATION_CONTEXT ( 'NONE', 'WORKASPACE' ) );
#1126 = ORIENTED_EDGE ( 'NONE', *, *, #278, .T. ) ;
#1127 = CARTESIAN_POINT ( 'NONE',  ( -8.166666666666662522, 0.000000000000000000, -2.500000000000001332 ) ) ;
#1128 = VECTOR ( 'NONE', #1032, 1000.000000000000000 ) ;
#1129 = CARTESIAN_POINT ( 'NONE',  ( 7.800000000000042455, -40.84852813742386246, 3.673940397442060115E-17 ) ) ;
#1130 = DIRECTION ( 'NONE',  ( 0.000000000000000000, 0.000000000000000000, -1.000000000000000000 ) ) ;
#1131 = AXIS2_PLACEMENT_3D ( 'NONE', #66, #1192, #258 ) ;
#1132 = ORIENTED_EDGE ( 'NONE', *, *, #271, .T. ) ;
#1133 = EDGE_LOOP ( 'NONE', ( #170, #281, #790, #1113, #43, #541, #905, #603, #110, #779 ) ) ;
#1134 = CARTESIAN_POINT ( 'NONE',  ( -8.166666666666666075, 0.2100000000000001310, -2.499999999999998224 ) ) ;
#1135 = EDGE_CURVE ( 'NONE', #813, #687, #643, .T. ) ;
#1136 = LINE ( 'NONE', #1050, #796 ) ;
#1137 = ORIENTED_EDGE ( 'NONE', *, *, #1057, .F. ) ;
#1138 = ORIENTED_EDGE ( 'NONE', *, *, #884, .T. ) ;
#1139 = SURFACE_SIDE_STYLE ('',( #1055 ) ) ;
#1140 = CARTESIAN_POINT ( 'NONE',  ( -8.166666666666662522, 0.000000000000000000, 2.500000000000000444 ) ) ;
#1141 = ORIENTED_EDGE ( 'NONE', *, *, #1056, .F. ) ;
#1142 = EDGE_LOOP ( 'NONE', ( #304, #82, #222 ) ) ;
#1143 = EDGE_CURVE ( 'NONE', #299, #1044, #868, .T. ) ;
#1144 = CARTESIAN_POINT ( 'NONE',  ( -8.166666666666662522, 0.2100000000000000755, -2.500000000000001332 ) ) ;
#1145 = AXIS2_PLACEMENT_3D ( 'NONE', #822, #251, #268 ) ;
#1146 = VECTOR ( 'NONE', #1157, 1000.000000000000000 ) ;
#1147 = FACE_OUTER_BOUND ( 'NONE', #749, .T. ) ;
#1148 = VECTOR ( 'NONE', #739, 1000.000000000000000 ) ;
#1149 = ORIENTED_EDGE ( 'NONE', *, *, #999, .F. ) ;
#1150 = FACE_OUTER_BOUND ( 'NONE', #348, .T. ) ;
#1151 = FACE_OUTER_BOUND ( 'NONE', #706, .T. ) ;
#1152 = ORIENTED_EDGE ( 'NONE', *, *, #532, .T. ) ;
#1153 = ADVANCED_FACE ( 'NONE', ( #457 ), #695, .T. ) ;
#1154 = DIRECTION ( 'NONE',  ( 1.000000000000000000, -0.000000000000000000, -1.486905836551548832E-16 ) ) ;
#1155 = DIRECTION ( 'NONE',  ( -1.000000000000000000, 0.000000000000000000, -0.000000000000000000 ) ) ;
#1156 = VERTEX_POINT ( 'NONE', #776 ) ;
#1157 = DIRECTION ( 'NONE',  ( -0.000000000000000000, 1.000000000000000000, -0.000000000000000000 ) ) ;
#1158 = DIRECTION ( 'NONE',  ( 0.000000000000000000, -1.000000000000000000, 3.717264591378872697E-16 ) ) ;
#1159 = DIRECTION ( 'NONE',  ( -0.000000000000000000, -0.000000000000000000, 1.000000000000000000 ) ) ;
#1160 = CIRCLE ( 'NONE', #636, 0.2999999999999999334 ) ;
#1161 = ORIENTED_EDGE ( 'NONE', *, *, #431, .F. ) ;
#1162 = VERTEX_POINT ( 'NONE', #506 ) ;
#1163 = CARTESIAN_POINT ( 'NONE',  ( 5.666666666666665186, 0.000000000000000000, -2.500000000000001332 ) ) ;
#1164 = CIRCLE ( 'NONE', #828, 0.5833333333333332593 ) ;
#1165 = CARTESIAN_POINT ( 'NONE',  ( 5.666666666666665186, 0.000000000000000000, 2.208333333333332149 ) ) ;
#1166 = PRODUCT_CONTEXT ( 'NONE', #311, 'mechanical' ) ;
#1167 = ORIENTED_EDGE ( 'NONE', *, *, #616, .F. ) ;
#1168 = DIRECTION ( 'NONE',  ( -1.486905836551549079E-16, 0.000000000000000000, -1.000000000000000000 ) ) ;
#1169 = DIRECTION ( 'NONE',  ( 0.000000000000000000, 0.000000000000000000, 1.000000000000000000 ) ) ;
#1170 = CARTESIAN_POINT ( 'NONE',  ( 7.200000000000020606, -20.00000000000000000, 0.000000000000000000 ) ) ;
#1171 = EDGE_CURVE ( 'NONE', #602, #1080, #511, .T. ) ;
#1172 = VERTEX_POINT ( 'NONE', #237 ) ;
#1173 = CARTESIAN_POINT ( 'NONE',  ( -5.666666666666661634, 0.2099999999999999922, -2.500000000000001332 ) ) ;
#1174 = FACE_OUTER_BOUND ( 'NONE', #24, .T. ) ;
#1175 = ADVANCED_FACE ( 'NONE', ( #607 ), #801, .F. ) ;
#1176 = AXIS2_PLACEMENT_3D ( 'NONE', #1089, #533, #1093 ) ;
#1177 = VERTEX_POINT ( 'NONE', #146 ) ;
#1178 = SURFACE_STYLE_USAGE ( .BOTH. , #343 ) ;
#1179 = PRESENTATION_LAYER_ASSIGNMENT (  '', '', ( #558 ) ) ;
#1180 = DIRECTION ( 'NONE',  ( 0.000000000000000000, -1.000000000000000000, 0.000000000000000000 ) ) ;
#1181 = EDGE_CURVE ( 'NONE', #1172, #602, #328, .T. ) ;
#1182 = VERTEX_POINT ( 'NONE', #1170 ) ;
#1183 = CIRCLE ( 'NONE', #1072, 0.5833333333333332593 ) ;
#1184 = DIRECTION ( 'NONE',  ( 0.000000000000000000, 0.000000000000000000, 1.000000000000000000 ) ) ;
#1185 = ORIENTED_EDGE ( 'NONE', *, *, #615, .T. ) ;
#1186 = DIRECTION ( 'NONE',  ( 0.000000000000000000, 0.000000000000000000, 1.000000000000000000 ) ) ;
#1187 = DIRECTION ( 'NONE',  ( 1.000000000000000000, 0.000000000000000000, -1.734723475976807341E-16 ) ) ;
#1188 = CARTESIAN_POINT ( 'NONE',  ( -7.799999999999999822, 0.2099999999999939970, 0.000000000000000000 ) ) ;
#1189 = EDGE_CURVE ( 'NONE', #372, #840, #690, .T. ) ;
#1190 = CARTESIAN_POINT ( 'NONE',  ( -8.749999999999998224, 10.50000000000000000, -1.916666666666664964 ) ) ;
#1191 = DIRECTION ( 'NONE',  ( -1.029992063861228226E-15, 1.000000000000000000, -0.000000000000000000 ) ) ;
#1192 = DIRECTION ( 'NONE',  ( -1.000000000000000000, 0.000000000000000000, 1.486905836551549079E-16 ) ) ;
#1193 = DIRECTION ( 'NONE',  ( 1.000000000000000000, -0.000000000000000000, -1.734723475976807341E-16 ) ) ;
#1194 = DIRECTION ( 'NONE',  ( 1.000000000000000000, -0.000000000000000000, -0.000000000000000000 ) ) ;
#1195 = LINE ( 'NONE', #725, #988 ) ;
#1196 = PLANE ( 'NONE',  #873 ) ;
#1197 = AXIS2_PLACEMENT_3D ( 'NONE', #1026, #744, #1184 ) ;
#1198 = ORIENTED_EDGE ( 'NONE', *, *, #525, .T. ) ;
#1199 = MECHANICAL_DESIGN_GEOMETRIC_PRESENTATION_REPRESENTATION (  '', ( #1086 ), #890 ) ;
#1200 = ORIENTED_EDGE ( 'NONE', *, *, #886, .F. ) ;
#1201 = VECTOR ( 'NONE', #722, 1000.000000000000000 ) ;
#1202 = VECTOR ( 'NONE', #123, 1000.000000000000000 ) ;
#1203 = DIRECTION ( 'NONE',  ( 0.000000000000000000, 0.000000000000000000, -1.000000000000000000 ) ) ;
#1204 = LINE ( 'NONE', #765, #715 ) ;
ENDSEC;
END-ISO-10303-21;
