ISO-10303-21;
HEADER;
FILE_DESCRIPTION (( 'STEP AP214' ),
    '1' );
FILE_NAME ('ECWFE2W155JA.STEP',
    '2021-05-26T08:04:48',
    ( '' ),
    ( '' ),
    'SwSTEP 2.0',
    'SolidWorks 2020',
    '' );
FILE_SCHEMA (( 'AUTOMOTIVE_DESIGN' ));
ENDSEC;

DATA;
#1 = EDGE_CURVE ( 'NONE', #553, #1178, #834, .T. ) ;
#2 = VERTEX_POINT ( 'NONE', #1003 ) ;
#3 = LINE ( 'NONE', #913, #151 ) ;
#4 = ORIENTED_EDGE ( 'NONE', *, *, #944, .T. ) ;
#5 = CARTESIAN_POINT ( 'NONE',  ( -8.750000000000000000, 14.91666666666666607, -4.416666666666665186 ) ) ;
#6 = VERTEX_POINT ( 'NONE', #1201 ) ;
#7 = CIRCLE ( 'NONE', #148, 0.5833333333333332593 ) ;
#8 = CARTESIAN_POINT ( 'NONE',  ( 5.666666666666673180, 0.000000000000000000, -4.999999999999999112 ) ) ;
#9 = ADVANCED_FACE ( 'NONE', ( #1020 ), #172, .T. ) ;
#10 = CIRCLE ( 'NONE', #676, 0.3999999999999993006 ) ;
#11 = CARTESIAN_POINT ( 'NONE',  ( -8.750000000000000000, 0.3099999999999999978, -4.416666666666665186 ) ) ;
#12 = VECTOR ( 'NONE', #662, 1000.000000000000000 ) ;
#13 = ORIENTED_EDGE ( 'NONE', *, *, #415, .F. ) ;
#14 = DIRECTION ( 'NONE',  ( 0.000000000000000000, -0.000000000000000000, 1.000000000000000000 ) ) ;
#15 = CARTESIAN_POINT ( 'NONE',  ( -8.750000000000000000, 0.3100000000000014966, 4.708333333333333037 ) ) ;
#16 = FILL_AREA_STYLE_COLOUR ( '', #552 ) ;
#17 = DIRECTION ( 'NONE',  ( 0.000000000000000000, 1.000000000000000000, 0.000000000000000000 ) ) ;
#18 = CARTESIAN_POINT ( 'NONE',  ( 8.166666666666669627, 0.3100000000000014966, -4.708333333333333037 ) ) ;
#19 = ADVANCED_FACE ( 'NONE', ( #934 ), #665, .T. ) ;
#20 = CARTESIAN_POINT ( 'NONE',  ( 5.666666666666673180, 0.000000000000000000, -4.999999999999999112 ) ) ;
#21 = CARTESIAN_POINT ( 'NONE',  ( -7.899999999999990585, -10.13137084989848802, 0.000000000000000000 ) ) ;
#22 = CARTESIAN_POINT ( 'NONE',  ( -8.166666666666667851, 15.50000000000000000, -4.416666666666665186 ) ) ;
#23 = CARTESIAN_POINT ( 'NONE',  ( 0.000000000000000000, 0.000000000000000000, 4.708333333333333037 ) ) ;
#24 = ADVANCED_FACE ( 'NONE', ( #304 ), #569, .F. ) ;
#25 = CARTESIAN_POINT ( 'NONE',  ( 0.000000000000000000, -4.500000000000000000, 0.000000000000000000 ) ) ;
#26 = DIRECTION ( 'NONE',  ( -4.956352788505162775E-17, 0.000000000000000000, -1.000000000000000000 ) ) ;
#27 = MECHANICAL_DESIGN_GEOMETRIC_PRESENTATION_REPRESENTATION (  '', ( #1150 ), #654 ) ;
#28 = FILL_AREA_STYLE ('',( #855 ) ) ;
#29 = VECTOR ( 'NONE', #896, 1000.000000000000000 ) ;
#30 = DIRECTION ( 'NONE',  ( 0.000000000000000000, 0.000000000000000000, -1.000000000000000000 ) ) ;
#31 = CIRCLE ( 'NONE', #1078, 0.5833333333333332593 ) ;
#32 = VECTOR ( 'NONE', #700, 1000.000000000000000 ) ;
#33 = EDGE_CURVE ( 'NONE', #238, #248, #121, .T. ) ;
#34 = FACE_OUTER_BOUND ( 'NONE', #713, .T. ) ;
#35 = CARTESIAN_POINT ( 'NONE',  ( 5.666666666666673180, 0.3100000000000013856, -4.999999999999999112 ) ) ;
#36 = CARTESIAN_POINT ( 'NONE',  ( 8.166666666666667851, 15.50000000000000000, -4.416666666666666075 ) ) ;
#37 = FACE_OUTER_BOUND ( 'NONE', #701, .T. ) ;
#38 = CARTESIAN_POINT ( 'NONE',  ( -8.166666666666669627, 0.000000000000000000, 5.000000000000000888 ) ) ;
#39 = EDGE_CURVE ( 'NONE', #1099, #925, #497, .T. ) ;
#40 = LINE ( 'NONE', #790, #735 ) ;
#41 = CARTESIAN_POINT ( 'NONE',  ( 8.166666666666667851, 0.000000000000000000, -4.999999999999999112 ) ) ;
#42 = DIRECTION ( 'NONE',  ( -0.000000000000000000, -0.000000000000000000, 1.000000000000000000 ) ) ;
#43 = VERTEX_POINT ( 'NONE', #872 ) ;
#44 = EDGE_CURVE ( 'NONE', #1065, #897, #865, .T. ) ;
#45 = PRODUCT_CONTEXT ( 'NONE', #400, 'mechanical' ) ;
#46 = EDGE_CURVE ( 'NONE', #238, #720, #1034, .T. ) ;
#47 = PLANE ( 'NONE',  #189 ) ;
#48 = DIRECTION ( 'NONE',  ( -1.029992063861228226E-15, 1.000000000000000000, -0.000000000000000000 ) ) ;
#49 = VECTOR ( 'NONE', #224, 1000.000000000000000 ) ;
#50 = ORIENTED_EDGE ( 'NONE', *, *, #1183, .F. ) ;
#51 = VECTOR ( 'NONE', #83, 1000.000000000000000 ) ;
#52 = AXIS2_PLACEMENT_3D ( 'NONE', #277, #1024, #80 ) ;
#53 = LINE ( 'NONE', #242, #910 ) ;
#54 = DIRECTION ( 'NONE',  ( -0.000000000000000000, -0.000000000000000000, 1.000000000000000000 ) ) ;
#55 = ORIENTED_EDGE ( 'NONE', *, *, #451, .T. ) ;
#56 = CARTESIAN_POINT ( 'NONE',  ( 8.166666666666667851, 14.91666666666666607, 4.416666666666666075 ) ) ;
#57 = CARTESIAN_POINT ( 'NONE',  ( 7.500000000000004441, -4.500000000000000000, 0.000000000000000000 ) ) ;
#58 = EDGE_CURVE ( 'NONE', #446, #77, #765, .T. ) ;
#59 = VERTEX_POINT ( 'NONE', #205 ) ;
#60 = UNCERTAINTY_MEASURE_WITH_UNIT (LENGTH_MEASURE( 1.000000000000000082E-05 ), #589, 'distance_accuracy_value', 'NONE');
#61 = DIRECTION ( 'NONE',  ( 1.000000000000000000, 0.000000000000000000, -4.956352788505162775E-17 ) ) ;
#62 = ORIENTED_EDGE ( 'NONE', *, *, #806, .T. ) ;
#63 = CARTESIAN_POINT ( 'NONE',  ( -8.750000000000000000, 14.91666666666666607, 5.000000000000001776 ) ) ;
#64 = EDGE_LOOP ( 'NONE', ( #1105, #174, #191, #435 ) ) ;
#65 = ADVANCED_FACE ( 'NONE', ( #34 ), #124, .T. ) ;
#66 = PLANE ( 'NONE',  #962 ) ;
#67 = EDGE_LOOP ( 'NONE', ( #517, #338, #610, #1155 ) ) ;
#68 = CARTESIAN_POINT ( 'NONE',  ( -7.499999999999995559, -4.500000000000000000, 0.000000000000000000 ) ) ;
#69 = VERTEX_POINT ( 'NONE', #772 ) ;
#70 = VECTOR ( 'NONE', #762, 1000.000000000000000 ) ;
#71 = AXIS2_PLACEMENT_3D ( 'NONE', #1064, #978, #143 ) ;
#72 = CIRCLE ( 'NONE', #268, 0.5833333333333332593 ) ;
#73 = DIRECTION ( 'NONE',  ( -1.000000000000000000, 0.000000000000000000, -1.486905836551549079E-15 ) ) ;
#74 = EDGE_CURVE ( 'NONE', #376, #642, #1126, .T. ) ;
#75 = EDGE_LOOP ( 'NONE', ( #294, #748, #1095 ) ) ;
#76 = LINE ( 'NONE', #193, #950 ) ;
#77 = VERTEX_POINT ( 'NONE', #960 ) ;
#78 = DIRECTION ( 'NONE',  ( -0.000000000000000000, -0.000000000000000000, 1.000000000000000000 ) ) ;
#79 = ORIENTED_EDGE ( 'NONE', *, *, #183, .T. ) ;
#80 = DIRECTION ( 'NONE',  ( 0.000000000000000000, 0.000000000000000000, -1.000000000000000000 ) ) ;
#81 = ORIENTED_EDGE ( 'NONE', *, *, #108, .T. ) ;
#82 = ORIENTED_EDGE ( 'NONE', *, *, #385, .F. ) ;
#83 = DIRECTION ( 'NONE',  ( 1.000000000000000000, -0.000000000000000000, -4.956352788505162775E-17 ) ) ;
#84 = ORIENTED_EDGE ( 'NONE', *, *, #901, .F. ) ;
#85 = ADVANCED_FACE ( 'NONE', ( #951 ), #853, .T. ) ;
#86 = LINE ( 'NONE', #466, #502 ) ;
#87 = ORIENTED_EDGE ( 'NONE', *, *, #986, .T. ) ;
#88 = VERTEX_POINT ( 'NONE', #776 ) ;
#89 = DIRECTION ( 'NONE',  ( -1.000000000000000000, 0.000000000000000000, 4.956352788505162775E-17 ) ) ;
#90 = VECTOR ( 'NONE', #465, 1000.000000000000000 ) ;
#91 = VECTOR ( 'NONE', #42, 1000.000000000000000 ) ;
#92 = CARTESIAN_POINT ( 'NONE',  ( -5.666666666666667851, 0.000000000000000000, -4.999999999999999112 ) ) ;
#93 = AXIS2_PLACEMENT_3D ( 'NONE', #36, #393, #1043 ) ;
#94 = DIRECTION ( 'NONE',  ( -8.363845330602488837E-16, -1.000000000000000000, 0.000000000000000000 ) ) ;
#95 = EDGE_CURVE ( 'NONE', #77, #642, #216, .T. ) ;
#96 = ORIENTED_EDGE ( 'NONE', *, *, #693, .T. ) ;
#97 = DIRECTION ( 'NONE',  ( 1.000000000000000000, 0.000000000000000000, 0.000000000000000000 ) ) ;
#98 = ORIENTED_EDGE ( 'NONE', *, *, #998, .F. ) ;
#99 = CARTESIAN_POINT ( 'NONE',  ( -8.750000000000000000, -0.3100000000000014966, 4.708333333333333037 ) ) ;
#100 = ORIENTED_EDGE ( 'NONE', *, *, #1129, .T. ) ;
#101 = CARTESIAN_POINT ( 'NONE',  ( -5.666666666666667851, 0.000000000000000000, -4.999999999999999112 ) ) ;
#102 = VERTEX_POINT ( 'NONE', #672 ) ;
#103 = DIRECTION ( 'NONE',  ( 0.000000000000000000, -1.000000000000000000, 0.000000000000000000 ) ) ;
#104 = DIRECTION ( 'NONE',  ( 1.000000000000000000, -8.363845330602464185E-16, -1.486905836551549079E-15 ) ) ;
#105 = EDGE_LOOP ( 'NONE', ( #82, #441, #730, #669 ) ) ;
#106 = PRODUCT_DEFINITION_SHAPE ( 'NONE', 'NONE',  #430 ) ;
#107 = FACE_OUTER_BOUND ( 'NONE', #1061, .T. ) ;
#108 = EDGE_CURVE ( 'NONE', #264, #924, #580, .T. ) ;
#109 = CARTESIAN_POINT ( 'NONE',  ( 8.166666666666667851, 14.91666666666666607, 0.000000000000000000 ) ) ;
#110 = VECTOR ( 'NONE', #1144, 1000.000000000000000 ) ;
#111 = DIRECTION ( 'NONE',  ( 0.000000000000000000, -0.000000000000000000, -1.000000000000000000 ) ) ;
#112 = EDGE_CURVE ( 'NONE', #631, #202, #685, .T. ) ;
#113 = AXIS2_PLACEMENT_3D ( 'NONE', #920, #926, #558 ) ;
#114 = CARTESIAN_POINT ( 'NONE',  ( 0.000000000000000000, 0.000000000000000000, 0.000000000000000000 ) ) ;
#115 = VECTOR ( 'NONE', #491, 1000.000000000000000 ) ;
#116 = DIRECTION ( 'NONE',  ( -0.000000000000000000, -0.000000000000000000, -1.000000000000000000 ) ) ;
#117 = CARTESIAN_POINT ( 'NONE',  ( 8.166666666666667851, 14.91666666666666607, -4.999999999999999112 ) ) ;
#118 = CARTESIAN_POINT ( 'NONE',  ( -8.750000000000000000, 15.50000000000000000, -4.416666666666665186 ) ) ;
#119 = EDGE_CURVE ( 'NONE', #941, #614, #591, .T. ) ;
#120 = DIRECTION ( 'NONE',  ( -0.000000000000000000, -0.000000000000000000, 1.000000000000000000 ) ) ;
#121 = LINE ( 'NONE', #219, #187 ) ;
#122 = DIRECTION ( 'NONE',  ( 1.000000000000000000, 0.000000000000000000, -4.956352788505162775E-17 ) ) ;
#123 = PLANE ( 'NONE',  #192 ) ;
#124 = CYLINDRICAL_SURFACE ( 'NONE', #768, 0.5833333333333332593 ) ;
#125 = CARTESIAN_POINT ( 'NONE',  ( 0.000000000000000000, 0.000000000000000000, 0.000000000000000000 ) ) ;
#126 = AXIS2_PLACEMENT_3D ( 'NONE', #426, #876, #61 ) ;
#127 = LINE ( 'NONE', #940, #347 ) ;
#128 = VECTOR ( 'NONE', #231, 1000.000000000000000 ) ;
#129 = LINE ( 'NONE', #948, #190 ) ;
#130 = AXIS2_PLACEMENT_3D ( 'NONE', #99, #534, #366 ) ;
#131 = CIRCLE ( 'NONE', #811, 0.5833333333333332593 ) ;
#132 = ADVANCED_FACE ( 'NONE', ( #37 ), #301, .F. ) ;
#133 = CARTESIAN_POINT ( 'NONE',  ( 8.750000000000000000, 15.50000000000000000, 4.416666666666666075 ) ) ;
#134 = DIRECTION ( 'NONE',  ( 1.000000000000000000, -0.000000000000000000, 0.000000000000000000 ) ) ;
#135 = SURFACE_STYLE_FILL_AREA ( #1054 ) ;
#136 = CARTESIAN_POINT ( 'NONE',  ( 7.500000000000009770, -10.13137084989847203, 0.000000000000000000 ) ) ;
#137 = DIRECTION ( 'NONE',  ( 0.000000000000000000, 1.000000000000000000, -0.000000000000000000 ) ) ;
#138 = CARTESIAN_POINT ( 'NONE',  ( 8.750000000000003553, 0.3100000000000021627, -4.999999999999999112 ) ) ;
#139 = VERTEX_POINT ( 'NONE', #117 ) ;
#140 = CARTESIAN_POINT ( 'NONE',  ( 5.666666666666673180, 0.3100000000000013856, -4.999999999999999112 ) ) ;
#141 = ORIENTED_EDGE ( 'NONE', *, *, #959, .T. ) ;
#142 = CARTESIAN_POINT ( 'NONE',  ( -8.750000000000000000, 15.50000000000000000, 4.416666666666668739 ) ) ;
#143 = DIRECTION ( 'NONE',  ( 0.000000000000000000, 0.000000000000000000, -1.000000000000000000 ) ) ;
#144 = VERTEX_POINT ( 'NONE', #508 ) ;
#145 = EDGE_CURVE ( 'NONE', #349, #825, #318, .T. ) ;
#146 = FACE_OUTER_BOUND ( 'NONE', #1199, .T. ) ;
#147 = CARTESIAN_POINT ( 'NONE',  ( 7.500000000000000000, 0.3100000000000003864, 0.000000000000000000 ) ) ;
#148 = AXIS2_PLACEMENT_3D ( 'NONE', #597, #611, #327 ) ;
#149 = ORIENTED_EDGE ( 'NONE', *, *, #1136, .T. ) ;
#150 = AXIS2_PLACEMENT_3D ( 'NONE', #833, #1200, #994 ) ;
#151 = VECTOR ( 'NONE', #173, 1000.000000000000000 ) ;
#152 = CARTESIAN_POINT ( 'NONE',  ( -8.166666666666667851, 15.50000000000000000, 5.000000000000001776 ) ) ;
#153 = ORIENTED_EDGE ( 'NONE', *, *, #1142, .T. ) ;
#154 = CYLINDRICAL_SURFACE ( 'NONE', #1002, 0.3999999999999993006 ) ;
#155 = ADVANCED_FACE ( 'NONE', ( #880 ), #1161, .T. ) ;
#156 = FACE_OUTER_BOUND ( 'NONE', #628, .T. ) ;
#157 = ORIENTED_EDGE ( 'NONE', *, *, #108, .F. ) ;
#158 = DIRECTION ( 'NONE',  ( 1.000000000000000000, -0.000000000000000000, -1.486905836551548832E-16 ) ) ;
#159 = EDGE_LOOP ( 'NONE', ( #919, #1014, #84, #813, #1026, #866, #886, #87, #741, #1188, #1084, #179, #1110, #162, #276, #744, #547, #1166, #433, #792 ) ) ;
#160 = DIRECTION ( 'NONE',  ( -1.000000000000000000, -1.115179377413661760E-15, 0.000000000000000000 ) ) ;
#161 = EDGE_CURVE ( 'NONE', #43, #388, #333, .T. ) ;
#162 = ORIENTED_EDGE ( 'NONE', *, *, #414, .F. ) ;
#163 = DIRECTION ( 'NONE',  ( -1.000000000000000000, 0.000000000000000000, 1.486905836551548832E-16 ) ) ;
#164 = ORIENTED_EDGE ( 'NONE', *, *, #350, .F. ) ;
#165 = DIRECTION ( 'NONE',  ( 0.000000000000000000, 0.000000000000000000, 1.000000000000000000 ) ) ;
#166 = ORIENTED_EDGE ( 'NONE', *, *, #781, .T. ) ;
#167 = CLOSED_SHELL ( 'NONE', ( #727, #992, #1008, #582 ) ) ;
#168 = AXIS2_PLACEMENT_3D ( 'NONE', #881, #1175, #348 ) ;
#169 = EDGE_CURVE ( 'NONE', #720, #349, #1057, .T. ) ;
#170 = AXIS2_PLACEMENT_3D ( 'NONE', #147, #721, #530 ) ;
#171 = FACE_OUTER_BOUND ( 'NONE', #839, .T. ) ;
#172 = SPHERICAL_SURFACE ( 'NONE', #360, 0.5833333333333333703 ) ;
#173 = DIRECTION ( 'NONE',  ( 0.000000000000000000, -1.000000000000000000, 0.000000000000000000 ) ) ;
#174 = ORIENTED_EDGE ( 'NONE', *, *, #769, .F. ) ;
#175 = ORIENTED_EDGE ( 'NONE', *, *, #1147, .F. ) ;
#176 = SPHERICAL_SURFACE ( 'NONE', #655, 0.5833333333333333703 ) ;
#177 = ORIENTED_EDGE ( 'NONE', *, *, #266, .T. ) ;
#178 = DIRECTION ( 'NONE',  ( 0.000000000000000000, 0.000000000000000000, -1.000000000000000000 ) ) ;
#179 = ORIENTED_EDGE ( 'NONE', *, *, #58, .F. ) ;
#180 = ORIENTED_EDGE ( 'NONE', *, *, #39, .F. ) ;
#181 = CARTESIAN_POINT ( 'NONE',  ( 0.000000000000000000, -4.500000000000000000, 0.000000000000000000 ) ) ;
#182 = VERTEX_POINT ( 'NONE', #230 ) ;
#183 = EDGE_CURVE ( 'NONE', #144, #897, #7, .T. ) ;
#184 = LINE ( 'NONE', #740, #308 ) ;
#185 = ORIENTED_EDGE ( 'NONE', *, *, #112, .T. ) ;
#186 = ORIENTED_EDGE ( 'NONE', *, *, #452, .T. ) ;
#187 = VECTOR ( 'NONE', #401, 1000.000000000000000 ) ;
#188 = CARTESIAN_POINT ( 'NONE',  ( 8.750000000000000000, 14.91666666666666607, -4.999999999999999112 ) ) ;
#189 = AXIS2_PLACEMENT_3D ( 'NONE', #691, #428, #1059 ) ;
#190 = VECTOR ( 'NONE', #584, 1000.000000000000000 ) ;
#191 = ORIENTED_EDGE ( 'NONE', *, *, #1069, .F. ) ;
#192 = AXIS2_PLACEMENT_3D ( 'NONE', #392, #863, #1120 ) ;
#193 = CARTESIAN_POINT ( 'NONE',  ( 7.100000000000011191, -10.13137084989847203, 0.000000000000000000 ) ) ;
#194 = EDGE_CURVE ( 'NONE', #202, #736, #53, .T. ) ;
#195 = ORIENTED_EDGE ( 'NONE', *, *, #837, .T. ) ;
#196 = DIRECTION ( 'NONE',  ( -0.000000000000000000, -0.000000000000000000, 1.000000000000000000 ) ) ;
#197 = ORIENTED_EDGE ( 'NONE', *, *, #1, .T. ) ;
#198 = DIRECTION ( 'NONE',  ( 0.000000000000000000, 1.000000000000000000, 0.000000000000000000 ) ) ;
#199 = CYLINDRICAL_SURFACE ( 'NONE', #443, 0.5833333333333332593 ) ;
#200 = FACE_OUTER_BOUND ( 'NONE', #1203, .T. ) ;
#201 = ADVANCED_FACE ( 'NONE', ( #1070 ), #977, .T. ) ;
#202 = VERTEX_POINT ( 'NONE', #425 ) ;
#203 = CARTESIAN_POINT ( 'NONE',  ( 8.166666666666667851, 0.3100000000000014966, 5.000000000000000888 ) ) ;
#204 = EDGE_CURVE ( 'NONE', #59, #1065, #793, .T. ) ;
#205 = CARTESIAN_POINT ( 'NONE',  ( -8.750000000000000000, 0.3099999999999999978, 4.416666666666667851 ) ) ;
#206 = LINE ( 'NONE', #1138, #379 ) ;
#207 =( NAMED_UNIT ( * ) PLANE_ANGLE_UNIT ( ) SI_UNIT ( $, .RADIAN. ) );
#208 = LINE ( 'NONE', #397, #422 ) ;
#209 = CARTESIAN_POINT ( 'NONE',  ( -8.166666666666667851, 14.91666666666666607, -4.416666666666665186 ) ) ;
#210 = EDGE_CURVE ( 'NONE', #937, #1169, #971, .T. ) ;
#211 = DIRECTION ( 'NONE',  ( 0.000000000000000000, 0.000000000000000000, -1.000000000000000000 ) ) ;
#212 = VECTOR ( 'NONE', #761, 1000.000000000000000 ) ;
#213 = AXIS2_PLACEMENT_3D ( 'NONE', #1058, #1053, #225 ) ;
#214 = AXIS2_PLACEMENT_3D ( 'NONE', #453, #640, #726 ) ;
#215 = LINE ( 'NONE', #477, #115 ) ;
#216 = LINE ( 'NONE', #390, #1172 ) ;
#217 = CARTESIAN_POINT ( 'NONE',  ( -5.666666666666667851, 0.000000000000000000, -4.999999999999999112 ) ) ;
#218 = LINE ( 'NONE', #778, #405 ) ;
#219 = CARTESIAN_POINT ( 'NONE',  ( 5.666666666666673180, 0.000000000000000000, -4.999999999999999112 ) ) ;
#220 = FACE_OUTER_BOUND ( 'NONE', #478, .T. ) ;
#221 = SURFACE_SIDE_STYLE ('',( #313 ) ) ;
#222 = LINE ( 'NONE', #680, #500 ) ;
#223 = EDGE_CURVE ( 'NONE', #202, #376, #1047, .T. ) ;
#224 = DIRECTION ( 'NONE',  ( -0.000000000000000000, -0.000000000000000000, 1.000000000000000000 ) ) ;
#225 = DIRECTION ( 'NONE',  ( 1.000000000000000000, 1.084202172485503842E-15, 0.000000000000000000 ) ) ;
#226 = AXIS2_PLACEMENT_3D ( 'NONE', #25, #681, #296 ) ;
#227 = AXIS2_PLACEMENT_3D ( 'NONE', #323, #1066, #239 ) ;
#228 = PRESENTATION_STYLE_ASSIGNMENT (( #789 ) ) ;
#229 = ADVANCED_FACE ( 'NONE', ( #873 ), #570, .F. ) ;
#230 = CARTESIAN_POINT ( 'NONE',  ( -7.899999999999995914, -4.500000000000000000, 0.000000000000000000 ) ) ;
#231 = DIRECTION ( 'NONE',  ( 0.000000000000000000, -1.000000000000000000, 0.000000000000000000 ) ) ;
#232 = ORIENTED_EDGE ( 'NONE', *, *, #1031, .T. ) ;
#233 = DIRECTION ( 'NONE',  ( 1.000000000000000000, -0.000000000000000000, -0.000000000000000000 ) ) ;
#234 = ORIENTED_EDGE ( 'NONE', *, *, #291, .T. ) ;
#235 = ADVANCED_FACE ( 'NONE', ( #773 ), #679, .F. ) ;
#236 = DIRECTION ( 'NONE',  ( 1.000000000000000000, -0.000000000000000000, 0.000000000000000000 ) ) ;
#237 = FACE_OUTER_BOUND ( 'NONE', #1159, .T. ) ;
#238 = VERTEX_POINT ( 'NONE', #8 ) ;
#239 = DIRECTION ( 'NONE',  ( -0.000000000000000000, 0.000000000000000000, 1.000000000000000000 ) ) ;
#240 = CARTESIAN_POINT ( 'NONE',  ( 8.750000000000000000, 15.50000000000000000, 4.416666666666666075 ) ) ;
#241 = ORIENTED_EDGE ( 'NONE', *, *, #1147, .T. ) ;
#242 = CARTESIAN_POINT ( 'NONE',  ( 5.666666666666673180, 0.000000000000000000, 5.000000000000000888 ) ) ;
#243 = CARTESIAN_POINT ( 'NONE',  ( -5.666666666666667851, 0.3099999999999999978, -4.999999999999999112 ) ) ;
#244 = VERTEX_POINT ( 'NONE', #858 ) ;
#245 =( NAMED_UNIT ( * ) PLANE_ANGLE_UNIT ( ) SI_UNIT ( $, .RADIAN. ) );
#246 = LINE ( 'NONE', #471, #636 ) ;
#247 = VECTOR ( 'NONE', #1141, 1000.000000000000000 ) ;
#248 = VERTEX_POINT ( 'NONE', #35 ) ;
#249 = AXIS2_PLACEMENT_3D ( 'NONE', #286, #480, #14 ) ;
#250 = STYLED_ITEM ( 'NONE', ( #511 ), #739 ) ;
#251 = DIRECTION ( 'NONE',  ( 0.000000000000000000, 1.000000000000000000, 0.000000000000000000 ) ) ;
#252 = ORIENTED_EDGE ( 'NONE', *, *, #1136, .F. ) ;
#253 = ADVANCED_FACE ( 'NONE', ( #220 ), #384, .F. ) ;
#254 = LINE ( 'NONE', #140, #690 ) ;
#255 = ORIENTED_EDGE ( 'NONE', *, *, #1113, .F. ) ;
#256 = DIRECTION ( 'NONE',  ( -0.000000000000000000, -0.000000000000000000, 1.000000000000000000 ) ) ;
#257 = ORIENTED_EDGE ( 'NONE', *, *, #1062, .T. ) ;
#258 = DIRECTION ( 'NONE',  ( 0.000000000000000000, 1.000000000000000000, 0.000000000000000000 ) ) ;
#259 = EDGE_CURVE ( 'NONE', #641, #1180, #395, .T. ) ;
#260 = ORIENTED_EDGE ( 'NONE', *, *, #953, .F. ) ;
#261 = CARTESIAN_POINT ( 'NONE',  ( 8.166666666666667851, 0.3100000000000014966, -4.999999999999999112 ) ) ;
#262 = ORIENTED_EDGE ( 'NONE', *, *, #893, .F. ) ;
#263 = DIRECTION ( 'NONE',  ( 0.000000000000000000, 1.000000000000000000, 0.000000000000000000 ) ) ;
#264 = VERTEX_POINT ( 'NONE', #755 ) ;
#265 = AXIS2_PLACEMENT_3D ( 'NONE', #861, #1050, #1130 ) ;
#266 = EDGE_CURVE ( 'NONE', #1065, #641, #409, .T. ) ;
#267 = VECTOR ( 'NONE', #89, 1000.000000000000000 ) ;
#268 = AXIS2_PLACEMENT_3D ( 'NONE', #601, #1170, #879 ) ;
#269 = DIRECTION ( 'NONE',  ( 0.000000000000000000, -0.000000000000000000, 1.000000000000000000 ) ) ;
#270 = ORIENTED_EDGE ( 'NONE', *, *, #210, .F. ) ;
#271 = CARTESIAN_POINT ( 'NONE',  ( 8.166666666666667851, 14.91666666666666607, -4.416666666666666075 ) ) ;
#272 = ORIENTED_EDGE ( 'NONE', *, *, #1080, .F. ) ;
#273 = ORIENTED_EDGE ( 'NONE', *, *, #1091, .T. ) ;
#274 = FACE_OUTER_BOUND ( 'NONE', #284, .T. ) ;
#275 = EDGE_CURVE ( 'NONE', #6, #2, #1119, .T. ) ;
#276 = ORIENTED_EDGE ( 'NONE', *, *, #518, .F. ) ;
#277 = CARTESIAN_POINT ( 'NONE',  ( 5.666666666666673180, 0.000000000000000000, -4.999999999999999112 ) ) ;
#278 = ORIENTED_EDGE ( 'NONE', *, *, #375, .T. ) ;
#279 = EDGE_LOOP ( 'NONE', ( #272, #371, #561, #1163 ) ) ;
#280 = LINE ( 'NONE', #719, #267 ) ;
#281 = ORIENTED_EDGE ( 'NONE', *, *, #282, .F. ) ;
#282 = EDGE_CURVE ( 'NONE', #553, #357, #1035, .T. ) ;
#283 = DIRECTION ( 'NONE',  ( 1.000000000000000000, 0.000000000000000000, 0.000000000000000000 ) ) ;
#284 = EDGE_LOOP ( 'NONE', ( #1090, #262 ) ) ;
#285 = VECTOR ( 'NONE', #875, 1000.000000000000000 ) ;
#286 = CARTESIAN_POINT ( 'NONE',  ( 0.000000000000000000, 0.000000000000000000, 0.000000000000000000 ) ) ;
#287 = AXIS2_PLACEMENT_3D ( 'NONE', #630, #163, #1192 ) ;
#288 = AXIS2_PLACEMENT_3D ( 'NONE', #416, #900, #692 ) ;
#289 = ORIENTED_EDGE ( 'NONE', *, *, #627, .T. ) ;
#290 = PRODUCT_DEFINITION_FORMATION_WITH_SPECIFIED_SOURCE ( 'ANY', '', #1121, .NOT_KNOWN. ) ;
#291 = EDGE_CURVE ( 'NONE', #182, #527, #489, .T. ) ;
#292 = CARTESIAN_POINT ( 'NONE',  ( -8.166666666666669627, 15.50000000000000000, 5.000000000000001776 ) ) ;
#293 = DIRECTION ( 'NONE',  ( -1.000000000000000000, -1.115179377413661760E-15, 0.000000000000000000 ) ) ;
#294 = ORIENTED_EDGE ( 'NONE', *, *, #1183, .T. ) ;
#295 = FACE_OUTER_BOUND ( 'NONE', #533, .T. ) ;
#296 = DIRECTION ( 'NONE',  ( 0.000000000000000000, -0.000000000000000000, 1.000000000000000000 ) ) ;
#297 = PRESENTATION_STYLE_ASSIGNMENT (( #682 ) ) ;
#298 = DIRECTION ( 'NONE',  ( 0.000000000000000000, 0.000000000000000000, -1.000000000000000000 ) ) ;
#299 = ORIENTED_EDGE ( 'NONE', *, *, #687, .F. ) ;
#300 = FACE_OUTER_BOUND ( 'NONE', #829, .T. ) ;
#301 = PLANE ( 'NONE',  #1042 ) ;
#302 = LINE ( 'NONE', #673, #800 ) ;
#303 = ADVANCED_FACE ( 'NONE', ( #484 ), #581, .T. ) ;
#304 = FACE_OUTER_BOUND ( 'NONE', #841, .T. ) ;
#305 = VECTOR ( 'NONE', #952, 1000.000000000000000 ) ;
#306 = DIRECTION ( 'NONE',  ( 0.000000000000000000, 1.000000000000000000, -0.000000000000000000 ) ) ;
#307 = AXIS2_PLACEMENT_3D ( 'NONE', #181, #548, #269 ) ;
#308 = VECTOR ( 'NONE', #653, 1000.000000000000000 ) ;
#309 = CARTESIAN_POINT ( 'NONE',  ( -8.166666666666667851, 0.3099999999999994982, -4.416666666666665186 ) ) ;
#310 = DIRECTION ( 'NONE',  ( 1.000000000000000000, -0.000000000000000000, -0.000000000000000000 ) ) ;
#311 = SURFACE_SIDE_STYLE ('',( #403 ) ) ;
#312 = EDGE_CURVE ( 'NONE', #820, #376, #206, .T. ) ;
#313 = SURFACE_STYLE_FILL_AREA ( #28 ) ;
#314 =( NAMED_UNIT ( * ) SI_UNIT ( $, .STERADIAN. ) SOLID_ANGLE_UNIT ( ) );
#315 = DIRECTION ( 'NONE',  ( -0.000000000000000000, -0.000000000000000000, 1.000000000000000000 ) ) ;
#316 = CARTESIAN_POINT ( 'NONE',  ( -8.750000000000000000, 14.91666666666666607, -4.999999999999998224 ) ) ;
#317 =( LENGTH_UNIT ( ) NAMED_UNIT ( * ) SI_UNIT ( .MILLI., .METRE. ) );
#318 = LINE ( 'NONE', #417, #110 ) ;
#319 = LINE ( 'NONE', #620, #573 ) ;
#320 = AXIS2_PLACEMENT_3D ( 'NONE', #766, #476, #494 ) ;
#321 = COLOUR_RGB ( '',0.2509803921568627416, 0.2509803921568627416, 0.2509803921568627416 ) ;
#322 = MANIFOLD_SOLID_BREP ( 'Boss-Extrude2[2]', #167 ) ;
#323 = CARTESIAN_POINT ( 'NONE',  ( -8.166666666666669627, 0.000000000000000000, -4.999999999999999112 ) ) ;
#324 = AXIS2_PLACEMENT_3D ( 'NONE', #609, #622, #160 ) ;
#325 = LINE ( 'NONE', #804, #890 ) ;
#326 = ADVANCED_FACE ( 'NONE', ( #334 ), #946, .F. ) ;
#327 = DIRECTION ( 'NONE',  ( -2.973811673103098158E-15, -1.000000000000000000, 0.000000000000000000 ) ) ;
#328 = FACE_OUTER_BOUND ( 'NONE', #1198, .T. ) ;
#329 = ORIENTED_EDGE ( 'NONE', *, *, #943, .T. ) ;
#330 = FACE_OUTER_BOUND ( 'NONE', #279, .T. ) ;
#331 = DIRECTION ( 'NONE',  ( 0.000000000000000000, 1.000000000000000000, 0.000000000000000000 ) ) ;
#332 = ORIENTED_EDGE ( 'NONE', *, *, #1107, .F. ) ;
#333 = LINE ( 'NONE', #412, #1193 ) ;
#334 = FACE_OUTER_BOUND ( 'NONE', #997, .T. ) ;
#335 = ORIENTED_EDGE ( 'NONE', *, *, #44, .F. ) ;
#336 = DIRECTION ( 'NONE',  ( 0.000000000000000000, 1.000000000000000000, 0.000000000000000000 ) ) ;
#337 = CYLINDRICAL_SURFACE ( 'NONE', #1196, 0.3999999999999993006 ) ;
#338 = ORIENTED_EDGE ( 'NONE', *, *, #831, .T. ) ;
#339 = UNCERTAINTY_MEASURE_WITH_UNIT (LENGTH_MEASURE( 1.000000000000000082E-05 ), #1127, 'distance_accuracy_value', 'NONE');
#340 = ADVANCED_FACE ( 'NONE', ( #780 ), #66, .T. ) ;
#341 = LINE ( 'NONE', #710, #949 ) ;
#342 = ORIENTED_EDGE ( 'NONE', *, *, #161, .T. ) ;
#343 = DIRECTION ( 'NONE',  ( 0.000000000000000000, 0.000000000000000000, 1.000000000000000000 ) ) ;
#344 = STYLED_ITEM ( 'NONE', ( #228 ), #725 ) ;
#345 = EDGE_LOOP ( 'NONE', ( #373, #905, #914 ) ) ;
#346 = VECTOR ( 'NONE', #120, 1000.000000000000000 ) ;
#347 = VECTOR ( 'NONE', #1036, 1000.000000000000000 ) ;
#348 = DIRECTION ( 'NONE',  ( 0.000000000000000000, 0.000000000000000000, -1.000000000000000000 ) ) ;
#349 = VERTEX_POINT ( 'NONE', #528 ) ;
#350 = EDGE_CURVE ( 'NONE', #924, #937, #705, .T. ) ;
#351 = FACE_OUTER_BOUND ( 'NONE', #1112, .T. ) ;
#352 = ORIENTED_EDGE ( 'NONE', *, *, #970, .F. ) ;
#353 = EDGE_LOOP ( 'NONE', ( #976, #96, #706, #335 ) ) ;
#354 = LINE ( 'NONE', #551, #1025 ) ;
#355 = ORIENTED_EDGE ( 'NONE', *, *, #1107, .T. ) ;
#356 = CARTESIAN_POINT ( 'NONE',  ( -8.166666666666667851, 14.91666666666666607, -4.999999999999998224 ) ) ;
#357 = VERTEX_POINT ( 'NONE', #243 ) ;
#358 = FACE_OUTER_BOUND ( 'NONE', #803, .T. ) ;
#359 = ORIENTED_EDGE ( 'NONE', *, *, #1015, .F. ) ;
#360 = AXIS2_PLACEMENT_3D ( 'NONE', #539, #966, #857 ) ;
#361 = CIRCLE ( 'NONE', #113, 0.3999999999999993006 ) ;
#362 = ORIENTED_EDGE ( 'NONE', *, *, #806, .F. ) ;
#363 = CIRCLE ( 'NONE', #442, 0.5833333333333332593 ) ;
#364 = PLANE ( 'NONE',  #1044 ) ;
#365 = VERTEX_POINT ( 'NONE', #1071 ) ;
#366 = DIRECTION ( 'NONE',  ( 1.000000000000000000, 0.000000000000000000, -0.000000000000000000 ) ) ;
#367 = ORIENTED_EDGE ( 'NONE', *, *, #969, .T. ) ;
#368 = ORIENTED_EDGE ( 'NONE', *, *, #33, .T. ) ;
#369 = EDGE_CURVE ( 'NONE', #365, #1068, #967, .T. ) ;
#370 = CARTESIAN_POINT ( 'NONE',  ( 5.666666666666673180, 0.000000000000000000, 4.708333333333333037 ) ) ;
#371 = ORIENTED_EDGE ( 'NONE', *, *, #777, .F. ) ;
#372 = LINE ( 'NONE', #1202, #964 ) ;
#373 = ORIENTED_EDGE ( 'NONE', *, *, #661, .T. ) ;
#374 = DIRECTION ( 'NONE',  ( 0.000000000000000000, 1.000000000000000000, -1.486905836551549079E-15 ) ) ;
#375 = EDGE_CURVE ( 'NONE', #742, #144, #904, .T. ) ;
#376 = VERTEX_POINT ( 'NONE', #509 ) ;
#377 = DIRECTION ( 'NONE',  ( -1.000000000000000000, 0.000000000000000000, 0.000000000000000000 ) ) ;
#378 = ORIENTED_EDGE ( 'NONE', *, *, #169, .F. ) ;
#379 = VECTOR ( 'NONE', #666, 1000.000000000000000 ) ;
#380 = PLANE ( 'NONE',  #712 ) ;
#381 = COLOUR_RGB ( '',0.7921568627450980005, 0.8196078431372548767, 0.9333333333333333481 ) ;
#382 = AXIS2_PLACEMENT_3D ( 'NONE', #987, #48, #439 ) ;
#383 = ORIENTED_EDGE ( 'NONE', *, *, #282, .T. ) ;
#384 = PLANE ( 'NONE',  #320 ) ;
#385 = EDGE_CURVE ( 'NONE', #77, #820, #794, .T. ) ;
#386 = DIRECTION ( 'NONE',  ( 1.000000000000000000, -0.000000000000000000, -0.000000000000000000 ) ) ;
#387 = CYLINDRICAL_SURFACE ( 'NONE', #93, 0.5833333333333332593 ) ;
#388 = VERTEX_POINT ( 'NONE', #802 ) ;
#389 = DIRECTION ( 'NONE',  ( 0.000000000000000000, 0.000000000000000000, -1.000000000000000000 ) ) ;
#390 = CARTESIAN_POINT ( 'NONE',  ( 8.166666666666667851, 0.3100000000000014966, -4.999999999999999112 ) ) ;
#391 = DIRECTION ( 'NONE',  ( -1.029992063861228226E-15, 1.000000000000000000, -0.000000000000000000 ) ) ;
#392 = CARTESIAN_POINT ( 'NONE',  ( 0.000000000000000000, 0.000000000000000000, 0.000000000000000000 ) ) ;
#393 = DIRECTION ( 'NONE',  ( 0.000000000000000000, -1.000000000000000000, 0.000000000000000000 ) ) ;
#394 = CARTESIAN_POINT ( 'NONE',  ( -8.166666666666667851, 14.91666666666666607, 4.416666666666668739 ) ) ;
#395 = LINE ( 'NONE', #118, #70 ) ;
#396 = CARTESIAN_POINT ( 'NONE',  ( 8.750000000000000000, 0.000000000000000000, -4.999999999999999112 ) ) ;
#397 = CARTESIAN_POINT ( 'NONE',  ( -8.750000000000000000, 15.50000000000000000, -4.416666666666666075 ) ) ;
#398 = ADVANCED_FACE ( 'NONE', ( #237 ), #1168, .T. ) ;
#399 = VECTOR ( 'NONE', #306, 1000.000000000000000 ) ;
#400 = APPLICATION_CONTEXT ( 'automotive_design' ) ;
#401 = DIRECTION ( 'NONE',  ( 0.000000000000000000, 1.000000000000000000, -0.000000000000000000 ) ) ;
#402 = AXIS2_PLACEMENT_3D ( 'NONE', #862, #845, #1131 ) ;
#403 = SURFACE_STYLE_FILL_AREA ( #854 ) ;
#404 = CARTESIAN_POINT ( 'NONE',  ( -8.166666666666667851, 14.91666666666666607, -4.416666666666665186 ) ) ;
#405 = VECTOR ( 'NONE', #667, 1000.000000000000000 ) ;
#406 = CARTESIAN_POINT ( 'NONE',  ( 8.166666666666667851, 0.3100000000000012745, 4.416666666666666075 ) ) ;
#407 = EDGE_CURVE ( 'NONE', #88, #924, #807, .T. ) ;
#408 = CARTESIAN_POINT ( 'NONE',  ( 8.166666666666667851, 15.50000000000000000, 4.999999999999999112 ) ) ;
#409 = LINE ( 'NONE', #316, #1133 ) ;
#410 = CARTESIAN_POINT ( 'NONE',  ( -5.666666666666667851, 0.000000000000000000, -4.999999999999999112 ) ) ;
#411 =( GEOMETRIC_REPRESENTATION_CONTEXT ( 3 ) GLOBAL_UNCERTAINTY_ASSIGNED_CONTEXT ( ( #801 ) ) GLOBAL_UNIT_ASSIGNED_CONTEXT ( ( #684, #207, #1139 ) ) REPRESENTATION_CONTEXT ( 'NONE', 'WORKASPACE' ) );
#412 = CARTESIAN_POINT ( 'NONE',  ( 8.166666666666667851, 15.50000000000000000, -4.999999999999999112 ) ) ;
#413 = DIRECTION ( 'NONE',  ( -1.029992063861228226E-15, 1.000000000000000000, -0.000000000000000000 ) ) ;
#414 = EDGE_CURVE ( 'NONE', #1169, #736, #341, .T. ) ;
#415 = EDGE_CURVE ( 'NONE', #365, #182, #1151, .T. ) ;
#416 = CARTESIAN_POINT ( 'NONE',  ( 0.000000000000000000, 0.000000000000000000, 0.000000000000000000 ) ) ;
#417 = CARTESIAN_POINT ( 'NONE',  ( -8.750000000000000000, 0.3100000000000014966, -4.708333333333333037 ) ) ;
#418 = CARTESIAN_POINT ( 'NONE',  ( -8.166666666666669627, 0.3099999999999994982, -4.999999999999998224 ) ) ;
#419 = EDGE_LOOP ( 'NONE', ( #621, #663, #722, #844 ) ) ;
#420 = VECTOR ( 'NONE', #54, 1000.000000000000000 ) ;
#421 = DIRECTION ( 'NONE',  ( -1.029992063861228226E-15, 1.000000000000000000, -0.000000000000000000 ) ) ;
#422 = VECTOR ( 'NONE', #1051, 1000.000000000000000 ) ;
#423 = LINE ( 'NONE', #708, #557 ) ;
#424 = ORIENTED_EDGE ( 'NONE', *, *, #518, .T. ) ;
#425 = CARTESIAN_POINT ( 'NONE',  ( 5.666666666666673180, 0.000000000000000000, 5.000000000000000888 ) ) ;
#426 = CARTESIAN_POINT ( 'NONE',  ( 8.750000000000000000, 15.50000000000000000, -4.999999999999999112 ) ) ;
#427 = ORIENTED_EDGE ( 'NONE', *, *, #204, .T. ) ;
#428 = DIRECTION ( 'NONE',  ( -1.000000000000000000, 0.000000000000000000, -0.000000000000000000 ) ) ;
#429 = LINE ( 'NONE', #797, #1152 ) ;
#430 = PRODUCT_DEFINITION ( 'UNKNOWN', '', #290, #603 ) ;
#431 = ORIENTED_EDGE ( 'NONE', *, *, #467, .F. ) ;
#432 = DIRECTION ( 'NONE',  ( 0.000000000000000000, -1.000000000000000000, 0.000000000000000000 ) ) ;
#433 = ORIENTED_EDGE ( 'NONE', *, *, #445, .F. ) ;
#434 = DIRECTION ( 'NONE',  ( -0.000000000000000000, 1.000000000000000000, -0.000000000000000000 ) ) ;
#435 = ORIENTED_EDGE ( 'NONE', *, *, #596, .F. ) ;
#436 = DIRECTION ( 'NONE',  ( 0.000000000000000000, 0.000000000000000000, -1.000000000000000000 ) ) ;
#437 = ORIENTED_EDGE ( 'NONE', *, *, #998, .T. ) ;
#438 = VECTOR ( 'NONE', #158, 1000.000000000000000 ) ;
#439 = DIRECTION ( 'NONE',  ( -1.000000000000000000, 0.000000000000000000, 0.000000000000000000 ) ) ;
#440 = CIRCLE ( 'NONE', #168, 0.5833333333333332593 ) ;
#441 = ORIENTED_EDGE ( 'NONE', *, *, #95, .T. ) ;
#442 = AXIS2_PLACEMENT_3D ( 'NONE', #406, #775, #293 ) ;
#443 = AXIS2_PLACEMENT_3D ( 'NONE', #22, #103, #565 ) ;
#444 = DIRECTION ( 'NONE',  ( 1.000000000000000000, 0.000000000000000000, -0.000000000000000000 ) ) ;
#445 = EDGE_CURVE ( 'NONE', #1180, #59, #319, .T. ) ;
#446 = VERTEX_POINT ( 'NONE', #989 ) ;
#447 = FACE_OUTER_BOUND ( 'NONE', #549, .T. ) ;
#448 = ORIENTED_EDGE ( 'NONE', *, *, #596, .T. ) ;
#449 = CARTESIAN_POINT ( 'NONE',  ( 7.500000000000000000, 0.3100000000000003864, 0.000000000000000000 ) ) ;
#450 = ORIENTED_EDGE ( 'NONE', *, *, #1091, .F. ) ;
#451 = EDGE_CURVE ( 'NONE', #43, #709, #440, .T. ) ;
#452 = EDGE_CURVE ( 'NONE', #1068, #527, #616, .T. ) ;
#453 = CARTESIAN_POINT ( 'NONE',  ( -8.750000000000000000, -0.3100000000000014966, -4.708333333333333037 ) ) ;
#454 = EDGE_LOOP ( 'NONE', ( #1195, #990, #523, #981, #329, #4, #100, #542, #1079, #657 ) ) ;
#455 = ORIENTED_EDGE ( 'NONE', *, *, #999, .F. ) ;
#456 = FACE_OUTER_BOUND ( 'NONE', #513, .T. ) ;
#457 = EDGE_LOOP ( 'NONE', ( #55, #367, #759 ) ) ;
#458 = PLANE ( 'NONE',  #810 ) ;
#459 = ORIENTED_EDGE ( 'NONE', *, *, #901, .T. ) ;
#460 = VECTOR ( 'NONE', #315, 1000.000000000000000 ) ;
#461 = CIRCLE ( 'NONE', #1094, 0.5833333333333332593 ) ;
#462 = ORIENTED_EDGE ( 'NONE', *, *, #791, .F. ) ;
#463 = MECHANICAL_DESIGN_GEOMETRIC_PRESENTATION_REPRESENTATION (  '', ( #250 ), #1115 ) ;
#464 = PLANE ( 'NONE',  #150 ) ;
#465 = DIRECTION ( 'NONE',  ( -0.000000000000000000, -0.000000000000000000, 1.000000000000000000 ) ) ;
#466 = CARTESIAN_POINT ( 'NONE',  ( 0.000000000000000000, 0.000000000000000000, -4.708333333333333037 ) ) ;
#467 = EDGE_CURVE ( 'NONE', #647, #614, #972, .T. ) ;
#468 = VERTEX_POINT ( 'NONE', #418 ) ;
#469 = DIRECTION ( 'NONE',  ( -1.486905836551549079E-15, -0.000000000000000000, 1.000000000000000000 ) ) ;
#470 = VERTEX_POINT ( 'NONE', #786 ) ;
#471 = CARTESIAN_POINT ( 'NONE',  ( 8.166666666666667851, 0.000000000000000000, -4.708333333333333037 ) ) ;
#472 = VERTEX_POINT ( 'NONE', #1154 ) ;
#473 = DIRECTION ( 'NONE',  ( -0.000000000000000000, -0.000000000000000000, 1.000000000000000000 ) ) ;
#474 = ADVANCED_FACE ( 'NONE', ( #328 ), #697, .T. ) ;
#475 = EDGE_LOOP ( 'NONE', ( #153, #623, #1124 ) ) ;
#476 = DIRECTION ( 'NONE',  ( 0.000000000000000000, 0.000000000000000000, -1.000000000000000000 ) ) ;
#477 = CARTESIAN_POINT ( 'NONE',  ( -5.666666666666667851, 0.000000000000000000, 4.708333333333333037 ) ) ;
#478 = EDGE_LOOP ( 'NONE', ( #1116, #607, #645, #832 ) ) ;
#479 = AXIS2_PLACEMENT_3D ( 'NONE', #956, #122, #26 ) ;
#480 = DIRECTION ( 'NONE',  ( 0.000000000000000000, 1.000000000000000000, 0.000000000000000000 ) ) ;
#481 = VECTOR ( 'NONE', #1083, 1000.000000000000000 ) ;
#482 = AXIS2_PLACEMENT_3D ( 'NONE', #309, #487, #104 ) ;
#483 = DIRECTION ( 'NONE',  ( -0.000000000000000000, 1.000000000000000000, -0.000000000000000000 ) ) ;
#484 = FACE_OUTER_BOUND ( 'NONE', #64, .T. ) ;
#485 = EDGE_CURVE ( 'NONE', #472, #69, #515, .T. ) ;
#486 = DIRECTION ( 'NONE',  ( 0.000000000000000000, 0.000000000000000000, 1.000000000000000000 ) ) ;
#487 = DIRECTION ( 'NONE',  ( 8.363845330602488837E-16, 1.000000000000000000, 0.000000000000000000 ) ) ;
#488 = CARTESIAN_POINT ( 'NONE',  ( -8.166666666666669627, 0.000000000000000000, -4.999999999999999112 ) ) ;
#489 = LINE ( 'NONE', #21, #1001 ) ;
#490 =( NAMED_UNIT ( * ) SI_UNIT ( $, .STERADIAN. ) SOLID_ANGLE_UNIT ( ) );
#491 = DIRECTION ( 'NONE',  ( 0.000000000000000000, -1.000000000000000000, -0.000000000000000000 ) ) ;
#492 = ADVANCED_FACE ( 'NONE', ( #933 ), #537, .T. ) ;
#493 = DIRECTION ( 'NONE',  ( 0.000000000000000000, -0.000000000000000000, 1.000000000000000000 ) ) ;
#494 = DIRECTION ( 'NONE',  ( -1.000000000000000000, 0.000000000000000000, -0.000000000000000000 ) ) ;
#495 = CARTESIAN_POINT ( 'NONE',  ( -5.666666666666667851, 0.000000000000000000, -4.708333333333333037 ) ) ;
#496 = ADVANCED_FACE ( 'NONE', ( #171 ), #364, .F. ) ;
#497 = LINE ( 'NONE', #488, #808 ) ;
#498 = MECHANICAL_DESIGN_GEOMETRIC_PRESENTATION_REPRESENTATION (  '', ( #344 ), #592 ) ;
#499 = DIRECTION ( 'NONE',  ( 0.000000000000000000, -0.000000000000000000, 1.000000000000000000 ) ) ;
#500 = VECTOR ( 'NONE', #955, 1000.000000000000000 ) ;
#501 = AXIS2_PLACEMENT_3D ( 'NONE', #114, #947, #714 ) ;
#502 = VECTOR ( 'NONE', #377, 1000.000000000000000 ) ;
#503 = CARTESIAN_POINT ( 'NONE',  ( -8.166666666666669627, 0.3100000000000014966, -4.708333333333333037 ) ) ;
#504 = CARTESIAN_POINT ( 'NONE',  ( -8.166666666666669627, 15.50000000000000000, 4.416666666666668739 ) ) ;
#505 = CARTESIAN_POINT ( 'NONE',  ( 8.166666666666667851, 0.000000000000000000, -4.999999999999999112 ) ) ;
#506 = DIRECTION ( 'NONE',  ( -1.029992063861228226E-15, 1.000000000000000000, -0.000000000000000000 ) ) ;
#507 = COLOUR_RGB ( '',0.7921568627450980005, 0.8196078431372548767, 0.9333333333333333481 ) ;
#508 = CARTESIAN_POINT ( 'NONE',  ( -8.166666666666667851, 15.50000000000000000, 4.416666666666668739 ) ) ;
#509 = CARTESIAN_POINT ( 'NONE',  ( 8.166666666666667851, 0.000000000000000000, 5.000000000000000888 ) ) ;
#510 = ORIENTED_EDGE ( 'NONE', *, *, #266, .F. ) ;
#511 = PRESENTATION_STYLE_ASSIGNMENT (( #974 ) ) ;
#512 = PLANE ( 'NONE',  #170 ) ;
#513 = EDGE_LOOP ( 'NONE', ( #1017, #431, #995, #62 ) ) ;
#514 = DIRECTION ( 'NONE',  ( 0.000000000000000000, 1.000000000000000000, -0.000000000000000000 ) ) ;
#515 = LINE ( 'NONE', #889, #420 ) ;
#516 = AXIS2_PLACEMENT_3D ( 'NONE', #41, #236, #688 ) ;
#517 = ORIENTED_EDGE ( 'NONE', *, *, #112, .F. ) ;
#518 = EDGE_CURVE ( 'NONE', #470, #1169, #743, .T. ) ;
#519 = CARTESIAN_POINT ( 'NONE',  ( 5.666666666666673180, 0.000000000000000000, -4.708333333333333037 ) ) ;
#520 = CARTESIAN_POINT ( 'NONE',  ( 8.166666666666667851, 0.3100000000000014966, -4.999999999999999112 ) ) ;
#521 = ORIENTED_EDGE ( 'NONE', *, *, #1038, .F. ) ;
#522 = DIRECTION ( 'NONE',  ( 1.000000000000000000, 0.000000000000000000, 0.000000000000000000 ) ) ;
#523 = ORIENTED_EDGE ( 'NONE', *, *, #223, .T. ) ;
#524 = FACE_OUTER_BOUND ( 'NONE', #457, .T. ) ;
#525 = DIRECTION ( 'NONE',  ( -0.000000000000000000, -0.000000000000000000, 1.000000000000000000 ) ) ;
#526 = EDGE_CURVE ( 'NONE', #553, #1099, #280, .T. ) ;
#527 = VERTEX_POINT ( 'NONE', #1092 ) ;
#528 = CARTESIAN_POINT ( 'NONE',  ( 5.666666666666673180, 0.3100000000000013856, -4.708333333333333037 ) ) ;
#529 = VERTEX_POINT ( 'NONE', #729 ) ;
#530 = DIRECTION ( 'NONE',  ( -1.000000000000000000, -1.029992063861228226E-15, 0.000000000000000000 ) ) ;
#531 = ORIENTED_EDGE ( 'NONE', *, *, #33, .F. ) ;
#532 = CARTESIAN_POINT ( 'NONE',  ( -8.750000000000000000, -0.3100000000000014966, 4.708333333333333037 ) ) ;
#533 = EDGE_LOOP ( 'NONE', ( #299, #510, #1012, #818 ) ) ;
#534 = DIRECTION ( 'NONE',  ( 0.000000000000000000, -0.000000000000000000, 1.000000000000000000 ) ) ;
#535 = VERTEX_POINT ( 'NONE', #356 ) ;
#536 = VECTOR ( 'NONE', #1134, 1000.000000000000000 ) ;
#537 = CYLINDRICAL_SURFACE ( 'NONE', #287, 0.5833333333333332593 ) ;
#538 = ADVANCED_FACE ( 'NONE', ( #1181 ), #176, .T. ) ;
#539 = CARTESIAN_POINT ( 'NONE',  ( -8.166666666666667851, 14.91666666666666607, -4.416666666666665186 ) ) ;
#540 = DIRECTION ( 'NONE',  ( 0.000000000000000000, -1.000000000000000000, 0.000000000000000000 ) ) ;
#541 = ORIENTED_EDGE ( 'NONE', *, *, #169, .T. ) ;
#542 = ORIENTED_EDGE ( 'NONE', *, *, #407, .T. ) ;
#543 = CARTESIAN_POINT ( 'NONE',  ( -5.666666666666667851, 0.000000000000000000, 4.708333333333333037 ) ) ;
#544 = VERTEX_POINT ( 'NONE', #543 ) ;
#545 = LINE ( 'NONE', #923, #574 ) ;
#546 = ORIENTED_EDGE ( 'NONE', *, *, #799, .T. ) ;
#547 = ORIENTED_EDGE ( 'NONE', *, *, #652, .T. ) ;
#548 = DIRECTION ( 'NONE',  ( 0.000000000000000000, 1.000000000000000000, 0.000000000000000000 ) ) ;
#549 = EDGE_LOOP ( 'NONE', ( #1009, #1102, #378, #252 ) ) ;
#550 = EDGE_CURVE ( 'NONE', #647, #1006, #1000, .T. ) ;
#551 = CARTESIAN_POINT ( 'NONE',  ( 0.000000000000000000, 0.000000000000000000, 4.708333333333333037 ) ) ;
#552 = COLOUR_RGB ( '',0.7921568627450980005, 0.8196078431372548767, 0.9333333333333333481 ) ;
#553 = VERTEX_POINT ( 'NONE', #638 ) ;
#554 = CIRCLE ( 'NONE', #963, 0.5833333333333332593 ) ;
#555 = CIRCLE ( 'NONE', #785, 0.5833333333333332593 ) ;
#556 = ORIENTED_EDGE ( 'NONE', *, *, #831, .F. ) ;
#557 = VECTOR ( 'NONE', #434, 1000.000000000000000 ) ;
#558 = DIRECTION ( 'NONE',  ( -1.000000000000000000, -1.084202172485506406E-15, 0.000000000000000000 ) ) ;
#559 = DIRECTION ( 'NONE',  ( 1.029992063861228226E-15, -1.000000000000000000, 0.000000000000000000 ) ) ;
#560 = ADVANCED_FACE ( 'NONE', ( #624 ), #915, .T. ) ;
#561 = ORIENTED_EDGE ( 'NONE', *, *, #1055, .F. ) ;
#562 = DIRECTION ( 'NONE',  ( 1.029992063861228226E-15, -1.000000000000000000, 0.000000000000000000 ) ) ;
#563 = ORIENTED_EDGE ( 'NONE', *, *, #588, .T. ) ;
#564 =( NAMED_UNIT ( * ) SI_UNIT ( $, .STERADIAN. ) SOLID_ANGLE_UNIT ( ) );
#565 = DIRECTION ( 'NONE',  ( 0.000000000000000000, 0.000000000000000000, -1.000000000000000000 ) ) ;
#566 = PLANE ( 'NONE',  #1056 ) ;
#567 = EDGE_LOOP ( 'NONE', ( #822, #149, #635, #851 ) ) ;
#568 = PLANE ( 'NONE',  #249 ) ;
#569 = PLANE ( 'NONE',  #226 ) ;
#570 = PLANE ( 'NONE',  #402 ) ;
#571 = LINE ( 'NONE', #757, #12 ) ;
#572 = DIRECTION ( 'NONE',  ( -0.000000000000000000, -1.486905836551549079E-15, -1.000000000000000000 ) ) ;
#573 = VECTOR ( 'NONE', #689, 1000.000000000000000 ) ;
#574 = VECTOR ( 'NONE', #1189, 1000.000000000000000 ) ;
#575 = DIRECTION ( 'NONE',  ( 1.000000000000000000, -0.000000000000000000, 0.000000000000000000 ) ) ;
#576 = EDGE_CURVE ( 'NONE', #1006, #388, #461, .T. ) ;
#577 =( LENGTH_UNIT ( ) NAMED_UNIT ( * ) SI_UNIT ( .MILLI., .METRE. ) );
#578 = CARTESIAN_POINT ( 'NONE',  ( -8.166666666666667851, 15.50000000000000000, -4.416666666666666075 ) ) ;
#579 = ORIENTED_EDGE ( 'NONE', *, *, #445, .T. ) ;
#580 = LINE ( 'NONE', #1140, #460 ) ;
#581 = CYLINDRICAL_SURFACE ( 'NONE', #479, 0.5833333333333332593 ) ;
#582 = ADVANCED_FACE ( 'NONE', ( #274 ), #723, .F. ) ;
#583 = APPLICATION_PROTOCOL_DEFINITION ( 'draft international standard', 'automotive_design', 1998, #400 ) ;
#584 = DIRECTION ( 'NONE',  ( -0.000000000000000000, -0.000000000000000000, 1.000000000000000000 ) ) ;
#585 = DIRECTION ( 'NONE',  ( 0.000000000000000000, 0.000000000000000000, 1.000000000000000000 ) ) ;
#586 = CARTESIAN_POINT ( 'NONE',  ( 7.900000000000009237, -10.13137084989847203, 4.898587196589406912E-17 ) ) ;
#587 = CARTESIAN_POINT ( 'NONE',  ( -5.666666666666667851, 0.3099999999999999978, 5.000000000000000888 ) ) ;
#588 = EDGE_CURVE ( 'NONE', #993, #825, #1087, .T. ) ;
#589 =( LENGTH_UNIT ( ) NAMED_UNIT ( * ) SI_UNIT ( .MILLI., .METRE. ) );
#590 = VECTOR ( 'NONE', #137, 1000.000000000000000 ) ;
#591 = LINE ( 'NONE', #133, #212 ) ;
#592 =( GEOMETRIC_REPRESENTATION_CONTEXT ( 3 ) GLOBAL_UNCERTAINTY_ASSIGNED_CONTEXT ( ( #702 ) ) GLOBAL_UNIT_ASSIGNED_CONTEXT ( ( #317, #245, #617 ) ) REPRESENTATION_CONTEXT ( 'NONE', 'WORKASPACE' ) );
#593 = DIRECTION ( 'NONE',  ( 0.000000000000000000, 0.000000000000000000, -1.000000000000000000 ) ) ;
#594 = CIRCLE ( 'NONE', #869, 0.3999999999999995226 ) ;
#595 = CARTESIAN_POINT ( 'NONE',  ( 5.666666666666673180, 0.3100000000000013856, 5.000000000000000888 ) ) ;
#596 = EDGE_CURVE ( 'NONE', #535, #139, #1019, .T. ) ;
#597 = CARTESIAN_POINT ( 'NONE',  ( -8.166666666666669627, 14.91666666666666607, 4.416666666666668739 ) ) ;
#598 = DIRECTION ( 'NONE',  ( 0.000000000000000000, 0.000000000000000000, 1.000000000000000000 ) ) ;
#599 = EDGE_LOOP ( 'NONE', ( #815, #332, #1086, #718 ) ) ;
#600 = SURFACE_SIDE_STYLE ('',( #135 ) ) ;
#601 = CARTESIAN_POINT ( 'NONE',  ( 8.166666666666667851, 14.91666666666666607, 4.416666666666666075 ) ) ;
#602 = ORIENTED_EDGE ( 'NONE', *, *, #627, .F. ) ;
#603 = PRODUCT_DEFINITION_CONTEXT ( 'detailed design', #903, 'design' ) ;
#604 = STYLED_ITEM ( 'NONE', ( #954 ), #649 ) ;
#605 = DIRECTION ( 'NONE',  ( 0.000000000000000000, 1.000000000000000000, -0.000000000000000000 ) ) ;
#606 = CARTESIAN_POINT ( 'NONE',  ( -5.666666666666667851, 0.000000000000000000, -4.999999999999999112 ) ) ;
#607 = ORIENTED_EDGE ( 'NONE', *, *, #846, .F. ) ;
#608 = SURFACE_STYLE_FILL_AREA ( #878 ) ;
#609 = CARTESIAN_POINT ( 'NONE',  ( 8.166666666666667851, 0.3100000000000012745, -4.416666666666666075 ) ) ;
#610 = ORIENTED_EDGE ( 'NONE', *, *, #312, .T. ) ;
#611 = DIRECTION ( 'NONE',  ( 1.000000000000000000, -2.973811673103098158E-15, -0.000000000000000000 ) ) ;
#612 = CARTESIAN_POINT ( 'NONE',  ( 8.750000000000000000, 0.000000000000000000, 4.999999999999999112 ) ) ;
#613 = AXIS2_PLACEMENT_3D ( 'NONE', #779, #696, #1063 ) ;
#614 = VERTEX_POINT ( 'NONE', #1187 ) ;
#615 = EDGE_CURVE ( 'NONE', #2, #244, #361, .T. ) ;
#616 = CIRCLE ( 'NONE', #213, 0.4000000000000001887 ) ;
#617 =( NAMED_UNIT ( * ) SI_UNIT ( $, .STERADIAN. ) SOLID_ANGLE_UNIT ( ) );
#618 = CARTESIAN_POINT ( 'NONE',  ( -8.166666666666669627, 14.91666666666666607, 5.000000000000001776 ) ) ;
#619 = ORIENTED_EDGE ( 'NONE', *, *, #369, .T. ) ;
#620 = CARTESIAN_POINT ( 'NONE',  ( -8.750000000000000000, 0.3099999999999999978, -4.999999999999999112 ) ) ;
#621 = ORIENTED_EDGE ( 'NONE', *, *, #637, .T. ) ;
#622 = DIRECTION ( 'NONE',  ( 1.115179377413665310E-15, -1.000000000000000000, -0.000000000000000000 ) ) ;
#623 = ORIENTED_EDGE ( 'NONE', *, *, #1069, .T. ) ;
#624 = FACE_OUTER_BOUND ( 'NONE', #823, .T. ) ;
#625 = EDGE_LOOP ( 'NONE', ( #985, #988, #257, #289 ) ) ;
#626 = CARTESIAN_POINT ( 'NONE',  ( 8.750000000000000000, 14.91666666666666607, -4.416666666666666075 ) ) ;
#627 = EDGE_CURVE ( 'NONE', #244, #2, #10, .T. ) ;
#628 = EDGE_LOOP ( 'NONE', ( #157, #241, #639, #164 ) ) ;
#629 = ADVANCED_FACE ( 'NONE', ( #456 ), #464, .F. ) ;
#630 = CARTESIAN_POINT ( 'NONE',  ( 6.567167444769341847E-16, 14.91666666666666607, 4.416666666666667851 ) ) ;
#631 = VERTEX_POINT ( 'NONE', #370 ) ;
#632 = PRESENTATION_LAYER_ASSIGNMENT (  '', '', ( #1150 ) ) ;
#633 = DIRECTION ( 'NONE',  ( -1.029992063861228226E-15, 1.000000000000000000, -0.000000000000000000 ) ) ;
#634 = AXIS2_PLACEMENT_3D ( 'NONE', #1145, #251, #598 ) ;
#635 = ORIENTED_EDGE ( 'NONE', *, *, #46, .F. ) ;
#636 = VECTOR ( 'NONE', #263, 1000.000000000000000 ) ;
#637 = EDGE_CURVE ( 'NONE', #529, #6, #983, .T. ) ;
#638 = CARTESIAN_POINT ( 'NONE',  ( -5.666666666666667851, 0.000000000000000000, -4.999999999999999112 ) ) ;
#639 = ORIENTED_EDGE ( 'NONE', *, *, #671, .T. ) ;
#640 = DIRECTION ( 'NONE',  ( 0.000000000000000000, 0.000000000000000000, -1.000000000000000000 ) ) ;
#641 = VERTEX_POINT ( 'NONE', #5 ) ;
#642 = VERTEX_POINT ( 'NONE', #203 ) ;
#643 = CARTESIAN_POINT ( 'NONE',  ( 8.750000000000000000, 15.50000000000000000, -4.416666666666666075 ) ) ;
#644 = ADVANCED_FACE ( 'NONE', ( #107 ), #380, .F. ) ;
#645 = ORIENTED_EDGE ( 'NONE', *, *, #1113, .T. ) ;
#646 = LINE ( 'NONE', #749, #1174 ) ;
#647 = VERTEX_POINT ( 'NONE', #1125 ) ;
#648 = ORIENTED_EDGE ( 'NONE', *, *, #953, .T. ) ;
#649 = ADVANCED_BREP_SHAPE_REPRESENTATION ( 'ECWFE2W155JA', ( #739, #725, #322, #501 ), #411 ) ;
#650 = CARTESIAN_POINT ( 'NONE',  ( 8.166666666666667851, 14.91666666666666607, -4.416666666666666075 ) ) ;
#651 = EDGE_LOOP ( 'NONE', ( #255, #895, #383, #459 ) ) ;
#652 = EDGE_CURVE ( 'NONE', #795, #88, #842, .T. ) ;
#653 = DIRECTION ( 'NONE',  ( -0.000000000000000000, 1.000000000000000000, 0.000000000000000000 ) ) ;
#654 =( GEOMETRIC_REPRESENTATION_CONTEXT ( 3 ) GLOBAL_UNCERTAINTY_ASSIGNED_CONTEXT ( ( #339 ) ) GLOBAL_UNIT_ASSIGNED_CONTEXT ( ( #1127, #1041, #564 ) ) REPRESENTATION_CONTEXT ( 'NONE', 'WORKASPACE' ) );
#655 = AXIS2_PLACEMENT_3D ( 'NONE', #650, #737, #97 ) ;
#656 = AXIS2_PLACEMENT_3D ( 'NONE', #271, #283, #178 ) ;
#657 = ORIENTED_EDGE ( 'NONE', *, *, #210, .T. ) ;
#658 = VECTOR ( 'NONE', #540, 1000.000000000000000 ) ;
#659 = DIRECTION ( 'NONE',  ( 1.000000000000000000, -8.363845330602464185E-16, 0.000000000000000000 ) ) ;
#660 = ORIENTED_EDGE ( 'NONE', *, *, #1167, .T. ) ;
#661 = EDGE_CURVE ( 'NONE', #144, #1065, #849, .T. ) ;
#662 = DIRECTION ( 'NONE',  ( 1.000000000000000000, 1.243643668439254289E-16, 0.000000000000000000 ) ) ;
#663 = ORIENTED_EDGE ( 'NONE', *, *, #275, .T. ) ;
#664 = CYLINDRICAL_SURFACE ( 'NONE', #1075, 0.5833333333333332593 ) ;
#665 = SPHERICAL_SURFACE ( 'NONE', #265, 0.5833333333333333703 ) ;
#666 = DIRECTION ( 'NONE',  ( -0.000000000000000000, -0.000000000000000000, 1.000000000000000000 ) ) ;
#667 = DIRECTION ( 'NONE',  ( -1.000000000000000000, 0.000000000000000000, 0.000000000000000000 ) ) ;
#668 = ADVANCED_FACE ( 'NONE', ( #300 ), #568, .F. ) ;
#669 = ORIENTED_EDGE ( 'NONE', *, *, #312, .F. ) ;
#670 = CARTESIAN_POINT ( 'NONE',  ( -7.500000000000000000, 0.3099999999999850098, 0.000000000000000000 ) ) ;
#671 = EDGE_CURVE ( 'NONE', #544, #937, #938, .T. ) ;
#672 = CARTESIAN_POINT ( 'NONE',  ( -5.666666666666667851, 0.3100000000000014966, -4.708333333333333037 ) ) ;
#673 = CARTESIAN_POINT ( 'NONE',  ( -8.750000000000000000, 0.3100000000000014966, -4.708333333333333037 ) ) ;
#674 = LINE ( 'NONE', #860, #346 ) ;
#675 = VECTOR ( 'NONE', #1153, 1000.000000000000000 ) ;
#676 = AXIS2_PLACEMENT_3D ( 'NONE', #449, #838, #1007 ) ;
#677 = CIRCLE ( 'NONE', #912, 0.4000000000000001887 ) ;
#678 = DIRECTION ( 'NONE',  ( 0.000000000000000000, -1.000000000000000000, 0.000000000000000000 ) ) ;
#679 = PLANE ( 'NONE',  #1021 ) ;
#680 = CARTESIAN_POINT ( 'NONE',  ( -8.166666666666669627, 15.50000000000000000, -4.999999999999998224 ) ) ;
#681 = DIRECTION ( 'NONE',  ( 0.000000000000000000, 1.000000000000000000, 0.000000000000000000 ) ) ;
#682 = SURFACE_STYLE_USAGE ( .BOTH. , #311 ) ;
#683 = ADVANCED_FACE ( 'NONE', ( #295 ), #664, .T. ) ;
#684 =( LENGTH_UNIT ( ) NAMED_UNIT ( * ) SI_UNIT ( .MILLI., .METRE. ) );
#685 = LINE ( 'NONE', #1052, #49 ) ;
#686 = CARTESIAN_POINT ( 'NONE',  ( 8.750000000000000000, 0.000000000000000000, 4.999999999999999112 ) ) ;
#687 = EDGE_CURVE ( 'NONE', #641, #742, #555, .T. ) ;
#688 = DIRECTION ( 'NONE',  ( 0.000000000000000000, 0.000000000000000000, -1.000000000000000000 ) ) ;
#689 = DIRECTION ( 'NONE',  ( -0.000000000000000000, -0.000000000000000000, 1.000000000000000000 ) ) ;
#690 = VECTOR ( 'NONE', #991, 1000.000000000000000 ) ;
#691 = CARTESIAN_POINT ( 'NONE',  ( -8.166666666666669627, 0.000000000000000000, -4.999999999999999112 ) ) ;
#692 = DIRECTION ( 'NONE',  ( 0.000000000000000000, -0.000000000000000000, 1.000000000000000000 ) ) ;
#693 = EDGE_CURVE ( 'NONE', #59, #88, #554, .T. ) ;
#694 = ADVANCED_FACE ( 'NONE', ( #330 ), #47, .T. ) ;
#695 = ORIENTED_EDGE ( 'NONE', *, *, #291, .F. ) ;
#696 = DIRECTION ( 'NONE',  ( 0.000000000000000000, 1.000000000000000000, 0.000000000000000000 ) ) ;
#697 = CYLINDRICAL_SURFACE ( 'NONE', #71, 0.5833333333333332593 ) ;
#698 = EDGE_LOOP ( 'NONE', ( #462, #424, #270, #927 ) ) ;
#699 = DIRECTION ( 'NONE',  ( 1.000000000000000000, 0.000000000000000000, 0.000000000000000000 ) ) ;
#700 = DIRECTION ( 'NONE',  ( -1.000000000000000000, -0.000000000000000000, 1.486905836551548832E-16 ) ) ;
#701 = EDGE_LOOP ( 'NONE', ( #579, #427, #177, #734 ) ) ;
#702 = UNCERTAINTY_MEASURE_WITH_UNIT (LENGTH_MEASURE( 1.000000000000000082E-05 ), #317, 'distance_accuracy_value', 'NONE');
#703 = ADVANCED_FACE ( 'NONE', ( #146 ), #892, .T. ) ;
#704 = DIRECTION ( 'NONE',  ( 0.000000000000000000, 0.000000000000000000, -1.000000000000000000 ) ) ;
#705 = LINE ( 'NONE', #612, #438 ) ;
#706 = ORIENTED_EDGE ( 'NONE', *, *, #1129, .F. ) ;
#707 = FILL_AREA_STYLE_COLOUR ( '', #381 ) ;
#708 = CARTESIAN_POINT ( 'NONE',  ( 8.166666666666667851, 15.50000000000000000, 4.999999999999999112 ) ) ;
#709 = VERTEX_POINT ( 'NONE', #796 ) ;
#710 = CARTESIAN_POINT ( 'NONE',  ( -3.855295372161696676E-17, 0.3100000000000007194, 5.000000000000000888 ) ) ;
#711 = ADVANCED_FACE ( 'NONE', ( #524 ), #1164, .T. ) ;
#712 = AXIS2_PLACEMENT_3D ( 'NONE', #670, #562, #1027 ) ;
#713 = EDGE_LOOP ( 'NONE', ( #166, #362, #1171, #809 ) ) ;
#714 = DIRECTION ( 'NONE',  ( 1.000000000000000000, 0.000000000000000000, 0.000000000000000000 ) ) ;
#715 = CIRCLE ( 'NONE', #850, 0.4000000000000004663 ) ;
#716 = CIRCLE ( 'NONE', #771, 0.5833333333333332593 ) ;
#717 = CYLINDRICAL_SURFACE ( 'NONE', #382, 0.4000000000000010214 ) ;
#718 = ORIENTED_EDGE ( 'NONE', *, *, #550, .F. ) ;
#719 = CARTESIAN_POINT ( 'NONE',  ( 8.750000000000000000, 0.000000000000000000, -4.999999999999999112 ) ) ;
#720 = VERTEX_POINT ( 'NONE', #519 ) ;
#721 = DIRECTION ( 'NONE',  ( -1.029992063861228226E-15, 1.000000000000000000, 0.000000000000000000 ) ) ;
#722 = ORIENTED_EDGE ( 'NONE', *, *, #615, .T. ) ;
#723 = PLANE ( 'NONE',  #307 ) ;
#724 = ORIENTED_EDGE ( 'NONE', *, *, #1158, .T. ) ;
#725 = MANIFOLD_SOLID_BREP ( 'Boss-Extrude2[1]', #783 ) ;
#726 = DIRECTION ( 'NONE',  ( -1.000000000000000000, 0.000000000000000000, -0.000000000000000000 ) ) ;
#727 = ADVANCED_FACE ( 'NONE', ( #1146 ), #154, .T. ) ;
#728 = ORIENTED_EDGE ( 'NONE', *, *, #415, .T. ) ;
#729 = CARTESIAN_POINT ( 'NONE',  ( 7.100000000000004974, -4.500000000000000000, 0.000000000000000000 ) ) ;
#730 = ORIENTED_EDGE ( 'NONE', *, *, #74, .F. ) ;
#731 = CLOSED_SHELL ( 'NONE', ( #936, #1176, #155, #703, #1048, #340, #132, #668, #235, #85, #1148, #229, #629, #326, #201, #683, #19, #9, #474, #492, #303, #758, #711, #538, #65, #398, #1122, #694, #883, #816, #253, #496, #1100, #1023 ) ) ;
#732 = DIRECTION ( 'NONE',  ( 1.000000000000000000, 1.084202172485503842E-15, 0.000000000000000000 ) ) ;
#733 = VECTOR ( 'NONE', #413, 1000.000000000000000 ) ;
#734 = ORIENTED_EDGE ( 'NONE', *, *, #259, .T. ) ;
#735 = VECTOR ( 'NONE', #525, 1000.000000000000000 ) ;
#736 = VERTEX_POINT ( 'NONE', #595 ) ;
#737 = DIRECTION ( 'NONE',  ( 0.000000000000000000, 1.000000000000000000, 0.000000000000000000 ) ) ;
#738 = ORIENTED_EDGE ( 'NONE', *, *, #969, .F. ) ;
#739 = MANIFOLD_SOLID_BREP ( 'Cut-Extrude2', #731 ) ;
#740 = CARTESIAN_POINT ( 'NONE',  ( -5.666666666666667851, 0.000000000000000000, -4.708333333333333037 ) ) ;
#741 = ORIENTED_EDGE ( 'NONE', *, *, #467, .T. ) ;
#742 = VERTEX_POINT ( 'NONE', #578 ) ;
#743 = LINE ( 'NONE', #814, #828 ) ;
#744 = ORIENTED_EDGE ( 'NONE', *, *, #959, .F. ) ;
#745 = DIRECTION ( 'NONE',  ( -0.000000000000000000, 1.000000000000000000, -0.000000000000000000 ) ) ;
#746 = ORIENTED_EDGE ( 'NONE', *, *, #194, .T. ) ;
#747 = CARTESIAN_POINT ( 'NONE',  ( -8.166666666666669627, 0.3099999999999994982, 4.416666666666668739 ) ) ;
#748 = ORIENTED_EDGE ( 'NONE', *, *, #687, .T. ) ;
#749 = CARTESIAN_POINT ( 'NONE',  ( 5.666666666666673180, 0.000000000000000000, 4.708333333333333037 ) ) ;
#750 = AXIS2_PLACEMENT_3D ( 'NONE', #1106, #1204, #760 ) ;
#751 = CIRCLE ( 'NONE', #324, 0.5833333333333332593 ) ;
#752 = ORIENTED_EDGE ( 'NONE', *, *, #799, .F. ) ;
#753 = CARTESIAN_POINT ( 'NONE',  ( -8.166666666666669627, 0.3099999999999997202, -4.999999999999999112 ) ) ;
#754 = DIRECTION ( 'NONE',  ( -0.000000000000000000, -0.000000000000000000, 1.000000000000000000 ) ) ;
#755 = CARTESIAN_POINT ( 'NONE',  ( -8.166666666666669627, 0.000000000000000000, 4.708333333333333037 ) ) ;
#756 =( NAMED_UNIT ( * ) PLANE_ANGLE_UNIT ( ) SI_UNIT ( $, .RADIAN. ) );
#757 = CARTESIAN_POINT ( 'NONE',  ( -3.855295372161696676E-17, 0.3100000000000007194, -4.999999999999999112 ) ) ;
#758 = ADVANCED_FACE ( 'NONE', ( #968 ), #387, .T. ) ;
#759 = ORIENTED_EDGE ( 'NONE', *, *, #781, .F. ) ;
#760 = DIRECTION ( 'NONE',  ( 0.000000000000000000, 0.000000000000000000, 1.000000000000000000 ) ) ;
#761 = DIRECTION ( 'NONE',  ( 0.000000000000000000, -1.000000000000000000, 0.000000000000000000 ) ) ;
#762 = DIRECTION ( 'NONE',  ( -0.000000000000000000, -1.000000000000000000, 0.000000000000000000 ) ) ;
#763 = MECHANICAL_DESIGN_GEOMETRIC_PRESENTATION_REPRESENTATION (  '', ( #604 ), #870 ) ;
#764 = PRESENTATION_LAYER_ASSIGNMENT (  '', '', ( #604 ) ) ;
#765 = LINE ( 'NONE', #15, #1093 ) ;
#766 = CARTESIAN_POINT ( 'NONE',  ( -8.750000000000000000, -0.3100000000000014966, -4.708333333333333037 ) ) ;
#767 = DIRECTION ( 'NONE',  ( 1.000000000000000000, 0.000000000000000000, 0.000000000000000000 ) ) ;
#768 = AXIS2_PLACEMENT_3D ( 'NONE', #109, #493, #1137 ) ;
#769 = EDGE_CURVE ( 'NONE', #388, #742, #208, .T. ) ;
#770 = AXIS2_PLACEMENT_3D ( 'NONE', #1117, #852, #942 ) ;
#771 = AXIS2_PLACEMENT_3D ( 'NONE', #1037, #116, #864 ) ;
#772 = CARTESIAN_POINT ( 'NONE',  ( 8.166666666666667851, 0.000000000000000000, -4.708333333333333037 ) ) ;
#773 = FACE_OUTER_BOUND ( 'NONE', #567, .T. ) ;
#774 = DIRECTION ( 'NONE',  ( -1.000000000000000000, 0.000000000000000000, 4.956352788505162775E-17 ) ) ;
#775 = DIRECTION ( 'NONE',  ( 1.115179377413665310E-15, -1.000000000000000000, -0.000000000000000000 ) ) ;
#776 = CARTESIAN_POINT ( 'NONE',  ( -8.166666666666669627, 0.3099999999999997202, 5.000000000000000888 ) ) ;
#777 = EDGE_CURVE ( 'NONE', #468, #798, #674, .T. ) ;
#778 = CARTESIAN_POINT ( 'NONE',  ( 0.000000000000000000, 0.000000000000000000, -4.708333333333333037 ) ) ;
#779 = CARTESIAN_POINT ( 'NONE',  ( 0.000000000000000000, 15.50000000000000000, 0.000000000000000000 ) ) ;
#780 = FACE_OUTER_BOUND ( 'NONE', #698, .T. ) ;
#781 = EDGE_CURVE ( 'NONE', #43, #941, #716, .T. ) ;
#782 = CARTESIAN_POINT ( 'NONE',  ( -8.166666666666669627, 0.000000000000000000, 5.000000000000000888 ) ) ;
#783 = CLOSED_SHELL ( 'NONE', ( #560, #644, #922, #24 ) ) ;
#784 = CARTESIAN_POINT ( 'NONE',  ( 5.666666666666673180, 0.000000000000000000, -4.708333333333333037 ) ) ;
#785 = AXIS2_PLACEMENT_3D ( 'NONE', #209, #572, #374 ) ;
#786 = CARTESIAN_POINT ( 'NONE',  ( -5.666666666666667851, 0.3100000000000014966, 4.708333333333333037 ) ) ;
#787 = VECTOR ( 'NONE', #745, 1000.000000000000000 ) ;
#788 = ORIENTED_EDGE ( 'NONE', *, *, #999, .T. ) ;
#789 = SURFACE_STYLE_USAGE ( .BOTH. , #1156 ) ;
#790 = CARTESIAN_POINT ( 'NONE',  ( -5.666666666666667851, 0.3099999999999999978, -4.999999999999999112 ) ) ;
#791 = EDGE_CURVE ( 'NONE', #470, #544, #215, .T. ) ;
#792 = ORIENTED_EDGE ( 'NONE', *, *, #837, .F. ) ;
#793 = LINE ( 'NONE', #142, #826 ) ;
#794 = LINE ( 'NONE', #1162, #1076 ) ;
#795 = VERTEX_POINT ( 'NONE', #856 ) ;
#796 = CARTESIAN_POINT ( 'NONE',  ( 8.166666666666667851, 14.91666666666666607, 4.999999999999999112 ) ) ;
#797 = CARTESIAN_POINT ( 'NONE',  ( -8.166666666666669627, 0.000000000000000000, 4.708333333333333037 ) ) ;
#798 = VERTEX_POINT ( 'NONE', #503 ) ;
#799 = EDGE_CURVE ( 'NONE', #468, #535, #222, .T. ) ;
#800 = VECTOR ( 'NONE', #386, 1000.000000000000000 ) ;
#801 = UNCERTAINTY_MEASURE_WITH_UNIT (LENGTH_MEASURE( 1.000000000000000082E-05 ), #684, 'distance_accuracy_value', 'NONE');
#802 = CARTESIAN_POINT ( 'NONE',  ( 8.166666666666667851, 15.50000000000000000, -4.416666666666666963 ) ) ;
#803 = EDGE_LOOP ( 'NONE', ( #352, #232, #185, #746 ) ) ;
#804 = CARTESIAN_POINT ( 'NONE',  ( -8.750000000000000000, 0.3100000000000014966, 4.708333333333333037 ) ) ;
#805 = ORIENTED_EDGE ( 'NONE', *, *, #868, .F. ) ;
#806 = EDGE_CURVE ( 'NONE', #1006, #941, #129, .T. ) ;
#807 = LINE ( 'NONE', #38, #128 ) ;
#808 = VECTOR ( 'NONE', #945, 1000.000000000000000 ) ;
#809 = ORIENTED_EDGE ( 'NONE', *, *, #161, .F. ) ;
#810 = AXIS2_PLACEMENT_3D ( 'NONE', #917, #94, #1097 ) ;
#811 = AXIS2_PLACEMENT_3D ( 'NONE', #827, #1103, #165 ) ;
#812 = FACE_OUTER_BOUND ( 'NONE', #1098, .T. ) ;
#813 = ORIENTED_EDGE ( 'NONE', *, *, #868, .T. ) ;
#814 = CARTESIAN_POINT ( 'NONE',  ( -5.666666666666667851, 0.3099999999999999978, -4.999999999999999112 ) ) ;
#815 = ORIENTED_EDGE ( 'NONE', *, *, #986, .F. ) ;
#816 = ADVANCED_FACE ( 'NONE', ( #958 ), #874, .T. ) ;
#817 = PLANE ( 'NONE',  #52 ) ;
#818 = ORIENTED_EDGE ( 'NONE', *, *, #375, .F. ) ;
#819 = DIRECTION ( 'NONE',  ( 0.000000000000000000, -0.000000000000000000, 1.000000000000000000 ) ) ;
#820 = VERTEX_POINT ( 'NONE', #1049 ) ;
#821 = LINE ( 'NONE', #292, #658 ) ;
#822 = ORIENTED_EDGE ( 'NONE', *, *, #485, .T. ) ;
#823 = EDGE_LOOP ( 'NONE', ( #437, #619, #186, #695 ) ) ;
#824 = DIRECTION ( 'NONE',  ( -1.029992063861228226E-15, 1.000000000000000000, -0.000000000000000000 ) ) ;
#825 = VERTEX_POINT ( 'NONE', #18 ) ;
#826 = VECTOR ( 'NONE', #514, 1000.000000000000000 ) ;
#827 = CARTESIAN_POINT ( 'NONE',  ( 8.166666666666667851, 14.91666666666666607, -4.416666666666666075 ) ) ;
#828 = VECTOR ( 'NONE', #256, 1000.000000000000000 ) ;
#829 = EDGE_LOOP ( 'NONE', ( #197, #902, #180, #1191 ) ) ;
#830 = CIRCLE ( 'NONE', #656, 0.5833333333333332593 ) ;
#831 = EDGE_CURVE ( 'NONE', #631, #820, #1128, .T. ) ;
#832 = ORIENTED_EDGE ( 'NONE', *, *, #1184, .F. ) ;
#833 = CARTESIAN_POINT ( 'NONE',  ( 8.750000000000000000, 15.50000000000000000, 4.999999999999999112 ) ) ;
#834 = LINE ( 'NONE', #92, #90 ) ;
#835 = PLANE ( 'NONE',  #130 ) ;
#836 = ORIENTED_EDGE ( 'NONE', *, *, #652, .F. ) ;
#837 = EDGE_CURVE ( 'NONE', #468, #1180, #1004, .T. ) ;
#838 = DIRECTION ( 'NONE',  ( 1.029992063861228226E-15, -1.000000000000000000, 0.000000000000000000 ) ) ;
#839 = EDGE_LOOP ( 'NONE', ( #788, #141, #891, #175 ) ) ;
#840 = LINE ( 'NONE', #1089, #787 ) ;
#841 = EDGE_LOOP ( 'NONE', ( #98, #13 ) ) ;
#842 = LINE ( 'NONE', #753, #1135 ) ;
#843 = PRODUCT_RELATED_PRODUCT_CATEGORY ( 'part', '', ( #1121 ) ) ;
#844 = ORIENTED_EDGE ( 'NONE', *, *, #1062, .F. ) ;
#845 = DIRECTION ( 'NONE',  ( -1.486905836551548832E-16, 0.000000000000000000, -1.000000000000000000 ) ) ;
#846 = EDGE_CURVE ( 'NONE', #1178, #925, #218, .T. ) ;
#847 = VECTOR ( 'NONE', #483, 1000.000000000000000 ) ;
#848 = CARTESIAN_POINT ( 'NONE',  ( 5.666666666666673180, 0.000000000000000000, -4.999999999999999112 ) ) ;
#849 = CIRCLE ( 'NONE', #770, 0.5833333333333332593 ) ;
#850 = AXIS2_PLACEMENT_3D ( 'NONE', #68, #1085, #894 ) ;
#851 = ORIENTED_EDGE ( 'NONE', *, *, #1167, .F. ) ;
#852 = DIRECTION ( 'NONE',  ( 0.000000000000000000, -0.000000000000000000, 1.000000000000000000 ) ) ;
#853 = CYLINDRICAL_SURFACE ( 'NONE', #982, 0.5833333333333332593 ) ;
#854 = FILL_AREA_STYLE ('',( #16 ) ) ;
#855 = FILL_AREA_STYLE_COLOUR ( '', #507 ) ;
#856 = CARTESIAN_POINT ( 'NONE',  ( -8.166666666666669627, 0.3100000000000014966, 4.708333333333333037 ) ) ;
#857 = DIRECTION ( 'NONE',  ( 1.000000000000000000, 0.000000000000000000, 0.000000000000000000 ) ) ;
#858 = CARTESIAN_POINT ( 'NONE',  ( 7.100000000000000533, 0.3099999999999999423, 0.000000000000000000 ) ) ;
#859 = EDGE_CURVE ( 'NONE', #614, #642, #363, .T. ) ;
#860 = CARTESIAN_POINT ( 'NONE',  ( -8.166666666666669627, 0.3099999999999997202, -4.999999999999999112 ) ) ;
#861 = CARTESIAN_POINT ( 'NONE',  ( -8.166666666666667851, 14.91666666666666607, 4.416666666666668739 ) ) ;
#862 = CARTESIAN_POINT ( 'NONE',  ( 8.750000000000000000, 15.50000000000000000, 4.999999999999999112 ) ) ;
#863 = DIRECTION ( 'NONE',  ( 0.000000000000000000, 1.000000000000000000, 0.000000000000000000 ) ) ;
#864 = DIRECTION ( 'NONE',  ( 1.000000000000000000, 0.000000000000000000, 0.000000000000000000 ) ) ;
#865 = CIRCLE ( 'NONE', #928, 0.5833333333333332593 ) ;
#866 = ORIENTED_EDGE ( 'NONE', *, *, #145, .T. ) ;
#867 = AXIS2_PLACEMENT_3D ( 'NONE', #56, #336, #699 ) ;
#868 = EDGE_CURVE ( 'NONE', #357, #248, #571, .T. ) ;
#869 = AXIS2_PLACEMENT_3D ( 'NONE', #57, #331, #975 ) ;
#870 =( GEOMETRIC_REPRESENTATION_CONTEXT ( 3 ) GLOBAL_UNCERTAINTY_ASSIGNED_CONTEXT ( ( #1160 ) ) GLOBAL_UNIT_ASSIGNED_CONTEXT ( ( #577, #756, #490 ) ) REPRESENTATION_CONTEXT ( 'NONE', 'WORKASPACE' ) );
#871 = AXIS2_PLACEMENT_3D ( 'NONE', #404, #17, #486 ) ;
#872 = CARTESIAN_POINT ( 'NONE',  ( 8.166666666666667851, 15.50000000000000000, 4.416666666666666075 ) ) ;
#873 = FACE_OUTER_BOUND ( 'NONE', #454, .T. ) ;
#874 = PLANE ( 'NONE',  #931 ) ;
#875 = DIRECTION ( 'NONE',  ( -0.000000000000000000, -0.000000000000000000, 1.000000000000000000 ) ) ;
#876 = DIRECTION ( 'NONE',  ( 4.956352788505162775E-17, -0.000000000000000000, 1.000000000000000000 ) ) ;
#877 = SHAPE_DEFINITION_REPRESENTATION ( #106, #649 ) ;
#878 = FILL_AREA_STYLE ('',( #707 ) ) ;
#879 = DIRECTION ( 'NONE',  ( 0.000000000000000000, 0.000000000000000000, 1.000000000000000000 ) ) ;
#880 = FACE_OUTER_BOUND ( 'NONE', #105, .T. ) ;
#881 = CARTESIAN_POINT ( 'NONE',  ( 8.166666666666667851, 14.91666666666666607, 4.416666666666666075 ) ) ;
#882 = ORIENTED_EDGE ( 'NONE', *, *, #46, .T. ) ;
#883 = ADVANCED_FACE ( 'NONE', ( #200 ), #566, .F. ) ;
#884 = DIRECTION ( 'NONE',  ( -1.000000000000000000, 0.000000000000000000, 0.000000000000000000 ) ) ;
#885 = CARTESIAN_POINT ( 'NONE',  ( -8.166666666666667851, 14.91666666666666607, -4.416666666666666075 ) ) ;
#886 = ORIENTED_EDGE ( 'NONE', *, *, #588, .F. ) ;
#887 = CARTESIAN_POINT ( 'NONE',  ( -5.666666666666667851, 0.000000000000000000, 5.000000000000000888 ) ) ;
#888 = AXIS2_PLACEMENT_3D ( 'NONE', #505, #134, #436 ) ;
#889 = CARTESIAN_POINT ( 'NONE',  ( 8.166666666666667851, 0.000000000000000000, -4.999999999999999112 ) ) ;
#890 = VECTOR ( 'NONE', #233, 1000.000000000000000 ) ;
#891 = ORIENTED_EDGE ( 'NONE', *, *, #791, .T. ) ;
#892 = PLANE ( 'NONE',  #227 ) ;
#893 = EDGE_CURVE ( 'NONE', #6, #529, #594, .T. ) ;
#894 = DIRECTION ( 'NONE',  ( 0.000000000000000000, 0.000000000000000000, 1.000000000000000000 ) ) ;
#895 = ORIENTED_EDGE ( 'NONE', *, *, #1, .F. ) ;
#896 = DIRECTION ( 'NONE',  ( -0.000000000000000000, 0.000000000000000000, 1.000000000000000000 ) ) ;
#897 = VERTEX_POINT ( 'NONE', #618 ) ;
#898 = APPLICATION_PROTOCOL_DEFINITION ( 'draft international standard', 'automotive_design', 1998, #903 ) ;
#899 = CARTESIAN_POINT ( 'NONE',  ( 7.500000000000009770, -10.13137084989847203, 0.000000000000000000 ) ) ;
#900 = DIRECTION ( 'NONE',  ( 0.000000000000000000, 1.000000000000000000, 0.000000000000000000 ) ) ;
#901 = EDGE_CURVE ( 'NONE', #357, #102, #40, .T. ) ;
#902 = ORIENTED_EDGE ( 'NONE', *, *, #846, .T. ) ;
#903 = APPLICATION_CONTEXT ( 'automotive_design' ) ;
#904 = LINE ( 'NONE', #152, #29 ) ;
#905 = ORIENTED_EDGE ( 'NONE', *, *, #44, .T. ) ;
#906 = DIRECTION ( 'NONE',  ( 1.000000000000000000, 0.000000000000000000, -1.486905836551548832E-16 ) ) ;
#907 = ORIENTED_EDGE ( 'NONE', *, *, #859, .F. ) ;
#908 = EDGE_CURVE ( 'NONE', #535, #742, #31, .T. ) ;
#909 = CARTESIAN_POINT ( 'NONE',  ( -7.499999999999989342, -10.13137084989848802, 0.000000000000000000 ) ) ;
#910 = VECTOR ( 'NONE', #605, 1000.000000000000000 ) ;
#911 = ORIENTED_EDGE ( 'NONE', *, *, #451, .F. ) ;
#912 = AXIS2_PLACEMENT_3D ( 'NONE', #1197, #559, #732 ) ;
#913 = CARTESIAN_POINT ( 'NONE',  ( 8.166666666666667851, 15.50000000000000000, -4.999999999999999112 ) ) ;
#914 = ORIENTED_EDGE ( 'NONE', *, *, #183, .F. ) ;
#915 = CYLINDRICAL_SURFACE ( 'NONE', #1173, 0.4000000000000010214 ) ;
#916 = ORIENTED_EDGE ( 'NONE', *, *, #407, .F. ) ;
#917 = CARTESIAN_POINT ( 'NONE',  ( 2.592792052486710354E-16, 0.3099999999999926703, -4.999999999999999112 ) ) ;
#918 = ORIENTED_EDGE ( 'NONE', *, *, #526, .T. ) ;
#919 = ORIENTED_EDGE ( 'NONE', *, *, #777, .T. ) ;
#920 = CARTESIAN_POINT ( 'NONE',  ( 7.500000000000000000, 0.3100000000000003864, 0.000000000000000000 ) ) ;
#921 = ORIENTED_EDGE ( 'NONE', *, *, #369, .F. ) ;
#922 = ADVANCED_FACE ( 'NONE', ( #812 ), #717, .T. ) ;
#923 = CARTESIAN_POINT ( 'NONE',  ( -8.166666666666669627, 0.000000000000000000, -4.708333333333333037 ) ) ;
#924 = VERTEX_POINT ( 'NONE', #782 ) ;
#925 = VERTEX_POINT ( 'NONE', #980 ) ;
#926 = DIRECTION ( 'NONE',  ( 1.029992063861228226E-15, -1.000000000000000000, 0.000000000000000000 ) ) ;
#927 = ORIENTED_EDGE ( 'NONE', *, *, #671, .F. ) ;
#928 = AXIS2_PLACEMENT_3D ( 'NONE', #394, #1118, #585 ) ;
#929 = DIRECTION ( 'NONE',  ( 1.000000000000000000, 0.000000000000000000, -0.000000000000000000 ) ) ;
#930 = VECTOR ( 'NONE', #473, 1000.000000000000000 ) ;
#931 = AXIS2_PLACEMENT_3D ( 'NONE', #410, #767, #30 ) ;
#932 = EDGE_LOOP ( 'NONE', ( #752, #195, #1186, #50 ) ) ;
#933 = FACE_OUTER_BOUND ( 'NONE', #1011, .T. ) ;
#934 = FACE_OUTER_BOUND ( 'NONE', #345, .T. ) ;
#935 = FACE_OUTER_BOUND ( 'NONE', #159, .T. ) ;
#936 = ADVANCED_FACE ( 'NONE', ( #156 ), #1067, .F. ) ;
#937 = VERTEX_POINT ( 'NONE', #1060 ) ;
#938 = LINE ( 'NONE', #101, #930 ) ;
#939 = EDGE_LOOP ( 'NONE', ( #1104, #556, #1072, #979 ) ) ;
#940 = CARTESIAN_POINT ( 'NONE',  ( 8.166666666666667851, 0.000000000000000000, -4.999999999999999112 ) ) ;
#941 = VERTEX_POINT ( 'NONE', #1179 ) ;
#942 = DIRECTION ( 'NONE',  ( 1.000000000000000000, 0.000000000000000000, 0.000000000000000000 ) ) ;
#943 = EDGE_CURVE ( 'NONE', #642, #709, #423, .T. ) ;
#944 = EDGE_CURVE ( 'NONE', #709, #897, #1149, .T. ) ;
#945 = DIRECTION ( 'NONE',  ( -0.000000000000000000, -0.000000000000000000, 1.000000000000000000 ) ) ;
#946 = PLANE ( 'NONE',  #126 ) ;
#947 = DIRECTION ( 'NONE',  ( 0.000000000000000000, 0.000000000000000000, 1.000000000000000000 ) ) ;
#948 = CARTESIAN_POINT ( 'NONE',  ( 8.750000000000000000, 14.91666666666666607, 4.999999999999999112 ) ) ;
#949 = VECTOR ( 'NONE', #1077, 1000.000000000000000 ) ;
#950 = VECTOR ( 'NONE', #633, 1000.000000000000000 ) ;
#951 = FACE_OUTER_BOUND ( 'NONE', #353, .T. ) ;
#952 = DIRECTION ( 'NONE',  ( -1.029992063861228226E-15, 1.000000000000000000, -0.000000000000000000 ) ) ;
#953 = EDGE_CURVE ( 'NONE', #144, #43, #1081, .T. ) ;
#954 = PRESENTATION_STYLE_ASSIGNMENT (( #1029 ) ) ;
#955 = DIRECTION ( 'NONE',  ( -0.000000000000000000, 1.000000000000000000, -0.000000000000000000 ) ) ;
#956 = CARTESIAN_POINT ( 'NONE',  ( -2.189055814923113210E-16, 14.91666666666666607, -4.416666666666666075 ) ) ;
#957 = FACE_OUTER_BOUND ( 'NONE', #932, .T. ) ;
#958 = FACE_OUTER_BOUND ( 'NONE', #651, .T. ) ;
#959 = EDGE_CURVE ( 'NONE', #795, #470, #325, .T. ) ;
#960 = CARTESIAN_POINT ( 'NONE',  ( 8.166666666666669627, 0.3100000000000014966, 4.708333333333333037 ) ) ;
#961 = FACE_OUTER_BOUND ( 'NONE', #67, .T. ) ;
#962 = AXIS2_PLACEMENT_3D ( 'NONE', #606, #522, #593 ) ;
#963 = AXIS2_PLACEMENT_3D ( 'NONE', #747, #1111, #659 ) ;
#964 = VECTOR ( 'NONE', #996, 1000.000000000000000 ) ;
#965 = VECTOR ( 'NONE', #774, 1000.000000000000000 ) ;
#966 = DIRECTION ( 'NONE',  ( 0.000000000000000000, 1.000000000000000000, 0.000000000000000000 ) ) ;
#967 = LINE ( 'NONE', #984, #733 ) ;
#968 = FACE_OUTER_BOUND ( 'NONE', #599, .T. ) ;
#969 = EDGE_CURVE ( 'NONE', #709, #941, #72, .T. ) ;
#970 = EDGE_CURVE ( 'NONE', #446, #736, #254, .T. ) ;
#971 = LINE ( 'NONE', #887, #590 ) ;
#972 = LINE ( 'NONE', #138, #91 ) ;
#973 = ORIENTED_EDGE ( 'NONE', *, *, #1055, .T. ) ;
#974 = SURFACE_STYLE_USAGE ( .BOTH. , #600 ) ;
#975 = DIRECTION ( 'NONE',  ( 0.000000000000000000, 0.000000000000000000, 1.000000000000000000 ) ) ;
#976 = ORIENTED_EDGE ( 'NONE', *, *, #204, .F. ) ;
#977 = PLANE ( 'NONE',  #613 ) ;
#978 = DIRECTION ( 'NONE',  ( 0.000000000000000000, -1.000000000000000000, 0.000000000000000000 ) ) ;
#979 = ORIENTED_EDGE ( 'NONE', *, *, #58, .T. ) ;
#980 = CARTESIAN_POINT ( 'NONE',  ( -8.166666666666669627, 0.000000000000000000, -4.708333333333333037 ) ) ;
#981 = ORIENTED_EDGE ( 'NONE', *, *, #74, .T. ) ;
#982 = AXIS2_PLACEMENT_3D ( 'NONE', #504, #678, #1046 ) ;
#983 = CIRCLE ( 'NONE', #750, 0.3999999999999995226 ) ;
#984 = CARTESIAN_POINT ( 'NONE',  ( -7.099999999999988987, -10.13137084989848802, 4.898587196589418622E-17 ) ) ;
#985 = ORIENTED_EDGE ( 'NONE', *, *, #275, .F. ) ;
#986 = EDGE_CURVE ( 'NONE', #993, #647, #751, .T. ) ;
#987 = CARTESIAN_POINT ( 'NONE',  ( -7.499999999999989342, -10.13137084989848802, 0.000000000000000000 ) ) ;
#988 = ORIENTED_EDGE ( 'NONE', *, *, #893, .T. ) ;
#989 = CARTESIAN_POINT ( 'NONE',  ( 5.666666666666674068, 0.3100000000000014966, 4.708333333333333037 ) ) ;
#990 = ORIENTED_EDGE ( 'NONE', *, *, #194, .F. ) ;
#991 = DIRECTION ( 'NONE',  ( -0.000000000000000000, -0.000000000000000000, 1.000000000000000000 ) ) ;
#992 = ADVANCED_FACE ( 'NONE', ( #351 ), #512, .T. ) ;
#993 = VERTEX_POINT ( 'NONE', #520 ) ;
#994 = DIRECTION ( 'NONE',  ( 0.000000000000000000, 0.000000000000000000, 1.000000000000000000 ) ) ;
#995 = ORIENTED_EDGE ( 'NONE', *, *, #550, .T. ) ;
#996 = DIRECTION ( 'NONE',  ( -0.000000000000000000, -0.000000000000000000, 1.000000000000000000 ) ) ;
#997 = EDGE_LOOP ( 'NONE', ( #660, #368, #805, #281, #918, #973, #546, #448, #355, #1028 ) ) ;
#998 = EDGE_CURVE ( 'NONE', #182, #365, #715, .T. ) ;
#999 = EDGE_CURVE ( 'NONE', #264, #795, #429, .T. ) ;
#1000 = LINE ( 'NONE', #643, #481 ) ;
#1001 = VECTOR ( 'NONE', #391, 1000.000000000000000 ) ;
#1002 = AXIS2_PLACEMENT_3D ( 'NONE', #899, #421, #884 ) ;
#1003 = CARTESIAN_POINT ( 'NONE',  ( 7.899999999999999467, 0.3100000000000008304, 4.898587196589409377E-17 ) ) ;
#1004 = CIRCLE ( 'NONE', #482, 0.5833333333333332593 ) ;
#1005 = PLANE ( 'NONE',  #214 ) ;
#1006 = VERTEX_POINT ( 'NONE', #626 ) ;
#1007 = DIRECTION ( 'NONE',  ( -1.000000000000000000, -1.084202172485506406E-15, 0.000000000000000000 ) ) ;
#1008 = ADVANCED_FACE ( 'NONE', ( #1165 ), #337, .T. ) ;
#1009 = ORIENTED_EDGE ( 'NONE', *, *, #1015, .T. ) ;
#1010 = CARTESIAN_POINT ( 'NONE',  ( -7.099999999999999645, 0.3099999999999853983, 4.898587196589421703E-17 ) ) ;
#1011 = EDGE_LOOP ( 'NONE', ( #79, #1082, #911, #260 ) ) ;
#1012 = ORIENTED_EDGE ( 'NONE', *, *, #661, .F. ) ;
#1013 = DIRECTION ( 'NONE',  ( -1.000000000000000000, 0.000000000000000000, 0.000000000000000000 ) ) ;
#1014 = ORIENTED_EDGE ( 'NONE', *, *, #1184, .T. ) ;
#1015 = EDGE_CURVE ( 'NONE', #69, #825, #246, .T. ) ;
#1016 = CARTESIAN_POINT ( 'NONE',  ( -8.166666666666669627, 0.000000000000000000, -4.999999999999999112 ) ) ;
#1017 = ORIENTED_EDGE ( 'NONE', *, *, #119, .T. ) ;
#1018 = ORIENTED_EDGE ( 'NONE', *, *, #452, .F. ) ;
#1019 = LINE ( 'NONE', #188, #51 ) ;
#1020 = FACE_OUTER_BOUND ( 'NONE', #75, .T. ) ;
#1021 = AXIS2_PLACEMENT_3D ( 'NONE', #125, #198, #499 ) ;
#1022 = PRESENTATION_LAYER_ASSIGNMENT (  '', '', ( #344 ) ) ;
#1023 = ADVANCED_FACE ( 'NONE', ( #447 ), #1005, .F. ) ;
#1024 = DIRECTION ( 'NONE',  ( 1.000000000000000000, 0.000000000000000000, 0.000000000000000000 ) ) ;
#1025 = VECTOR ( 'NONE', #929, 1000.000000000000000 ) ;
#1026 = ORIENTED_EDGE ( 'NONE', *, *, #1038, .T. ) ;
#1027 = DIRECTION ( 'NONE',  ( 1.000000000000000000, 1.029992063861228226E-15, 0.000000000000000000 ) ) ;
#1028 = ORIENTED_EDGE ( 'NONE', *, *, #1158, .F. ) ;
#1029 = SURFACE_STYLE_USAGE ( .BOTH. , #221 ) ;
#1030 =( NAMED_UNIT ( * ) PLANE_ANGLE_UNIT ( ) SI_UNIT ( $, .RADIAN. ) );
#1031 = EDGE_CURVE ( 'NONE', #446, #631, #646, .T. ) ;
#1032 = ORIENTED_EDGE ( 'NONE', *, *, #615, .F. ) ;
#1033 = CARTESIAN_POINT ( 'NONE',  ( -8.166666666666667851, 14.91666666666666607, 0.000000000000000000 ) ) ;
#1034 = LINE ( 'NONE', #20, #285 ) ;
#1035 = LINE ( 'NONE', #217, #399 ) ;
#1036 = DIRECTION ( 'NONE',  ( 0.000000000000000000, 1.000000000000000000, 0.000000000000000000 ) ) ;
#1037 = CARTESIAN_POINT ( 'NONE',  ( 8.166666666666667851, 14.91666666666666607, 4.416666666666666075 ) ) ;
#1038 = EDGE_CURVE ( 'NONE', #248, #349, #372, .T. ) ;
#1039 = DIRECTION ( 'NONE',  ( -1.000000000000000000, 0.000000000000000000, 0.000000000000000000 ) ) ;
#1040 = CARTESIAN_POINT ( 'NONE',  ( -8.750000000000000000, 15.50000000000000000, 5.000000000000001776 ) ) ;
#1041 =( NAMED_UNIT ( * ) PLANE_ANGLE_UNIT ( ) SI_UNIT ( $, .RADIAN. ) );
#1042 = AXIS2_PLACEMENT_3D ( 'NONE', #1040, #575, #211 ) ;
#1043 = DIRECTION ( 'NONE',  ( 0.000000000000000000, 0.000000000000000000, -1.000000000000000000 ) ) ;
#1044 = AXIS2_PLACEMENT_3D ( 'NONE', #532, #819, #444 ) ;
#1045 = PRESENTATION_LAYER_ASSIGNMENT (  '', '', ( #250 ) ) ;
#1046 = DIRECTION ( 'NONE',  ( 0.000000000000000000, 0.000000000000000000, -1.000000000000000000 ) ) ;
#1047 = LINE ( 'NONE', #686, #247 ) ;
#1048 = ADVANCED_FACE ( 'NONE', ( #358 ), #817, .F. ) ;
#1049 = CARTESIAN_POINT ( 'NONE',  ( 8.166666666666667851, 0.000000000000000000, 4.708333333333333037 ) ) ;
#1050 = DIRECTION ( 'NONE',  ( 0.000000000000000000, 1.000000000000000000, 0.000000000000000000 ) ) ;
#1051 = DIRECTION ( 'NONE',  ( -1.000000000000000000, 0.000000000000000000, 4.956352788505162775E-17 ) ) ;
#1052 = CARTESIAN_POINT ( 'NONE',  ( 5.666666666666673180, 0.000000000000000000, -4.999999999999999112 ) ) ;
#1053 = DIRECTION ( 'NONE',  ( 1.029992063861228226E-15, -1.000000000000000000, 0.000000000000000000 ) ) ;
#1054 = FILL_AREA_STYLE ('',( #1143 ) ) ;
#1055 = EDGE_CURVE ( 'NONE', #1099, #468, #840, .T. ) ;
#1056 = AXIS2_PLACEMENT_3D ( 'NONE', #848, #1123, #298 ) ;
#1057 = LINE ( 'NONE', #784, #675 ) ;
#1058 = CARTESIAN_POINT ( 'NONE',  ( -7.500000000000000000, 0.3099999999999850098, 0.000000000000000000 ) ) ;
#1059 = DIRECTION ( 'NONE',  ( -0.000000000000000000, 0.000000000000000000, 1.000000000000000000 ) ) ;
#1060 = CARTESIAN_POINT ( 'NONE',  ( -5.666666666666666963, 0.000000000000000000, 5.000000000000000888 ) ) ;
#1061 = EDGE_LOOP ( 'NONE', ( #450, #1018 ) ) ;
#1062 = EDGE_CURVE ( 'NONE', #529, #244, #76, .T. ) ;
#1063 = DIRECTION ( 'NONE',  ( 0.000000000000000000, -0.000000000000000000, 1.000000000000000000 ) ) ;
#1064 = CARTESIAN_POINT ( 'NONE',  ( 8.166666666666667851, 15.50000000000000000, 4.416666666666666075 ) ) ;
#1065 = VERTEX_POINT ( 'NONE', #1109 ) ;
#1066 = DIRECTION ( 'NONE',  ( -1.000000000000000000, 0.000000000000000000, -0.000000000000000000 ) ) ;
#1067 = PLANE ( 'NONE',  #288 ) ;
#1068 = VERTEX_POINT ( 'NONE', #1010 ) ;
#1069 = EDGE_CURVE ( 'NONE', #139, #388, #830, .T. ) ;
#1070 = FACE_OUTER_BOUND ( 'NONE', #1074, .T. ) ;
#1071 = CARTESIAN_POINT ( 'NONE',  ( -7.099999999999995204, -4.500000000000000000, 4.898587196589443890E-17 ) ) ;
#1072 = ORIENTED_EDGE ( 'NONE', *, *, #1031, .F. ) ;
#1073 = DIRECTION ( 'NONE',  ( -1.000000000000000000, 0.000000000000000000, 0.000000000000000000 ) ) ;
#1074 = EDGE_LOOP ( 'NONE', ( #648, #342, #1108, #278 ) ) ;
#1075 = AXIS2_PLACEMENT_3D ( 'NONE', #1033, #389, #1039 ) ;
#1076 = VECTOR ( 'NONE', #432, 1000.000000000000000 ) ;
#1077 = DIRECTION ( 'NONE',  ( 1.000000000000000000, 1.243643668439254289E-16, 0.000000000000000000 ) ) ;
#1078 = AXIS2_PLACEMENT_3D ( 'NONE', #885, #1157, #343 ) ;
#1079 = ORIENTED_EDGE ( 'NONE', *, *, #350, .T. ) ;
#1080 = EDGE_CURVE ( 'NONE', #798, #925, #545, .T. ) ;
#1081 = LINE ( 'NONE', #240, #1096 ) ;
#1082 = ORIENTED_EDGE ( 'NONE', *, *, #944, .F. ) ;
#1083 = DIRECTION ( 'NONE',  ( -0.000000000000000000, 1.000000000000000000, -0.000000000000000000 ) ) ;
#1084 = ORIENTED_EDGE ( 'NONE', *, *, #95, .F. ) ;
#1085 = DIRECTION ( 'NONE',  ( 0.000000000000000000, 1.000000000000000000, 0.000000000000000000 ) ) ;
#1086 = ORIENTED_EDGE ( 'NONE', *, *, #1142, .F. ) ;
#1087 = LINE ( 'NONE', #261, #1194 ) ;
#1088 = ORIENTED_EDGE ( 'NONE', *, *, #943, .F. ) ;
#1089 = CARTESIAN_POINT ( 'NONE',  ( -8.166666666666669627, 15.50000000000000000, -4.999999999999998224 ) ) ;
#1090 = ORIENTED_EDGE ( 'NONE', *, *, #637, .F. ) ;
#1091 = EDGE_CURVE ( 'NONE', #527, #1068, #677, .T. ) ;
#1092 = CARTESIAN_POINT ( 'NONE',  ( -7.900000000000000355, 0.3099999999999845657, 0.000000000000000000 ) ) ;
#1093 = VECTOR ( 'NONE', #310, 1000.000000000000000 ) ;
#1094 = AXIS2_PLACEMENT_3D ( 'NONE', #1101, #469, #73 ) ;
#1095 = ORIENTED_EDGE ( 'NONE', *, *, #908, .F. ) ;
#1096 = VECTOR ( 'NONE', #906, 1000.000000000000000 ) ;
#1097 = DIRECTION ( 'NONE',  ( 1.000000000000000000, -8.363845330602488837E-16, 0.000000000000000000 ) ) ;
#1098 = EDGE_LOOP ( 'NONE', ( #921, #728, #234, #273 ) ) ;
#1099 = VERTEX_POINT ( 'NONE', #1016 ) ;
#1100 = ADVANCED_FACE ( 'NONE', ( #1185 ), #835, .F. ) ;
#1101 = CARTESIAN_POINT ( 'NONE',  ( 8.166666666666667851, 14.91666666666666607, -4.416666666666666963 ) ) ;
#1102 = ORIENTED_EDGE ( 'NONE', *, *, #145, .F. ) ;
#1103 = DIRECTION ( 'NONE',  ( -0.000000000000000000, 1.000000000000000000, 0.000000000000000000 ) ) ;
#1104 = ORIENTED_EDGE ( 'NONE', *, *, #385, .T. ) ;
#1105 = ORIENTED_EDGE ( 'NONE', *, *, #908, .T. ) ;
#1106 = CARTESIAN_POINT ( 'NONE',  ( 7.500000000000004441, -4.500000000000000000, 0.000000000000000000 ) ) ;
#1107 = EDGE_CURVE ( 'NONE', #139, #993, #3, .T. ) ;
#1108 = ORIENTED_EDGE ( 'NONE', *, *, #769, .T. ) ;
#1109 = CARTESIAN_POINT ( 'NONE',  ( -8.750000000000000000, 14.91666666666666607, 4.416666666666668739 ) ) ;
#1110 = ORIENTED_EDGE ( 'NONE', *, *, #970, .T. ) ;
#1111 = DIRECTION ( 'NONE',  ( 8.363845330602488837E-16, 1.000000000000000000, 0.000000000000000000 ) ) ;
#1112 = EDGE_LOOP ( 'NONE', ( #602, #1032 ) ) ;
#1113 = EDGE_CURVE ( 'NONE', #1178, #102, #184, .T. ) ;
#1114 = DIRECTION ( 'NONE',  ( 0.000000000000000000, -1.000000000000000000, -0.000000000000000000 ) ) ;
#1115 =( GEOMETRIC_REPRESENTATION_CONTEXT ( 3 ) GLOBAL_UNCERTAINTY_ASSIGNED_CONTEXT ( ( #60 ) ) GLOBAL_UNIT_ASSIGNED_CONTEXT ( ( #589, #1030, #314 ) ) REPRESENTATION_CONTEXT ( 'NONE', 'WORKASPACE' ) );
#1116 = ORIENTED_EDGE ( 'NONE', *, *, #1080, .T. ) ;
#1117 = CARTESIAN_POINT ( 'NONE',  ( -8.166666666666667851, 14.91666666666666607, 4.416666666666668739 ) ) ;
#1118 = DIRECTION ( 'NONE',  ( 0.000000000000000000, 1.000000000000000000, 0.000000000000000000 ) ) ;
#1119 = LINE ( 'NONE', #586, #305 ) ;
#1120 = DIRECTION ( 'NONE',  ( 0.000000000000000000, -0.000000000000000000, 1.000000000000000000 ) ) ;
#1121 = PRODUCT ( 'ECWFE2W155JA', 'ECWFE2W155JA', '', ( #45 ) ) ;
#1122 = ADVANCED_FACE ( 'NONE', ( #935 ), #458, .T. ) ;
#1123 = DIRECTION ( 'NONE',  ( 1.000000000000000000, 0.000000000000000000, 0.000000000000000000 ) ) ;
#1124 = ORIENTED_EDGE ( 'NONE', *, *, #576, .F. ) ;
#1125 = CARTESIAN_POINT ( 'NONE',  ( 8.750000000000003553, 0.3100000000000021627, -4.416666666666666075 ) ) ;
#1126 = LINE ( 'NONE', #408, #847 ) ;
#1127 =( LENGTH_UNIT ( ) NAMED_UNIT ( * ) SI_UNIT ( .MILLI., .METRE. ) );
#1128 = LINE ( 'NONE', #23, #536 ) ;
#1129 = EDGE_CURVE ( 'NONE', #897, #88, #821, .T. ) ;
#1130 = DIRECTION ( 'NONE',  ( 1.000000000000000000, 0.000000000000000000, 0.000000000000000000 ) ) ;
#1131 = DIRECTION ( 'NONE',  ( -1.000000000000000000, 0.000000000000000000, 1.486905836551548832E-16 ) ) ;
#1132 = LINE ( 'NONE', #396, #965 ) ;
#1133 = VECTOR ( 'NONE', #111, 1000.000000000000000 ) ;
#1134 = DIRECTION ( 'NONE',  ( 1.000000000000000000, 0.000000000000000000, -0.000000000000000000 ) ) ;
#1135 = VECTOR ( 'NONE', #196, 1000.000000000000000 ) ;
#1136 = EDGE_CURVE ( 'NONE', #69, #720, #86, .T. ) ;
#1137 = DIRECTION ( 'NONE',  ( 1.000000000000000000, 0.000000000000000000, 0.000000000000000000 ) ) ;
#1138 = CARTESIAN_POINT ( 'NONE',  ( 8.166666666666667851, 0.000000000000000000, -4.999999999999999112 ) ) ;
#1139 =( NAMED_UNIT ( * ) SI_UNIT ( $, .STERADIAN. ) SOLID_ANGLE_UNIT ( ) );
#1140 = CARTESIAN_POINT ( 'NONE',  ( -8.166666666666669627, 0.000000000000000000, -4.999999999999999112 ) ) ;
#1141 = DIRECTION ( 'NONE',  ( 1.000000000000000000, -0.000000000000000000, -1.486905836551548832E-16 ) ) ;
#1142 = EDGE_CURVE ( 'NONE', #1006, #139, #131, .T. ) ;
#1143 = FILL_AREA_STYLE_COLOUR ( '', #321 ) ;
#1144 = DIRECTION ( 'NONE',  ( 1.000000000000000000, -0.000000000000000000, -0.000000000000000000 ) ) ;
#1145 = CARTESIAN_POINT ( 'NONE',  ( -7.499999999999995559, -4.500000000000000000, 0.000000000000000000 ) ) ;
#1146 = FACE_OUTER_BOUND ( 'NONE', #419, .T. ) ;
#1147 = EDGE_CURVE ( 'NONE', #264, #544, #354, .T. ) ;
#1148 = ADVANCED_FACE ( 'NONE', ( #957 ), #199, .T. ) ;
#1149 = LINE ( 'NONE', #63, #32 ) ;
#1150 = STYLED_ITEM ( 'NONE', ( #297 ), #322 ) ;
#1151 = CIRCLE ( 'NONE', #634, 0.4000000000000004663 ) ;
#1152 = VECTOR ( 'NONE', #258, 1000.000000000000000 ) ;
#1153 = DIRECTION ( 'NONE',  ( -0.000000000000000000, 1.000000000000000000, 0.000000000000000000 ) ) ;
#1154 = CARTESIAN_POINT ( 'NONE',  ( 8.166666666666667851, 0.000000000000000000, -4.999999999999999112 ) ) ;
#1155 = ORIENTED_EDGE ( 'NONE', *, *, #223, .F. ) ;
#1156 = SURFACE_SIDE_STYLE ('',( #608 ) ) ;
#1157 = DIRECTION ( 'NONE',  ( 1.000000000000000000, -0.000000000000000000, -0.000000000000000000 ) ) ;
#1158 = EDGE_CURVE ( 'NONE', #472, #993, #127, .T. ) ;
#1159 = EDGE_LOOP ( 'NONE', ( #359, #1190, #724, #563 ) ) ;
#1160 = UNCERTAINTY_MEASURE_WITH_UNIT (LENGTH_MEASURE( 1.000000000000000082E-05 ), #577, 'distance_accuracy_value', 'NONE');
#1161 = PLANE ( 'NONE',  #516 ) ;
#1162 = CARTESIAN_POINT ( 'NONE',  ( 8.166666666666667851, 0.000000000000000000, 4.708333333333333037 ) ) ;
#1163 = ORIENTED_EDGE ( 'NONE', *, *, #39, .T. ) ;
#1164 = SPHERICAL_SURFACE ( 'NONE', #867, 0.5833333333333333703 ) ;
#1165 = FACE_OUTER_BOUND ( 'NONE', #625, .T. ) ;
#1166 = ORIENTED_EDGE ( 'NONE', *, *, #693, .F. ) ;
#1167 = EDGE_CURVE ( 'NONE', #472, #238, #1132, .T. ) ;
#1168 = PLANE ( 'NONE',  #888 ) ;
#1169 = VERTEX_POINT ( 'NONE', #587 ) ;
#1170 = DIRECTION ( 'NONE',  ( 0.000000000000000000, 1.000000000000000000, 0.000000000000000000 ) ) ;
#1171 = ORIENTED_EDGE ( 'NONE', *, *, #576, .T. ) ;
#1172 = VECTOR ( 'NONE', #754, 1000.000000000000000 ) ;
#1173 = AXIS2_PLACEMENT_3D ( 'NONE', #909, #824, #1013 ) ;
#1174 = VECTOR ( 'NONE', #1114, 1000.000000000000000 ) ;
#1175 = DIRECTION ( 'NONE',  ( 1.000000000000000000, 0.000000000000000000, 0.000000000000000000 ) ) ;
#1176 = ADVANCED_FACE ( 'NONE', ( #961 ), #123, .F. ) ;
#1177 = CIRCLE ( 'NONE', #871, 0.5833333333333332593 ) ;
#1178 = VERTEX_POINT ( 'NONE', #495 ) ;
#1179 = CARTESIAN_POINT ( 'NONE',  ( 8.750000000000000000, 14.91666666666666607, 4.416666666666666075 ) ) ;
#1180 = VERTEX_POINT ( 'NONE', #11 ) ;
#1181 = FACE_OUTER_BOUND ( 'NONE', #475, .T. ) ;
#1182 = ORIENTED_EDGE ( 'NONE', *, *, #119, .F. ) ;
#1183 = EDGE_CURVE ( 'NONE', #535, #641, #1177, .T. ) ;
#1184 = EDGE_CURVE ( 'NONE', #798, #102, #302, .T. ) ;
#1185 = FACE_OUTER_BOUND ( 'NONE', #939, .T. ) ;
#1186 = ORIENTED_EDGE ( 'NONE', *, *, #259, .F. ) ;
#1187 = CARTESIAN_POINT ( 'NONE',  ( 8.750000000000003553, 0.3100000000000021627, 4.416666666666666075 ) ) ;
#1188 = ORIENTED_EDGE ( 'NONE', *, *, #859, .T. ) ;
#1189 = DIRECTION ( 'NONE',  ( 0.000000000000000000, -1.000000000000000000, 0.000000000000000000 ) ) ;
#1190 = ORIENTED_EDGE ( 'NONE', *, *, #485, .F. ) ;
#1191 = ORIENTED_EDGE ( 'NONE', *, *, #526, .F. ) ;
#1192 = DIRECTION ( 'NONE',  ( 1.486905836551548586E-16, 0.000000000000000000, 1.000000000000000000 ) ) ;
#1193 = VECTOR ( 'NONE', #704, 1000.000000000000000 ) ;
#1194 = VECTOR ( 'NONE', #78, 1000.000000000000000 ) ;
#1195 = ORIENTED_EDGE ( 'NONE', *, *, #414, .T. ) ;
#1196 = AXIS2_PLACEMENT_3D ( 'NONE', #136, #506, #1073 ) ;
#1197 = CARTESIAN_POINT ( 'NONE',  ( -7.500000000000000000, 0.3099999999999850098, 0.000000000000000000 ) ) ;
#1198 = EDGE_LOOP ( 'NONE', ( #907, #1182, #738, #1088 ) ) ;
#1199 = EDGE_LOOP ( 'NONE', ( #455, #81, #916, #836 ) ) ;
#1200 = DIRECTION ( 'NONE',  ( -1.000000000000000000, 0.000000000000000000, 0.000000000000000000 ) ) ;
#1201 = CARTESIAN_POINT ( 'NONE',  ( 7.900000000000003908, -4.500000000000000000, 4.898587196589442041E-17 ) ) ;
#1202 = CARTESIAN_POINT ( 'NONE',  ( 5.666666666666673180, 0.3100000000000013856, -4.999999999999999112 ) ) ;
#1203 = EDGE_LOOP ( 'NONE', ( #882, #541, #521, #531 ) ) ;
#1204 = DIRECTION ( 'NONE',  ( 0.000000000000000000, 1.000000000000000000, 0.000000000000000000 ) ) ;
ENDSEC;
END-ISO-10303-21;
